<svg width="120" height="120" viewBox="0 0 120 120" fill="none" xmlns="http://www.w3.org/2000/svg">
<rect width="120" height="120" rx="60" fill="url(#paint0_linear_0_1)"/>
<path d="M45.3523 74.8C43.6023 73.0167 41.869 71.2083 40.1523 69.375C38.4523 67.525 37.0023 65.9167 35.8023 64.55C35.2357 63.9 34.819 63.2333 34.5523 62.55C34.2857 61.8667 34.1523 61.2 34.1523 60.55C34.1523 58.95 34.869 57.65 36.3023 56.65C37.119 56.0833 38.0107 55.475 38.9773 54.825C39.9607 54.1583 40.9273 53.525 41.8773 52.925C42.844 52.3083 43.6857 51.7833 44.4023 51.35C45.269 50.8 46.094 50.525 46.8773 50.525C47.644 50.525 48.2607 50.8083 48.7273 51.375C49.2107 51.925 49.4523 52.525 49.4523 53.175C49.4523 53.775 49.2273 54.3167 48.7773 54.8C48.344 55.2833 47.7857 55.7 47.1023 56.05C45.9857 56.6167 44.9023 57.15 43.8523 57.65C42.8023 58.1333 41.8523 58.6 41.0023 59.05C40.4023 59.3667 40.044 59.7583 39.9273 60.225C39.8107 60.675 39.9357 61.15 40.3023 61.65C41.4523 63.15 42.7857 64.8417 44.3023 66.725C45.819 68.5917 47.2357 70.3667 48.5523 72.05C48.8857 72.4667 49.1273 72.8583 49.2773 73.225C49.4273 73.5917 49.5023 73.9333 49.5023 74.25C49.5023 74.7667 49.3107 75.1917 48.9273 75.525C48.544 75.8583 48.1273 76.025 47.6773 76.025C46.8773 76.025 46.1023 75.6167 45.3523 74.8ZM53.7703 84.125C52.7036 84.125 52.037 83.6833 51.7703 82.8C51.5203 81.9167 51.6203 80.8667 52.0703 79.65C54.4703 73.25 56.9786 66.7583 59.5953 60.175C62.212 53.5917 64.8036 47.1833 67.3703 40.95C67.7036 40.1167 68.0453 39.525 68.3953 39.175C68.7453 38.825 69.1286 38.65 69.5453 38.65C70.5786 38.65 71.1786 39.0167 71.3453 39.75C71.512 40.4833 71.4036 41.4167 71.0203 42.55C68.737 49.0667 66.3203 55.65 63.7703 62.3C61.2203 68.95 58.6703 75.5 56.1203 81.95C55.8203 82.7333 55.4703 83.2917 55.0703 83.625C54.6703 83.9583 54.237 84.125 53.7703 84.125ZM79.4125 74.45C78.8958 75.0667 78.3958 75.5167 77.9125 75.8C77.4458 76.0833 76.9875 76.225 76.5375 76.225C75.9875 76.225 75.4708 76.025 74.9875 75.625C74.5208 75.2083 74.2875 74.6917 74.2875 74.075C74.2875 73.6583 74.4042 73.2 74.6375 72.7C74.8875 72.2 75.2292 71.6833 75.6625 71.15C76.9958 69.55 78.1542 68.2 79.1375 67.1C80.1208 65.9833 81.0625 64.85 81.9625 63.7C82.3958 63.15 82.6042 62.6417 82.5875 62.175C82.5875 61.6917 82.3958 61.2833 82.0125 60.95C81.1625 60.2167 80.2208 59.475 79.1875 58.725C78.1708 57.9583 77.2125 57.2333 76.3125 56.55C75.1125 55.6333 74.5125 54.675 74.5125 53.675C74.5125 52.975 74.7875 52.35 75.3375 51.8C75.9042 51.2333 76.5542 50.95 77.2875 50.95C77.7875 50.95 78.2792 51.0667 78.7625 51.3C79.2625 51.5333 79.7292 51.8667 80.1625 52.3C80.7292 52.85 81.4042 53.5333 82.1875 54.35C82.9708 55.1667 83.7625 55.9917 84.5625 56.825C85.3625 57.6417 86.0458 58.3667 86.6125 59C87.2958 59.7833 87.6375 60.7333 87.6375 61.85C87.6375 63.0333 87.2625 64.1333 86.5125 65.15C85.2958 66.85 84.0542 68.525 82.7875 70.175C81.5208 71.8083 80.3958 73.2333 79.4125 74.45Z" fill="white"/>
<defs>
<linearGradient id="paint0_linear_0_1" x1="117.5" y1="117.5" x2="3" y2="1.5" gradientUnits="userSpaceOnUse">
<stop stop-color="#420039"/>
<stop offset="1" stop-color="#10004B"/>
</linearGradient>
</defs>
</svg>
