<svg version="1.1" xmlns="http://www.w3.org/2000/svg" xmlns:xlink="http://www.w3.org/1999/xlink" width="78.49244" height="42.0324" viewBox="0,0,78.49244,42.0324"><g transform="translate(-315.77095,-142.02049)"><g fill="#808080" stroke="#000000" stroke-width="3" stroke-miterlimit="10"><path d="M322.94633,178.32543c0.76754,1.56721 0.11929,3.4599 -1.44792,4.22746c-1.56721,0.76754 -3.4599,0.11929 -4.22746,-1.44792c-0.76754,-1.56721 -0.1193,-3.45989 1.44791,-4.22746c1.56721,-0.76754 3.4599,-0.11929 4.22746,1.44792z"/><path d="M323.40226,175.52859l14.69848,-6.47877l1.91963,4.35511l-14.69848,6.47877z"/><path d="M336.84914,164.10128l3.94039,-1.73685l6.07896,13.79142l-3.94039,1.73685z"/><path d="M342.78516,166.18599l40.83479,-22.61701c0,0 7.85773,0.97089 9.14344,2.72698c1.46811,2.00523 -3.12721,9.89799 -3.12721,9.89799l-43.97992,15.35251z"/></g></g></svg>