<svg version="1.1" xmlns="http://www.w3.org/2000/svg" xmlns:xlink="http://www.w3.org/1999/xlink" width="75.34129" height="48.22457" viewBox="0,0,75.34129,48.22457"><g transform="translate(-315.86047,-175.95194)"><g fill="#808080" stroke="#000000" stroke-width="3" stroke-miterlimit="10"><g><path d="M322.762,181.55008c-0.82038,1.54021 -2.73401,2.12375 -4.27423,1.30338c-1.54021,-0.82038 -2.12375,-2.73401 -1.30338,-4.27423c0.82038,-1.54021 2.734,-2.12375 4.27422,-1.30338c1.54021,0.82038 2.12375,2.73401 1.30338,4.27423z"/><path d="M325.29567,180.28097l13.86191,8.11589l-2.40471,4.10723l-13.86191,-8.11589z"/><path d="M342.43459,184.48332l3.71613,2.17571l-7.61504,13.00647l-3.71613,-2.17571z"/><path d="M344.22291,190.51526l42.25299,19.84172c0,0 3.81685,6.93673 3.14699,9.00751c-0.76491,2.36457 -9.85349,3.26471 -9.85349,3.26471l-38.2085,-26.64665z"/></g></g></g></svg>