<svg version="1.1" xmlns="http://www.w3.org/2000/svg" xmlns:xlink="http://www.w3.org/1999/xlink" width="129.52942" height="129.52942" viewBox="0,0,129.52942,129.52942"><g transform="translate(-255.23529,-115.23529)"><g stroke-miterlimit="10"><path d="M258.23529,180c0,-34.11171 27.653,-61.76471 61.76471,-61.76471c34.11171,0 61.76471,27.653 61.76471,61.76471c0,34.11171 -27.653,61.76471 -61.76471,61.76471c-34.11171,0 -61.76471,-27.653 -61.76471,-61.76471z" fill="none" stroke="#000000" stroke-width="6"/><path d="M266.17647,180c0,-29.72591 24.09761,-53.82353 53.82353,-53.82353c29.72591,0 53.82353,24.09761 53.82353,53.82353c0,29.72591 -24.09761,53.82353 -53.82353,53.82353c-29.72591,0 -53.82353,-24.09761 -53.82353,-53.82353z" fill="#000000" stroke="none" stroke-width="0"/><text transform="translate(281.67002,185.76875) scale(0.5,0.5)" font-size="40" xml:space="preserve" fill="#ffffff" stroke="none" stroke-width="1" font-family="Sans Serif" font-weight="normal" text-anchor="start"><tspan x="0" dy="0">ATTACK!</tspan></text></g></g></svg>