<svg version="1.1" xmlns="http://www.w3.org/2000/svg" xmlns:xlink="http://www.w3.org/1999/xlink" width="138.0163" height="156.08539" viewBox="0,0,138.0163,156.08539"><g transform="translate(-250.99187,-101.95731)"><g stroke-miterlimit="10"><path d="M252.49188,222.21903c0,-29.96863 0,-71.17687 0,-87.68628c0,-13.76841 17.85017,-31.07544 31.32718,-31.07544c14.39296,0 47.61821,0 72.60635,0c17.57987,0 31.08277,12.74475 31.08277,30.24034c0,30.30935 0,74.87697 0,92.14019c0,13.63846 -13.77858,30.70486 -31.63951,30.70486c-25.11742,0 -58.30817,0 -72.60634,0c-13.29208,0 -30.77044,-14.76917 -30.77044,-34.32366z" fill="#666666" stroke="#000000" stroke-width="3" stroke-linecap="butt"/><text transform="translate(263.67001,168.43542) scale(0.5,0.5)" font-size="40" xml:space="preserve" fill="#000000" stroke="none" stroke-width="1" stroke-linecap="butt" font-family="Sans Serif" font-weight="normal" text-anchor="start"><tspan x="0" dy="0">HP:</tspan></text><text transform="translate(263.67357,191.50886) scale(0.5,0.5)" font-size="40" xml:space="preserve" fill="#000000" stroke="none" stroke-width="1" stroke-linecap="butt" font-family="Sans Serif" font-weight="normal" text-anchor="start"><tspan x="0" dy="0">ATK:</tspan></text><path d="M253.09344,139.66667h133.81315" fill="none" stroke="#000000" stroke-width="3" stroke-linecap="round"/></g></g></svg>