<svg version="1.1" xmlns="http://www.w3.org/2000/svg" xmlns:xlink="http://www.w3.org/1999/xlink" width="641.8373" height="371.16135" viewBox="0,0,641.8373,371.16135"><defs><linearGradient x1="639.90466" y1="179.89751" x2="-0.0167" y2="179.89751" gradientUnits="userSpaceOnUse" id="color-1"><stop offset="0" stop-color="#a6ffaf"/><stop offset="1" stop-color="#fff6a6"/></linearGradient><linearGradient x1="559.22426" y1="1082.00483" x2="559.22426" y2="1164.70963" gradientUnits="userSpaceOnUse" id="color-2"><stop offset="0" stop-color="#ee2a7b"/><stop offset="1" stop-color="#811150"/></linearGradient></defs><g transform="translate(0.48658,6.77785)"><g data-paper-data="{&quot;isPaintingLayer&quot;:true}" fill-rule="nonzero" stroke-linecap="butt" stroke-linejoin="miter" stroke-miterlimit="10" stroke-dasharray="" stroke-dashoffset="0" style="mix-blend-mode: normal"><path d="M-0.01669,359.79133v-359.78764h639.92134v359.78764z" fill="url(#color-1)" stroke="none" stroke-width="0"/><path d="M339.6106,267.24201c0,0 -41.97789,0.01776 -61.04286,0.01776c-4.99402,0 -9.04212,-4.04902 -9.04212,-9.04212c0,-4.99402 4.0481,-9.04139 9.04212,-9.04139c15.98384,0 60.99378,-0.01868 60.99378,-0.01868c0,0 -3.02179,-3.05805 -16.96218,-16.99752c-3.53138,-3.53156 -3.53138,-9.25599 0,-12.78664c3.53321,-3.53064 9.25691,-3.53156 12.78755,0c11.30366,11.30202 32.43955,32.44028 32.43955,32.44028c3.53064,3.53156 3.53064,9.25672 0,12.78664c0,0 -18.23971,18.24044 -32.17991,32.18082c-3.53321,3.53321 -9.25764,3.53321 -12.78755,0c-3.53156,-3.53083 -3.53156,-9.25691 0,-12.78499c11.30385,-11.30714 16.75161,-16.75417 16.75161,-16.75417z" fill="url(#color-2)" stroke="#ffffff" stroke-width="3.5"/><path d="M2.14754,106.64627l-0.13099,-105.0113l481.52416,0.75829l10.75601,27.643l-79.81552,33.99295l-305.09797,30.20576l-16.59751,22.97592l-7.52779,-18.95212z" fill="#ffe600" stroke="#e6cf00" stroke-width="5"/><text transform="translate(25.9854,63.20511) rotate(-3.68642) scale(1.01943,1.01943)" font-size="40" xml:space="preserve" fill="#ffffff" fill-rule="nonzero" stroke="#ffffff" stroke-width="1" stroke-linecap="butt" stroke-linejoin="miter" stroke-miterlimit="10" stroke-dasharray="" stroke-dashoffset="0" font-family="Sans Serif" font-weight="normal" text-anchor="start" style="mix-blend-mode: normal"><tspan x="0" dy="0">Новое обновление!</tspan></text><path d="M620.03494,307.01455l18.80343,15.08187l-0.37392,36.38668l-130.56496,-1.06528l-8.20498,-19.11242z" fill="#ffe600" stroke="#e6cf00" stroke-width="5"/><text transform="translate(536.41189,357.34739) rotate(-15.1944) scale(0.56487,0.56487)" font-size="40" xml:space="preserve" fill="#000000" fill-rule="nonzero" stroke="none" stroke-width="1" stroke-linecap="butt" stroke-linejoin="miter" stroke-miterlimit="10" stroke-dasharray="" stroke-dashoffset="0" font-family="Sans Serif" font-weight="normal" text-anchor="start" style="mix-blend-mode: normal"><tspan x="0" dy="0">v1.0.4.5</tspan></text></g></g></svg>