<svg version="1.1" xmlns="http://www.w3.org/2000/svg" xmlns:xlink="http://www.w3.org/1999/xlink" width="639.75348" height="359.72852" viewBox="0,0,639.75348,359.72852"><g transform="translate(-0.12326,-0.13574)"><g stroke-miterlimit="10"><g stroke-width="0" stroke-linecap="butt"><path d="M0.12326,359.85947v-359.72373h639.75348v359.72373z" fill="#c7f3ff" stroke="none"/><path d="M0.63003,359.86426v-114.33333h638.60665v114.33333z" fill="#70ff4d" stroke="#000000"/></g><g stroke-width="0" stroke-linecap="butt"><g><g stroke="none"><path d="M114.29692,56.50253c0,-16.2924 13.2076,-29.5 29.5,-29.5c16.2924,0 29.5,13.2076 29.5,29.5c0,16.2924 -13.2076,29.5 -29.5,29.5c-16.2924,0 -29.5,-13.2076 -29.5,-29.5z" fill="#ffe600"/><g><g><path d="M387.5264,75.75884c7.91423,-11.9001 23.97693,-15.1313 35.87705,-7.21707c11.9001,7.91423 15.1313,23.97693 7.21707,35.87705c-7.91423,11.9001 -23.97693,15.1313 -35.87705,7.21707c-11.9001,-7.91423 -15.1313,-23.97693 -7.21707,-35.87705z" fill="#fafafa"/><path d="M452.37958,76.20525c7.91423,-11.9001 23.97693,-15.1313 35.87705,-7.21707c11.9001,7.91423 15.1313,23.97693 7.21707,35.87705c-7.91423,11.9001 -23.97693,15.1313 -35.87705,7.21707c-11.9001,-7.91423 -15.1313,-23.97693 -7.21707,-35.87705z" fill="#bababa"/><path d="M417.79928,83.16151c7.91423,-11.9001 23.97693,-15.1313 35.87705,-7.21707c11.9001,7.91423 15.1313,23.97693 7.21707,35.87705c-7.91423,11.9001 -23.97693,15.1313 -35.87705,7.21707c-11.9001,-7.91423 -15.1313,-23.97693 -7.21707,-35.87705z" fill="#e3e3e3"/><path d="M440.93194,46.12654c7.91423,-11.9001 23.97693,-15.1313 35.87705,-7.21707c11.9001,7.91423 15.1313,23.97693 7.21707,35.87705c-7.91423,11.9001 -23.97693,15.1313 -35.87705,7.21707c-11.9001,-7.91423 -15.1313,-23.97693 -7.21707,-35.87705z" fill="#e3e3e3"/><path d="M395.96496,43.92852c7.91423,-11.9001 23.97693,-15.1313 35.87705,-7.21707c11.9001,7.91423 15.1313,23.97693 7.21707,35.87705c-7.91423,11.9001 -23.97693,15.1313 -35.87705,7.21707c-11.9001,-7.91423 -15.1313,-23.97693 -7.21707,-35.87705z" fill="#ffffff"/></g><g><path d="M219.65492,79.30719c0,-12.34374 10.00659,-22.35033 22.35033,-22.35033c12.34374,0 22.35033,10.00659 22.35033,22.35033c0,12.34374 -10.00659,22.35033 -22.35033,22.35033c-12.34374,0 -22.35033,-10.00659 -22.35033,-22.35033z" fill="#bababa"/><path d="M198.11246,100.8498c0,-12.34374 10.00659,-22.35033 22.35033,-22.35033c12.34374,0 22.35033,10.00659 22.35033,22.35033c0,12.34374 -10.00659,22.35033 -22.35033,22.35033c-12.34374,0 -22.35033,-10.00659 -22.35033,-22.35033z" fill="#e3e3e3"/><path d="M197.03535,63.15044c0,-12.34374 10.00659,-22.35033 22.35033,-22.35033c12.34374,0 22.35033,10.00659 22.35033,22.35033c0,12.34374 -10.00659,22.35033 -22.35033,22.35033c-12.34374,0 -22.35033,-10.00659 -22.35033,-22.35033z" fill="#e3e3e3"/><path d="M163.64446,83.07712c0,-12.34374 10.00659,-22.35033 22.35033,-22.35033c12.34374,0 22.35033,10.00659 22.35033,22.35033c0,12.34374 -10.00659,22.35033 -22.35033,22.35033c-12.34374,0 -22.35033,-10.00659 -22.35033,-22.35033z" fill="#f9f9f9"/></g></g></g><g stroke="#000000"><g><path d="M158.67595,246.92131c0,0 26.19421,-42.96179 38.05743,-65.71877c13.10962,-25.14792 37.23526,-78.71372 37.23526,-78.71372c0,0 30.95067,77.59607 44.66276,104.11017c9.98193,19.30136 30.03227,40.32233 30.03227,40.32233z" fill="#989898"/><path d="M200.97182,173.47357l33.20174,-72.42295l30.80779,76.58257l-24.91366,-36.58252l-8.63554,20.06187l-10.72712,-8.23542z" fill="#f2f2f2"/></g><g><path d="M80.33641,246.71326l53.46452,-102.55994l26.01794,63.76034l27.0222,38.79961z" fill="#7c7c7c"/><path d="M108.60207,192.58969l25.78226,-49.45761l21.41798,55.00377l-17.27796,-26.60017l-6.06559,14.24571l-7.53471,-5.84788z" fill="#f2f2f2"/></g></g></g><g stroke="none"><path d="M404.3756,271.19489c0,0 4.83078,-23.05877 5.35591,-33.25498c0.56881,-11.04448 -2.0636,-30.67067 -2.0636,-30.67067c0,0 9.7502,-37.80006 10.39493,-45.49082c0.27175,-3.24155 18.1384,-0.32713 18.1384,-0.32713c0,0 -1.65999,3.96916 -2.73663,17.88495c-1.23808,16.00247 6.89785,42.85854 7.49394,53.6964c0.73434,13.35151 10.05808,38.16224 10.05808,38.16224z" fill="#9a4b00"/><g><path d="M376.82823,179.50606c0,-12.57651 10.19528,-22.77179 22.77179,-22.77179c12.57651,0 22.77179,10.19528 22.77179,22.77179c0,12.57651 -10.19528,22.77179 -22.77179,22.77179c-12.57651,0 -22.77179,-10.19528 -22.77179,-22.77179z" fill="#51fa23"/><path d="M428.95648,178.95735c0,-12.57651 10.19528,-22.77179 22.77179,-22.77179c12.57651,0 22.77179,10.19528 22.77179,22.77179c0,12.57651 -10.19528,22.77179 -22.77179,22.77179c-12.57651,0 -22.77179,-10.19528 -22.77179,-22.77179z" fill="#3dba1a"/><path d="M424.56674,148.22905c0,-12.57651 10.19528,-22.77179 22.77179,-22.77179c12.57651,0 22.77179,10.19528 22.77179,22.77179c0,12.57651 -10.19528,22.77179 -22.77179,22.77179c-12.57651,0 -22.77179,-10.19528 -22.77179,-22.77179z" fill="#3dba1a"/><path d="M402.61799,170.17787c0,-12.57651 10.19528,-22.77179 22.77179,-22.77179c12.57651,0 22.77179,10.19528 22.77179,22.77179c0,12.57651 -10.19528,22.77179 -22.77179,22.77179c-12.57651,0 -22.77179,-10.19528 -22.77179,-22.77179z" fill="#4ae421"/><path d="M401.52056,131.76746c0,-12.57651 10.19528,-22.77179 22.77179,-22.77179c12.57651,0 22.77179,10.19528 22.77179,22.77179c0,12.57651 -10.19528,22.77179 -22.77179,22.77179c-12.57651,0 -22.77179,-10.19528 -22.77179,-22.77179z" fill="#4ae421"/><path d="M367.50005,152.07002c0,-12.57651 10.19528,-22.77179 22.77179,-22.77179c12.57651,0 22.77179,10.19528 22.77179,22.77179c0,12.57651 -10.19528,22.77179 -22.77179,22.77179c-12.57651,0 -22.77179,-10.19528 -22.77179,-22.77179z" fill="#53ff24"/></g></g></g><g><path d="M302.67374,255.83452v-43.31795h34.65436v43.31795z" fill="#fff599" stroke="#000000" stroke-width="2" stroke-linecap="butt"/><path d="M352.67411,240.13361l-12.33621,-18.84698" fill="none" stroke="#fff599" stroke-width="8.5" stroke-linecap="round"/><path d="M334.37701,281.82527v-22.52533" fill="none" stroke="#fff599" stroke-width="8.5" stroke-linecap="round"/><path d="M304.9208,281.82527v-22.52533" fill="none" stroke="#fff599" stroke-width="8.5" stroke-linecap="round"/><path d="M299.50287,222.64595l-11.11194,19.59377" fill="#ffffff" stroke="#fff599" stroke-width="8.5" stroke-linecap="round"/><path d="M300.7786,280.3487c-0.95386,-3.79475 0.14267,-26.82346 0.5862,-27.65832c0.2006,-0.37756 36.5988,0.37797 36.96376,0c0.20306,-0.21032 2.33593,28.46327 0.7266,28.05338c-2.47339,0.54376 -8.75668,-0.17613 -8.92655,-0.15639c-1.49286,0.17343 -6.67949,-17.68921 -6.80924,-17.79449c-1.66706,-1.35248 -5.41767,-0.72256 -5.56624,-0.13342c-0.10663,0.42285 -6.45091,16.59723 -7.83296,17.68926c-0.73939,0.58422 -8.9765,0.65663 -9.14156,-0.00002z" fill="#303333" stroke="#000000" stroke-width="1.5" stroke-linecap="butt"/><path d="M299.90493,253.69439c0.08293,0.45544 1.68883,-24.98261 1.68883,-26.22046c0,-0.46965 -7.21438,15.63856 -7.36691,15.54773c-1.19041,0.70333 -9.51072,-5.22713 -9.47542,-5.59963c0.03285,-0.34662 9.28595,-18.83666 11.27357,-18.59607c2.7824,-0.21165 46.18099,-0.50661 46.56642,-0.36397c0.50429,0.18663 13.22758,16.94865 12.87305,16.52798c-1.4597,1.94658 -5.92704,6.06105 -8.62465,6.07575c-0.56476,0.00308 -9.1521,-12.75315 -9.14745,-13.19872c0.00198,-0.18933 2.09891,26.60547 2.11102,26.64267c0.27363,0.84023 -39.94932,-1.0948 -39.89844,-0.81531z" fill="#6abf54" stroke="#000000" stroke-width="1.5" stroke-linecap="butt"/><path d="M314.633,254.15505c0.02274,0.52789 0.463,-27.8084 0.463,-29.24313c0,-0.54434 9.89533,-0.17559 9.89661,-0.69203c0.00056,-0.21945 0.57542,29.68937 0.57875,29.73252c0.07502,0.97386 -10.9523,-0.12134 -10.93833,0.20262z" fill="#b3ffff" stroke="#000000" stroke-width="1.5" stroke-linecap="butt"/><path d="M349.79044,195.18937c0,16.26821 -13.18799,29.45621 -29.45621,29.45621c-16.26821,0 -29.45621,-13.18799 -29.45621,-29.45621c0,-16.26821 13.188,-29.4562 29.45621,-29.4562c16.26821,0 29.45621,13.18799 29.45621,29.4562z" fill="#fff599" stroke="#000000" stroke-width="1.5" stroke-linecap="butt"/><path d="M331.39871,196.96667c0,2.51201 -1.16364,4.54838 -2.59907,4.54838c-1.43543,0 -2.59908,-2.03637 -2.59908,-4.54838c0,-2.51201 1.16365,-4.54838 2.59908,-4.54838c1.43543,0 2.59907,2.03637 2.59907,4.54838z" fill="#000000" stroke="#000000" stroke-width="3.5" stroke-linecap="butt"/><path d="M315.56005,197.21091c0,2.51201 -1.16364,4.54838 -2.59908,4.54838c-1.43543,0 -2.59907,-2.03637 -2.59907,-4.54838c0,-2.51201 1.16364,-4.54838 2.59907,-4.54838c1.43543,0 2.59908,2.03637 2.59908,4.54838z" fill="#000000" stroke="#000000" stroke-width="3.5" stroke-linecap="butt"/><path d="M323.88731,213.88617c0,0 -4.01862,3.06355 -6.73195,2.41118c-4.59674,-1.02904 -5.91037,-5.45079 -5.91037,-5.45079" fill="none" stroke="#000000" stroke-width="3.5" stroke-linecap="round"/><path d="M337.8176,167.14379c8.71311,0.19583 16.8823,24.88928 17.26388,28.53688c0.74417,7.11368 -4.6935,-0.91913 -4.8696,-0.37762c-0.04122,0.12677 -0.9115,11.33508 -0.89689,11.75299c0.02092,0.59867 -11.30035,-15.27937 -16.03899,-20.49225c-4.31154,-4.74305 -12.78496,-7.09026 -12.78496,-7.09026c0,0 -3.69416,-14.94969 -3.28751,-15.37008c0,0 8.37513,-0.98579 20.61406,3.04035z" fill="#e68e53" stroke="#8f5a2f" stroke-width="1.5" stroke-linecap="butt"/><path d="M321.49595,163.224c0.4005,0.55293 4.99254,12.97585 -0.95304,18.14911c-0.54606,0.47513 -4.42351,1.08748 -11.69042,4.56146c-8.5231,4.0745 -19.96777,18.81713 -19.98938,18.70906c-0.22208,-1.80804 -0.88671,-6.63522 -0.88671,-6.63522c0,0 -3.76889,2.79843 -3.42609,0.75781c0.07274,-0.43306 2.97705,-12.60849 3.30422,-13.281c3.64891,-7.50071 9.38666,-15.31196 13.49119,-17.9764c0.72427,-0.47016 -11.21396,6.16415 -11.73038,5.24579c-0.64466,-1.14643 6.64929,-8.16055 12.698,-9.90654c4.92608,-1.42195 18.73277,-0.2451 19.1826,0.37593z" fill="#e68e53" stroke="#8f5a2f" stroke-width="1.5" stroke-linecap="butt"/><path d="M304.67058,181.30213c-0.98917,-1.01976 -11.25002,9.17558 -11.1057,8.90077c0.10705,-0.20383 2.21551,-15.73878 5.32343,-14.17417" fill="none" stroke="#8f5a2f" stroke-width="1.5" stroke-linecap="round"/><path d="M343.05195,179.50938c1.42691,-0.37473 4.3551,9.50776 4.12273,9.30197c-0.10026,-0.08876 -3.99939,-1.55913 -4.07137,-1.72261c-0.04003,-0.09091 -1.34637,2.06282 -1.5054,2.09787c-0.10051,0.02214 -2.61309,-1.46159 -2.45767,-2.95514" fill="none" stroke="#8f5a2f" stroke-width="1.5" stroke-linecap="round"/><path d="M329.86957,173.07093c1.57402,1.41697 1.58251,6.7541 1.33625,6.56513c-0.43472,-0.33358 -4.54869,-5.55989 -4.54869,-5.55989" fill="none" stroke="#8f5a2f" stroke-width="1.5" stroke-linecap="round"/><path d="M306.18172,166.76782c0.16544,0.05009 12.32526,-1.86438 11.34695,1.47433" fill="none" stroke="#8f5a2f" stroke-width="1.5" stroke-linecap="round"/><path d="M308.98307,246.82134c0,-0.82975 0.67264,-1.50237 1.50237,-1.50237c0.82975,0 1.50237,0.67264 1.50237,1.50237c0,0.82975 -0.67264,1.50237 -1.50237,1.50237c-0.82975,0 -1.50237,-0.67264 -1.50237,-1.50237z" fill="#000000" stroke="none" stroke-width="0" stroke-linecap="butt"/><path d="M309.41625,239.36102c0,-0.82975 0.67264,-1.50238 1.50237,-1.50238c0.82973,0 1.50237,0.67263 1.50237,1.50238c0,0.82975 -0.67264,1.50237 -1.50237,1.50237c-0.82973,0 -1.50237,-0.67264 -1.50237,-1.50237z" fill="#000000" stroke="none" stroke-width="0" stroke-linecap="butt"/><path d="M309.84943,231.4194c0,-0.82975 0.67264,-1.50237 1.50237,-1.50237c0.82973,0 1.50237,0.67263 1.50237,1.50237c0,0.82975 -0.67264,1.50237 -1.50237,1.50237c-0.82973,0 -1.50237,-0.67264 -1.50237,-1.50237z" fill="#000000" stroke="none" stroke-width="0" stroke-linecap="butt"/></g><g><path d="M243.57305,225.38995l29.48123,-58.16861" fill="none" stroke="#331f00" stroke-width="3.5" stroke-linecap="round"/><path d="M269.02735,166.90258l9.80323,-10.50396l-2.5301,13.59932l-6.5597,3.51342z" fill="#999999" stroke="#000000" stroke-width="1" stroke-linecap="butt"/><path d="M268.74676,165.445l-27.44151,59.15822" fill="none" stroke="#331f00" stroke-width="3.5" stroke-linecap="round"/><path d="M264.2108,165.35868l9.26333,-10.98303l-1.84394,13.70922l-6.37499,3.8384z" fill="#999999" stroke="#000000" stroke-width="1" stroke-linecap="butt"/><path d="M241.30419,218.29906l40.1409,-51.39492" fill="none" stroke="#331f00" stroke-width="3.5" stroke-linecap="round"/><path d="M275.50843,168.48386l11.51246,-8.5965l-4.90448,12.93403l-7.0793,2.29291z" fill="#999999" stroke="#000000" stroke-width="1" stroke-linecap="butt"/><path d="M227.28262,240.02018l30.45012,-58.22009l12.582,6.27963l-30.45012,58.2201z" fill="#995c00" stroke="#000000" stroke-width="1.5" stroke-linecap="butt"/><path d="M214.52014,212.67869l-10.64722,16.26659" fill="none" stroke="#fff599" stroke-width="7.5" stroke-linecap="round"/><path d="M219.66491,264.92881v-19.44132" fill="none" stroke="#fff599" stroke-width="7.5" stroke-linecap="round"/><path d="M245.08818,264.92883v-19.44132" fill="none" stroke="#fff599" stroke-width="7.5" stroke-linecap="round"/><path d="M259.35489,230.76305l-9.59057,-16.91112" fill="#ffffff" stroke="#fff599" stroke-width="7.5" stroke-linecap="round"/><path d="M248.66324,263.6544c-0.14246,0.56675 -7.25181,0.50425 -7.88996,0.00002c-1.19283,-0.94252 -6.6685,-14.90241 -6.76053,-15.26737c-0.12822,-0.50848 -3.36533,-1.05215 -4.80415,0.11515c-0.11198,0.09087 -4.58849,15.50788 -5.87696,15.3582c-0.14661,-0.01704 -5.56965,0.60429 -7.70439,0.13498c-1.38899,0.35377 0.45187,-24.39402 0.62712,-24.2125c0.315,0.32622 31.72981,-0.32586 31.90294,0c0.3828,0.72055 1.3292,20.59633 0.50594,23.87153z" fill="#303333" stroke="#000000" stroke-width="1.5" stroke-linecap="butt"/><path d="M249.41731,240.64939c0.0439,-0.24122 -34.672,1.42888 -34.43583,0.70369c0.01046,-0.03211 1.82029,-23.15835 1.822,-22.99494c0.00401,0.38457 -7.40761,11.3943 -7.89505,11.39164c-2.32828,-0.01268 -6.18398,-3.56382 -7.44383,-5.24389c-0.30599,0.36308 10.67532,-14.10401 11.11057,-14.26509c0.33265,-0.12311 37.78941,0.13147 40.19087,0.31414c1.71549,-0.20765 9.70172,15.75086 9.73007,16.05002c0.03046,0.3215 -7.15069,5.44 -8.17812,4.83297c-0.13165,0.0784 -6.35828,-13.82439 -6.35828,-13.41904c0,1.06838 1.38603,23.02363 1.45761,22.63054z" fill="#808080" stroke="#000000" stroke-width="1.5" stroke-linecap="butt"/><path d="M236.70571,241.05274c0.01206,-0.27795 -9.50549,0.66175 -9.44074,-0.17385c0.00287,-0.03701 0.49903,-25.6999 0.49951,-25.51161c0.0011,0.44312 8.54163,0.12669 8.54163,0.59376c0,1.23105 0.37999,25.54468 0.39961,25.09172z" fill="#999999" stroke="#000000" stroke-width="1.5" stroke-linecap="butt"/><path d="M232.07273,164.7312c14.04088,0 25.42327,11.38239 25.42327,25.42327c0,14.04088 -11.38239,25.42327 -25.42327,25.42327c-14.04088,0 -25.42327,-11.38239 -25.42327,-25.42327c0,-14.04088 11.38239,-25.42327 25.42327,-25.42327z" fill="#fff599" stroke="#000000" stroke-width="1" stroke-linecap="butt"/><path d="M224.19097,188.24434c1.2389,0 2.24323,1.75757 2.24323,3.92565c0,2.16808 -1.00432,3.92565 -2.24323,3.92565c-1.2389,0 -2.24323,-1.75757 -2.24323,-3.92565c0,-2.16808 1.00433,-3.92565 2.24323,-3.92565z" fill="#000000" stroke="#000000" stroke-width="3.5" stroke-linecap="butt"/><path d="M238.14881,187.97358c1.2389,0 2.24323,1.75757 2.24323,3.92565c0,2.16808 -1.00432,3.92565 -2.24323,3.92565c-1.2389,0 -2.24323,-1.75757 -2.24323,-3.92565c0,-2.16808 1.00433,-3.92565 2.24323,-3.92565z" fill="#000000" stroke="#000000" stroke-width="3.5" stroke-linecap="butt"/><path d="M238.84814,202.85766c0,0 4.52697,4.68828 -4.68828,4.68828c-9.99534,0 -7.81383,-1.04185 -7.81383,-1.04185" fill="none" stroke="#000000" stroke-width="3.5" stroke-linecap="round"/><path d="M215.18273,168.62762c5.78374,-6.90046 10.53408,-7.59534 18.05493,-8.07694c7.52083,-0.48161 12.71469,0.83625 19.31752,5.68376c6.60283,4.84751 6.90883,8.49644 7.57549,14.05988c0.36152,3.01698 -0.07874,15.38465 -1.18659,22.75507c-1.25876,8.37447 -3.23244,11.64673 -3.23244,11.64673c0,0 0.33104,-3.48027 0.06984,-5.33689c-0.24242,-1.72316 -1.58495,-5.43237 -1.58495,-5.43237c0,0 -1.01229,10.00322 -1.18839,14.48856c-0.15879,4.04449 0.17832,11.23801 0.17832,11.23801c0,0 -1.94179,-4.11404 -1.90095,-6.72671c0.04321,-2.76348 1.01715,-10.32463 1.01715,-10.32463l-1.64137,6.58122l-2.14638,13.61115c0,0 -2.08303,-8.20786 -2.14638,-13.61115c-0.06335,-5.4033 6.22354,-18.16959 4.64441,-29.4659c-1.57912,-11.2963 -4.66745,-14.13076 -11.20983,-17.50005c-6.54238,-3.36928 -12.0851,-1.50125 -17.36456,3.73933c-5.27946,5.24058 -6.2876,11.99234 -7.19673,20.64108c-0.90913,8.64875 1.87256,11.57692 3.0302,18.99579c1.15764,7.41887 0.83697,3.17845 0.73165,5.11246c-0.13817,2.53707 -1.48919,8.79783 -1.48919,8.79783c0,0 -1.174,-6.25861 -1.6369,-8.72627c-0.34098,-1.81779 -0.88826,-4.73529 -0.88826,-4.73529l-0.12626,13.01286c0,0 -0.86031,-9.02707 -2.02013,-14.65816c-1.15983,-5.63106 -6.15382,-13.49868 -5.68163,-22.73509c0.47218,-9.23641 2.23771,-16.1338 8.02145,-23.03426z" fill="#806554" stroke="#2f241e" stroke-width="1" stroke-linecap="round"/><path d="M253.87359,171.31049c0,0 -1.08823,10.44995 -1.20255,15.47529c-0.07289,3.20476 -2.78197,10.8877 -4.05092,12.72102c-2.49115,3.59914 -5.9008,5.82522 -5.9008,5.82522c0,0 4.12922,-7.79779 4.97083,-12.8182c0.79249,-4.72734 -0.05967,-16.47796 -0.05967,-16.47796l0.31112,10.70012l-10.9754,-15.32799c0,0 -0.6904,15.65406 -4.73973,22.98359c-4.04932,7.32954 -16.21357,17.46989 -16.21357,17.46989c0,0 10.42227,-10.20393 14.52641,-18.37062c4.10414,-8.16669 4.49871,-21.07625 4.49871,-21.07625c0,0 -2.31843,4.70027 -6.4436,9.49694c-1.20355,1.39946 -4.40141,3.60177 -5.16867,4.51979c-2.25104,2.6933 -5.58588,7.1968 -5.58588,7.1968c0,0 1.39331,-4.37887 3.2857,-7.11035c1.98303,-2.86233 8.35326,-9.68942 8.35326,-9.68942c0,0 -8.59956,8.23066 -10.59255,12.71241c-3.26809,7.34915 -7.16067,27.21027 -7.16067,27.21027c0,0 -4.77724,-10.19414 -3.05441,-19.80013c2.28145,-12.7208 11.08135,-25.0286 11.08135,-25.0286c0,0 -8.33873,12.03023 -10.51071,22.43107c-2.06975,9.91123 1.29672,21.8864 1.29672,21.8864c0,0 -4.8562,-1.56109 -6.41828,-6.93886c-1.88148,-6.47742 -1.85156,-6.71381 1.26402,-21.05167c10.10192,-14.6166 16.26467,-21.18172 16.26467,-21.18172c0,0 -12.00128,13.5889 -16.33506,21.16789c-2.38777,4.17577 -6.68158,20.48476 -6.68158,20.48476c0,0 -2.9759,-13.28794 4.11676,-27.66297c1.20699,-2.44626 4.4454,-8.28857 8.37148,-11.8023c4.80589,-4.30113 10.31305,-6.09844 10.31305,-6.09844" fill="#806554" stroke="#2f241e" stroke-width="1" stroke-linecap="round"/></g><g fill="none" stroke-linecap="round"><path d="M236.88598,225.37077l-38.66495,-42.05071" stroke="#525252" stroke-width="2.5"/><path d="M239.36054,224.02513c0,0 -23.3854,25.00985 -44.68323,2.16441c-18.38707,-19.72317 5.39964,-45.56074 5.39964,-45.56074" stroke="#663d00" stroke-width="6.5"/></g><g fill="#808080" stroke="#000000" stroke-width="2.5" stroke-linecap="butt"><path d="M346.83659,248.96967c1.24761,1.22016 1.26986,3.22065 0.04972,4.46826c-1.22016,1.24761 -3.22065,1.26986 -4.46826,0.04972c-1.24761,-1.22016 -1.26987,-3.22064 -0.04972,-4.46826c1.22016,-1.24761 3.22065,-1.26986 4.46826,-0.04972z"/><path d="M345.72455,246.93905l11.68427,-11.02259l3.26594,3.46201l-11.68427,11.02259z"/><path d="M353.96786,232.27778l3.13233,-2.95496l10.34236,10.96323l-3.13233,2.95496z"/><path d="M360.10776,232.40808l38.27864,-42.33707c0,0 8.78503,-2.76892 10.6483,-1.6083c2.1276,1.3253 -0.75435,11.49234 -0.75435,11.49234l-43.62809,36.4986z"/></g><g><path d="M472.51973,260.10157l3.1114,1.33347l7.55626,4.00038l4.88935,4.44488l3.55589,5.77834l1.33347,6.66731l2.22244,8.88975l-1.33347,8.00076v5.33384l1.77795,4.00039l4.88935,4.44488l-7.11179,1.77794l-11.11217,0.88898l-9.77871,0.44449l-9.33423,-2.22244l-13.33461,2.66692l-7.55626,-2.22244l-6.6673,3.1114l-12.00115,0.4445l-9.33423,-2.22244l8.88974,-8.88973l1.77794,-2.66692l-1.33347,-9.33423l1.33347,-5.77833l0.44448,-7.55628l2.66692,-9.77871l4.00038,-8.88975l8.88973,-8.44526l12.44563,2.22243l13.33461,-0.88898z" fill="#106400" stroke="#000000" stroke-width="3" stroke-linecap="round"/><path d="M457.85164,269.43583h-4.00039h-8.88973h-5.77833l-6.66731,-2.22244l-7.11178,-2.22244l-6.66729,-4.88934l-3.5559,-1.33347l-3.55589,-6.22281l-2.22244,-8.00076l1.77794,-5.77833l4.00039,-7.1118l6.66729,-8.44526l6.66731,-8.44525l4.00039,5.33384l7.11178,0.88898l12.44563,-1.33347l9.77871,0.44449l4.44487,-5.33384l3.55589,3.55589l4.00039,7.55628l2.66692,6.22281l4.00039,5.77833l1.77795,9.33423v8.00076l-3.5559,4.88934l-5.33384,4.00039l-6.22281,3.1114l-6.22282,2.22244z" fill="#106400" stroke="#000000" stroke-width="3" stroke-linecap="round"/><path d="M457.64838,234.09577c0,0 1.17122,-2.21183 2.76409,0.15731c5.042,7.49916 1.84228,16.12063 -1.22475,23.97872c0,0 -0.35605,1.2491 -0.76577,1.65882c-0.8301,0.8301 -1.99973,-0.34969 -1.99973,-0.34969c-6.11966,-7.65995 -4.11235,-17.97072 1.22613,-25.44519zM457.27391,256.70014c2.57714,-6.46212 4.48415,-13.51867 1.59476,-20.22563c-3.93045,6.06609 -5.57422,13.93808 -1.59476,20.22563z" fill="#000000" stroke="none" stroke-width="0.5" stroke-linecap="butt"/><path d="M432.14963,252.59288c-0.00101,0.00315 -0.00201,0.00628 -0.00302,0.00943zM435.23646,245.77024c-0.26731,2.37807 -2.98172,7.48411 -4.78852,8.11696c-1.89976,0.19223 -5.02074,-3.70404 -5.60519,-5.89572c-1.45781,-5.46664 2.87144,-13.32811 7.00348,-16.42905c0,0 0.93912,-0.70436 1.64349,0.23478c0.12173,0.1623 0.74068,1.4632 0.74068,1.4632c1.45542,4.44826 1.49113,8.19472 1.00606,12.50984zM432.72036,246.496c1.48987,-3.53399 -0.31965,-8.1728 -0.75028,-11.91305c-2.99264,3.05987 -5.97623,8.83413 -4.86465,12.78184c0.49097,1.74368 1.9358,2.89321 2.84566,4.40437c0.69167,-1.93777 1.97241,-3.38298 2.76927,-5.27314z" fill="#000000" stroke="none" stroke-width="0.5" stroke-linecap="butt"/><path d="M431.3878,246.80101c0,0 0.37122,1.11367 -0.74245,1.4849c-1.11369,0.37122 -1.48492,-0.74245 -1.48492,-0.74245l-0.31318,-1.13005c0,-2.25881 0.00171,-4.12281 0.84278,-6.25365c0,0 0.43599,-1.08995 1.52596,-0.65398c1.08995,0.43598 0.65396,1.52594 0.65396,1.52594c-0.74531,1.83393 -0.67486,3.42272 -0.67486,5.38169l0.1927,0.3876z" fill="#00ff09" stroke="none" stroke-width="0.5" stroke-linecap="butt"/><path d="M458.74896,251.18434c-0.97677,0.65117 -1.62793,-0.32559 -1.62793,-0.32559l-0.70305,-1.41001c0.01214,-2.44329 -0.64487,-4.53764 -0.23697,-7.02244c0,0 0.19299,-1.15795 1.35095,-0.96496c1.15795,0.19299 0.96497,1.35094 0.96497,1.35094c-0.39459,2.32767 0.25933,4.32001 0.26891,6.63644l0.30873,0.10765c0,0 0.65117,0.97677 -0.3256,1.62794z" fill="#00ff09" stroke="none" stroke-width="0.5" stroke-linecap="butt"/></g><g><path d="M205.95159,300.15847l7.66187,0.51079l7.15107,-1.27697l5.10791,4.85252l2.29856,5.10792l1.53238,5.6187l0.25539,4.34172l0.76619,3.32015l-0.76619,5.36331l1.02158,1.53238l5.10791,5.1079l-5.36331,1.27698l-6.89568,-0.2554l-3.83093,-1.78776l-4.34172,1.27698l-7.66187,-1.53237l-5.36331,1.27698l-5.6187,-0.2554l-6.38489,-0.51079l-4.08633,-1.02158l2.80935,-2.55397l1.02158,-2.29856v-3.06475l-0.76619,-4.59712l1.27698,-5.10791l0.76619,-3.83094l2.04316,-3.32014l2.80934,-2.55397l4.34172,-2.29856l1.78776,-0.76619z" fill="#106400" stroke="#000000" stroke-width="3" stroke-linecap="round"/><path d="M209.27171,308.07572l-3.57553,-1.27698l-3.57553,-1.78776l-3.06475,-2.29857l-2.04316,-2.80934v-4.59712l1.02158,-5.36331l2.29856,-3.32014l1.53238,-3.57554l2.29856,-4.34172l2.04316,-2.04316l2.55396,3.06475l5.6187,-0.2554l7.15107,0.76619l4.08633,-0.51079l2.29857,-3.06475l3.83094,4.85252l3.83093,4.85252l2.29857,4.08633l1.02158,3.32014l-1.27698,4.59712l-2.04316,3.57553l-2.04316,0.7662l-3.83093,2.80934l-4.08633,1.27698l-3.83094,1.27698h-3.32014h-5.10791h-2.29857z" fill="#106400" stroke="#000000" stroke-width="3" stroke-linecap="round"/><path d="M211.17629,287.76986c3.06742,4.29472 4.22078,10.21913 0.70452,14.62042c0,0 -0.67205,0.67789 -1.14901,0.20093c-0.23542,-0.23542 -0.44,-0.95313 -0.44,-0.95313c-1.76226,-4.51514 -3.60078,-9.46891 -0.70372,-13.77781c0.91524,-1.36127 1.58821,-0.09039 1.58821,-0.09039zM210.47512,289.13665c-1.6602,3.85372 -0.56446,7.9083 0.91632,11.62134c2.28654,-3.61273 1.34206,-8.13585 -0.91632,-11.62134z" fill="#000000" stroke="none" stroke-width="0.5" stroke-linecap="butt"/><path d="M225.82922,298.40345c-0.00058,-0.00181 -0.00116,-0.00362 -0.00174,-0.00542zM224.05383,294.47785c-0.27871,-2.47941 -0.2582,-4.63206 0.57807,-7.18797c0,0 0.35565,-0.74748 0.42559,-0.84074c0.40472,-0.53962 0.94432,-0.1349 0.94432,-0.1349c2.3742,1.78175 4.86172,6.29884 4.02409,9.43989c-0.33582,1.25931 -2.12908,3.49804 -3.22066,3.38759c-1.03816,-0.36363 -2.59782,-3.29748 -2.75141,-4.66388zM225.49954,294.89486c0.45787,1.08606 1.19377,1.91646 1.59119,3.02987c0.52279,-0.86829 1.35297,-1.52879 1.63507,-2.53068c0.6387,-2.2683 -1.07563,-5.5861 -2.79516,-7.34425c-0.24743,2.14909 -1.28716,4.81448 -0.4311,6.84506z" fill="#000000" stroke="none" stroke-width="0.5" stroke-linecap="butt"/><path d="M226.26523,295.07011l0.11072,-0.22271c0,-1.12559 0.04048,-2.03849 -0.38777,-3.09224c0,0 -0.25051,-0.62627 0.37576,-0.87678c0.62628,-0.2505 0.87679,0.37577 0.87679,0.37577c0.48327,1.22435 0.48425,2.29537 0.48425,3.59325l-0.17994,0.64931c0,0 -0.21331,0.6399 -0.85322,0.4266c-0.6399,-0.2133 -0.4266,-0.8532 -0.4266,-0.8532z" fill="#00ff09" stroke="none" stroke-width="0.5" stroke-linecap="butt"/><path d="M210.5439,297.58868c-0.56124,-0.37415 -0.18708,-0.93539 -0.18708,-0.93539l0.17739,-0.06185c0.0055,-1.33099 0.38123,-2.47575 0.15451,-3.8132c0,0 -0.11088,-0.66535 0.55446,-0.77623c0.66535,-0.11089 0.77624,0.55445 0.77624,0.55445c0.23437,1.42772 -0.14314,2.63111 -0.13617,4.03499l-0.40396,0.81017c0,0 -0.37415,0.56124 -0.93538,0.18708z" fill="#00ff09" stroke="none" stroke-width="0.5" stroke-linecap="butt"/></g><g><path d="M131.07374,251.19695l8.91164,0.59411l8.31753,-1.48527l5.94109,5.64404l2.67349,5.9411l1.78233,6.5352l0.29705,5.04993l0.89117,3.86171l-0.89117,6.23815l1.18821,1.78233l5.94109,5.94108l-6.23815,1.48528l-8.02048,-0.29706l-4.45581,-2.07938l-5.04992,1.48528l-8.91165,-1.78232l-6.23815,1.48528l-6.53521,-0.29706l-7.42636,-0.59411l-4.75288,-1.18822l3.2676,-2.97056l1.18821,-2.67349v-3.56465l-0.89116,-5.34699l1.48528,-5.94109l0.89117,-4.45583l2.37644,-3.86171l3.26759,-2.97056l5.04992,-2.67349l2.07938,-0.89117z" fill="#106400" stroke="#000000" stroke-width="3" stroke-linecap="round"/><path d="M134.93542,260.40564l-4.15876,-1.48528l-4.15876,-2.07938l-3.56465,-2.6735l-2.37644,-3.26759v-5.34698l1.18822,-6.23815l2.67349,-3.86171l1.78233,-4.15877l2.67349,-5.04993l2.37644,-2.37644l2.97055,3.56465l6.5352,-0.29706l8.31752,0.89117l4.75288,-0.59411l2.6735,-3.56465l4.45582,5.64404l4.45581,5.64404l2.6735,4.75288l1.18822,3.86171l-1.48528,5.34699l-2.37644,4.15876l-2.37644,0.89117l-4.45581,3.26759l-4.75287,1.48528l-4.45582,1.48528h-3.86171h-5.94109h-2.6735z" fill="#106400" stroke="#000000" stroke-width="3" stroke-linecap="round"/><path d="M137.15066,236.78756c3.56776,4.99525 4.90926,11.88604 0.81944,17.00525c0,0 -0.78167,0.78846 -1.33643,0.2337c-0.27381,-0.27381 -0.51177,-1.1086 -0.51177,-1.1086c-2.04972,-5.25164 -4.18813,-11.01344 -0.81851,-16.0252c1.06454,-1.58332 1.84727,-0.10513 1.84727,-0.10513zM136.33512,238.3773c-1.93101,4.48232 -0.65653,9.19828 1.06579,13.51697c2.65951,-4.20203 1.56097,-9.46294 -1.06579,-13.51697z" fill="#000000" stroke="none" stroke-width="0.5" stroke-linecap="butt"/><path d="M154.19373,249.15567c-0.00067,-0.00211 -0.00134,-0.0042 -0.00202,-0.0063zM152.12874,244.58973c-0.32418,-2.88384 -0.30032,-5.38763 0.67236,-8.36044c0,0 0.41366,-0.86941 0.49501,-0.97787c0.47073,-0.62764 1.09836,-0.15691 1.09836,-0.15691c2.76148,2.07239 5.65475,7.32628 4.68048,10.97969c-0.3906,1.46473 -2.47637,4.06863 -3.746,3.94017c-1.2075,-0.42294 -3.02157,-3.83535 -3.20021,-5.42464zM153.81028,245.07477c0.53255,1.26321 1.38849,2.22907 1.85074,3.52409c0.60807,-1.00992 1.57366,-1.77816 1.90178,-2.94348c0.74288,-2.63829 -1.25108,-6.49728 -3.25109,-8.54222c-0.2878,2.49964 -1.49712,5.59981 -0.50143,7.9616z" fill="#000000" stroke="none" stroke-width="0.5" stroke-linecap="butt"/><path d="M154.70085,245.2786l0.12878,-0.25904c0,-1.3092 0.04708,-2.371 -0.45102,-3.59663c0,0 -0.29138,-0.72842 0.43705,-1.01979c0.72844,-0.29137 1.01981,0.43706 1.01981,0.43706c0.5621,1.42406 0.56324,2.66979 0.56324,4.17937l-0.2093,0.75523c0,0 -0.2481,0.74428 -0.99239,0.49619c-0.74428,-0.2481 -0.49619,-0.99238 -0.49619,-0.99238z" fill="#00ff09" stroke="none" stroke-width="0.5" stroke-linecap="butt"/><path d="M136.41513,248.20799c-0.65278,-0.43519 -0.2176,-1.08796 -0.2176,-1.08796l0.20633,-0.07194c0.0064,-1.5481 0.44341,-2.87959 0.17971,-4.43519c0,0 -0.12897,-0.77388 0.6449,-0.90285c0.77388,-0.12897 0.90286,0.6449 0.90286,0.6449c0.27261,1.66061 -0.16649,3.06029 -0.15838,4.69316l-0.46986,0.94232c0,0 -0.43517,0.65279 -1.08796,0.2176z" fill="#00ff09" stroke="none" stroke-width="0.5" stroke-linecap="butt"/></g></g></g></svg>