<svg version="1.1" xmlns="http://www.w3.org/2000/svg" xmlns:xlink="http://www.w3.org/1999/xlink" width="62.11902" height="62.22502" viewBox="0,0,62.11902,62.22502"><g transform="translate(-316.62397,-176.49014)"><g fill="#808080" stroke="#000000" stroke-width="3" stroke-miterlimit="10"><g><path d="M322.59123,182.35052c-1.20409,1.26311 -3.20414,1.31096 -4.46726,0.10688c-1.26311,-1.20409 -1.31096,-3.20414 -0.10688,-4.46726c1.20409,-1.26311 3.20414,-1.31096 4.46726,-0.10688c1.26311,1.20409 1.31096,3.20414 0.10688,4.46726z"/><path d="M325.37274,181.80893l11.17116,11.54233l-3.41996,3.30997l-11.17116,-11.54233z"/><path d="M340.75202,190.46226l2.99479,3.09428l-10.83003,10.48178l-2.99479,-3.09428z"/><path d="M340.85367,196.75289l35.36703,30.46608c0,0 1.81244,7.70725 0.61076,9.52186c-1.37217,2.07205 -10.36835,0.49681 -10.36835,0.49681l-29.6427,-35.93388z"/></g></g></g></svg>