<svg version="1.1" xmlns="http://www.w3.org/2000/svg" xmlns:xlink="http://www.w3.org/1999/xlink" width="61.52892" height="95.81863" viewBox="0,0,61.52892,95.81863"><g transform="translate(-289.76292,-132.12169)"><g data-paper-data="{&quot;isPaintingLayer&quot;:true}" fill-rule="nonzero" stroke-linejoin="miter" stroke-miterlimit="10" stroke-dasharray="" stroke-dashoffset="0" style="mix-blend-mode: normal"><path d="M331.16748,225.44032v-17.63355" fill="none" stroke="#fff599" stroke-width="5" stroke-linecap="round"/><path d="M308.10823,207.80677v17.63355" fill="none" stroke="#fff599" stroke-width="5" stroke-linecap="round"/><path d="M304.86557,224.28439c-0.74671,-2.97066 0.11169,-20.99826 0.4589,-21.65181c0.15703,-0.29556 28.65071,0.29589 28.9364,0c0.15897,-0.16465 1.82864,22.28195 0.56881,21.96107c-1.93624,0.42568 -6.855,-0.13788 -6.98798,-0.12243c-1.16865,0.13577 -5.22891,-13.84767 -5.33049,-13.93009c-1.30503,-1.05876 -4.24113,-0.56564 -4.35743,-0.10444c-0.08347,0.33103 -5.04998,12.99284 -6.13189,13.84771c-0.57881,0.45735 -7.02709,0.51402 -7.15631,-0.00001z" fill="#004c24" stroke="#000000" stroke-width="1.5" stroke-linecap="butt"/><path d="M304.18164,202.31275c0.06491,0.35654 0.42305,-15.06216 0.42305,-16.03119c0,-0.36767 -3.66895,20.90563 -3.78835,20.83454c-0.93189,0.55059 -9.52188,-1.45822 -9.49423,-1.74982c0.02572,-0.27133 8.26623,-30.53796 9.8222,-30.34962c2.17815,-0.16569 36.15194,-0.3966 36.45366,-0.28494c0.39477,0.1461 10.97455,28.14707 10.69701,27.81777c-1.1427,1.52385 -6.60666,3.51083 -8.71842,3.52233c-0.44211,0.00242 -8.25316,-20.44347 -8.24953,-20.79228c0.00154,-0.14821 5.22185,25.1787 5.23134,25.20782c0.21421,0.65776 -32.41655,-8.39343 -32.37672,-8.17464z" fill="#008c41" stroke="#000000" stroke-width="1.5" stroke-linecap="butt"/><path d="M342.97265,157.61898c0,12.73527 -10.32398,23.05925 -23.05925,23.05925c-12.73527,0 -23.05925,-10.32398 -23.05925,-23.05925c0,-12.73527 10.32398,-23.05925 23.05925,-23.05925c12.73527,0 23.05925,10.32398 23.05925,23.05925z" fill="#fff599" stroke="#000000" stroke-width="1.5" stroke-linecap="butt"/><path d="M329.09693,158.74935c0,1.96648 -0.91093,3.56062 -2.03465,3.56062c-1.1237,0 -2.03465,-1.59414 -2.03465,-3.56062c0,-1.96648 0.91093,-3.56062 2.03465,-3.56062c1.1237,0 2.03465,1.59414 2.03465,3.56062z" fill="#000000" stroke="#000000" stroke-width="2.5" stroke-linecap="butt"/><path d="M316.43697,159.20147c0,1.96648 -0.91093,3.56062 -2.03465,3.56062c-1.1237,0 -2.03465,-1.59414 -2.03465,-3.56062c0,-1.96648 0.91093,-3.56062 2.03465,-3.56062c1.1237,0 2.03465,1.59414 2.03465,3.56062z" fill="#000000" stroke="#000000" stroke-width="2.5" stroke-linecap="butt"/><path d="M327.08672,169.1846c0,0 1.19143,3.62303 -6.05017,3.62303c-6.67643,0 -7.67116,-3.59595 -7.67116,-3.59595" fill="none" stroke="#000000" stroke-width="2.5" stroke-linecap="round"/><path d="M333.6703,140.03179c5.24592,6.25881 6.84728,12.51484 7.27556,20.89239c0.42828,8.37755 -4.10134,15.51358 -5.15333,20.62103c-1.05198,5.10747 -1.94681,1.49232 -1.94681,1.49232c0,0 -0.49639,2.64622 -0.80566,4.29498c-0.41985,2.2382 -3.28271,8.51419 -3.28271,8.51419c0,0 0.06091,-6.48714 1.11091,-13.21616c1.04999,-6.72902 3.57303,-9.3849 2.74843,-17.22944c-0.8246,-7.84452 -1.73899,-13.96847 -6.52753,-18.72173c-4.78854,-4.75327 -9.81587,-6.44761 -15.74989,-3.39163c-5.93403,3.05598 -8.73519,5.62688 -10.16747,15.87279c-1.43229,10.2459 -2.88758,12.88817 -2.88758,12.88817c0,0 -1.60869,3.36431 -1.82856,4.92723c-0.23691,1.684 -6.19274,8.7507 -6.19274,8.7507c0,0 4.85696,-6.87804 3.71523,-14.4738c-1.00484,-6.68507 -1.40416,-17.90272 -1.07626,-20.63916c0.60467,-5.04611 0.88222,-8.35574 6.87108,-12.75249c5.98885,-4.39677 10.69975,-5.59207 17.52125,-5.15524c6.82152,0.43682 11.13015,1.06709 16.37607,7.3259z" fill="#878544" stroke="#2f241e" stroke-width="1" stroke-linecap="round"/><path d="M329.17368,135.85142c0,0 4.99506,1.63019 9.35407,5.53137c3.56102,3.18701 6.49828,8.48606 7.59305,10.70484c6.43313,13.03834 6.73177,9.39923 -2.32632,6.51075c-3.9308,-6.87424 -14.81612,-19.19956 -14.81612,-19.19956c0,0 5.5897,5.95465 14.75228,19.21212c1.04748,4.82047 2.88342,7.88358 3.21605,10.12904c0.56475,3.81232 7.76981,11.18772 -3.33424,5.28869c-2.23488,-4.13732 -2.75303,-6.87582 -3.38063,-9.8812c-1.97001,-9.4337 -9.53336,-20.34528 -9.53336,-20.34528c0,0 7.98162,11.16333 10.05094,22.70128c1.56263,8.71276 2.22495,33.79319 -1.04625,16.98303c-2.05092,-7.46307 -3.1571,-19.13603 -10.01697,-25.20246c-1.80768,-4.065 -7.80957,-10.03199 -7.80957,-10.03199l-5.04228,-4.00335l-1.74891,-0.913l-9.95484,13.9027l0.28219,-9.70515c0,0 -0.77293,10.65797 -0.05412,14.94572c0.76335,4.55358 -2.52949,13.1903 -2.52949,13.1903c0,0 1.59946,-3.1921 -0.66005,-6.45657c-1.15095,-1.66285 -1.26209,-9.02239 -1.32819,-11.92915c-0.10368,-4.55806 -1.09073,-14.0363 -1.09073,-14.0363" fill="#878544" stroke="#2f241e" stroke-width="1" stroke-linecap="round"/><path d="" fill="#ffffff" stroke="none" stroke-width="0.5" stroke-linecap="butt"/><g stroke="none" stroke-width="0.5" stroke-linecap="butt"><path d="M328.06055,138.44852c0,-0.83642 0.51346,-1.55293 1.24236,-1.85151c-0.07636,-0.21182 -0.11798,-0.44022 -0.11798,-0.67835c0,-1.10457 0.89543,-2 2,-2c1.08848,0 1.97388,0.86955 1.99943,1.95189c0.35829,-0.33872 0.84175,-0.54641 1.37372,-0.54641c1.10457,0 2,0.89543 2,2c0,0.99794 -0.7309,1.82518 -1.68659,1.97559c-0.00426,1.10093 -0.89806,1.99208 -1.99999,1.99208c-0.78859,0 -1.47056,-0.45639 -1.79622,-1.11945c-0.29748,0.17549 -0.64434,0.27617 -1.01473,0.27617c-1.10457,0 -2,-0.89543 -2,-2z" fill="#ffffff"/><path d="M330.71004,137.94615c0,-1.10457 0.89543,-2 2,-2c1.10457,0 2,0.89543 2,2c0,1.10457 -0.89543,2 -2,2c-1.10457,0 -2,-0.89543 -2,-2z" fill="#fbff00"/></g><path d="M323.17422,141.74399c0,-0.83642 0.51346,-1.55293 1.24236,-1.85151c-0.07636,-0.21182 -0.11798,-0.44022 -0.11798,-0.67835c0,-1.10457 0.89543,-2 2,-2c1.08848,0 1.97388,0.86955 1.99943,1.95189c0.35829,-0.33872 0.84175,-0.54641 1.37372,-0.54641c1.10457,0 2,0.89543 2,2c0,0.99794 -0.7309,1.82518 -1.68659,1.97559c-0.00426,1.10093 -0.89806,1.99208 -1.99999,1.99208c-0.78859,0 -1.47056,-0.45639 -1.79622,-1.11945c-0.29748,0.17549 -0.64434,0.27617 -1.01473,0.27617c-1.10457,0 -2,-0.89543 -2,-2z" fill="#ffffff" stroke="none" stroke-width="0.5" stroke-linecap="butt"/><path d="M325.82371,141.24161c0,-1.10457 0.89543,-2 2,-2c1.10457,0 2,0.89543 2,2c0,1.10457 -0.89543,2 -2,2c-1.10457,0 -2,-0.89543 -2,-2z" fill="#fbff00" stroke="none" stroke-width="0.5" stroke-linecap="butt"/><path d="M318.6288,143.67582c0,-0.83642 0.51346,-1.55293 1.24236,-1.85151c-0.07636,-0.21182 -0.11798,-0.44022 -0.11798,-0.67835c0,-1.10457 0.89543,-2 2,-2c1.08848,0 1.97388,0.86955 1.99943,1.95189c0.35829,-0.33872 0.84175,-0.54641 1.37372,-0.54641c1.10457,0 2,0.89543 2,2c0,0.99794 -0.7309,1.82518 -1.68659,1.97559c-0.00426,1.10093 -0.89806,1.99208 -1.99999,1.99208c-0.78859,0 -1.47056,-0.45639 -1.79622,-1.11945c-0.29748,0.17549 -0.64434,0.27617 -1.01473,0.27617c-1.10457,0 -2,-0.89543 -2,-2z" fill="#ffffff" stroke="none" stroke-width="0.5" stroke-linecap="butt"/><path d="M321.27828,143.17344c0,-1.10457 0.89543,-2 2,-2c1.10457,0 2,0.89543 2,2c0,1.10457 -0.89543,2 -2,2c-1.10457,0 -2,-0.89543 -2,-2z" fill="#fbff00" stroke="none" stroke-width="0.5" stroke-linecap="butt"/><path d="M312.03792,143.5622c0,-0.83642 0.51346,-1.55293 1.24236,-1.85151c-0.07636,-0.21182 -0.11798,-0.44022 -0.11798,-0.67835c0,-1.10457 0.89543,-2 2,-2c1.08848,0 1.97388,0.86955 1.99943,1.95189c0.35829,-0.33872 0.84175,-0.54641 1.37372,-0.54641c1.10457,0 2,0.89543 2,2c0,0.99794 -0.7309,1.82518 -1.68659,1.97559c-0.00426,1.10093 -0.89806,1.99208 -1.99999,1.99208c-0.78859,0 -1.47056,-0.45639 -1.79622,-1.11945c-0.29748,0.17549 -0.64434,0.27617 -1.01473,0.27617c-1.10457,0 -2,-0.89543 -2,-2z" fill="#ffffff" stroke="none" stroke-width="0.5" stroke-linecap="butt"/><path d="M314.68741,143.05981c0,-1.10457 0.89543,-2 2,-2c1.10457,0 2,0.89543 2,2c0,1.10457 -0.89543,2 -2,2c-1.10457,0 -2,-0.89543 -2,-2z" fill="#fbff00" stroke="none" stroke-width="0.5" stroke-linecap="butt"/><path d="M304.76524,142.08494c0,-0.83642 0.51346,-1.55293 1.24236,-1.85151c-0.07636,-0.21182 -0.11798,-0.44022 -0.11798,-0.67835c0,-1.10457 0.89543,-2 2,-2c1.08848,0 1.97388,0.86955 1.99943,1.95189c0.35829,-0.33872 0.84175,-0.54641 1.37372,-0.54641c1.10457,0 2,0.89543 2,2c0,0.99794 -0.7309,1.82518 -1.68659,1.97559c-0.00426,1.10093 -0.89806,1.99208 -1.99999,1.99208c-0.78859,0 -1.47056,-0.45639 -1.79622,-1.11945c-0.29748,0.17549 -0.64434,0.27617 -1.01473,0.27617c-1.10457,0 -2,-0.89543 -2,-2z" fill="#ffffff" stroke="none" stroke-width="0.5" stroke-linecap="butt"/><path d="M307.41472,141.58256c0,-1.10457 0.89543,-2 2,-2c1.10457,0 2,0.89543 2,2c0,1.10457 -0.89543,2 -2,2c-1.10457,0 -2,-0.89543 -2,-2z" fill="#fbff00" stroke="none" stroke-width="0.5" stroke-linecap="butt"/><path d="M299.19709,139.58497c0,-0.83642 0.51346,-1.55293 1.24236,-1.85151c-0.07636,-0.21182 -0.11798,-0.44022 -0.11798,-0.67835c0,-1.10457 0.89543,-2 2,-2c1.08848,0 1.97388,0.86955 1.99943,1.95189c0.35829,-0.33872 0.84175,-0.54641 1.37372,-0.54641c1.10457,0 2,0.89543 2,2c0,0.99794 -0.7309,1.82518 -1.68659,1.97559c-0.00426,1.10093 -0.89806,1.99208 -1.99999,1.99208c-0.78859,0 -1.47056,-0.45639 -1.79622,-1.11945c-0.29748,0.17549 -0.64434,0.27617 -1.01473,0.27617c-1.10457,0 -2,-0.89543 -2,-2z" fill="#ffffff" stroke="none" stroke-width="0.5" stroke-linecap="butt"/><path d="M301.84657,139.08259c0,-1.10457 0.89543,-2 2,-2c1.10457,0 2,0.89543 2,2c0,1.10457 -0.89543,2 -2,2c-1.10457,0 -2,-0.89543 -2,-2z" fill="#fbff00" stroke="none" stroke-width="0.5" stroke-linecap="butt"/></g></g></svg>