<svg version="1.1" xmlns="http://www.w3.org/2000/svg" xmlns:xlink="http://www.w3.org/1999/xlink" width="28.49972" height="27.51725" viewBox="0,0,28.49972,27.51725"><g transform="translate(-310.37307,-158.15399)"><g data-paper-data="{&quot;isPaintingLayer&quot;:true}" fill-rule="nonzero" stroke-linejoin="miter" stroke-miterlimit="10" stroke-dasharray="" stroke-dashoffset="0" style="mix-blend-mode: normal"><path d="M314.28863,179.69009l20.96785,0.53514" fill="#ffffff" stroke="#fff599" stroke-width="6" stroke-linecap="round"/><path d="M311.35378,174.05623c0.09549,-0.42675 21.83773,0.48405 21.82405,0.64879c1.07481,0.70876 -0.48864,10.09357 -0.81475,10.21621c-0.30345,0.11411 -20.64376,-1.61266 -20.85911,-1.92994c-0.84021,-1.54371 -0.33207,-8.12219 -0.15017,-8.93505z" fill="#6abf54" stroke="#000000" stroke-width="1.5" stroke-linecap="butt"/><path d="M314.89915,163.99036l20.97364,-0.20743" fill="#ffffff" stroke="#fff599" stroke-width="6" stroke-linecap="round"/><path d="M311.12307,158.96603c0.08156,-0.42964 21.84191,-0.22715 21.83359,-0.06204c1.09731,0.67339 -0.15978,10.10414 -0.48173,10.23732c-0.29957,0.12393 -20.68533,-0.93975 -20.91088,-1.24983c-0.89003,-1.51554 -0.59631,-8.10708 -0.44098,-8.92544z" fill="#6abf54" stroke="#000000" stroke-width="1.5" stroke-linecap="butt"/></g></g></svg>