<svg version="1.1" xmlns="http://www.w3.org/2000/svg" xmlns:xlink="http://www.w3.org/1999/xlink" width="23.17633" height="94.40279" viewBox="0,0,23.17633,94.40279"><g transform="translate(-308.81949,-126.51358)"><g data-paper-data="{&quot;isPaintingLayer&quot;:true}" fill="#808080" fill-rule="nonzero" stroke="#000000" stroke-width="2" stroke-linecap="butt" stroke-linejoin="miter" stroke-miterlimit="10" stroke-dasharray="" stroke-dashoffset="0" style="mix-blend-mode: normal"><path d="M319.79965,213.27904c1.83284,-0.07766 3.38162,1.34521 3.45927,3.17806c0.07766,1.83284 -1.34521,3.38162 -3.17806,3.45927c-1.83284,0.07766 -3.38162,-1.34521 -3.45927,-3.17806c-0.07766,-1.83284 1.34521,-3.38162 3.17806,-3.45927z"/><path d="M316.77155,192.45651l-2.48157,-46.64121c0,0 3.42988,-17.85295 5.55436,-18.32558c2.42591,-0.53967 5.04867,17.88337 5.04867,17.88337l-2.05934,47.08009z"/><path d="M312.47931,196.81351l-2.15679,-5.22668l19.98097,0.2754l-2.75248,4.91985z"/><path d="M317.54755,212.837l-0.03349,-16.06297l4.7594,-0.00992l0.03349,16.06297z"/></g></g></svg>