<svg version="1.1" xmlns="http://www.w3.org/2000/svg" xmlns:xlink="http://www.w3.org/1999/xlink" width="23.28466" height="85.70574" viewBox="0,0,23.28466,85.70574"><g transform="translate(-313.54312,-99.20286)"><g fill="#808080" stroke="#000000" stroke-width="3" stroke-miterlimit="10"><path d="M320.38617,177.09862c1.73975,0.1362 3.03968,1.65694 2.90349,3.39669c-0.1362,1.73975 -1.65694,3.03968 -3.39669,2.90349c-1.73975,-0.1362 -3.03968,-1.65693 -2.9035,-3.39669c0.1362,-1.73975 1.65694,-3.03968 3.39669,-2.90349z"/><path d="M318.20993,175.28364l1.89713,-15.95057l4.72609,0.56212l-1.89713,15.95057z"/><path d="M315.20978,157.89395l0.50858,-4.27605l14.96624,1.78007l-0.50858,4.27605z"/><path d="M320.0237,153.84322l1.29447,-46.66191c0,0 4.83228,-6.27182 6.99818,-6.48571c2.47318,-0.24422 6.93182,7.72653 6.93182,7.72653l-9.14884,45.67528z"/></g></g></svg>