<svg version="1.1" xmlns="http://www.w3.org/2000/svg" xmlns:xlink="http://www.w3.org/1999/xlink" width="13.30985" height="80.20209" viewBox="0,0,13.30985,80.20209"><g transform="translate(-313.36086,-140.69896)"><g data-paper-data="{&quot;isPaintingLayer&quot;:true}" fill-rule="nonzero" stroke-linejoin="miter" stroke-miterlimit="10" stroke-dasharray="" stroke-dashoffset="0" style="mix-blend-mode: normal"><g><path d="M319.57136,156.52873v62.62231" fill="none" stroke="#804f00" stroke-width="3.5" stroke-linecap="round"/><g stroke="#000000" stroke-linecap="butt"><path d="M314.3457,150.37647c0,-0.76342 3.01013,-9.08777 3.39123,-8.47983c0.15006,0.2394 -0.96566,5.41825 1.44171,4.64943c0.73836,-0.19619 0.40513,-5.83802 0.88334,-5.69442c0.39974,-0.0039 1.2354,5.68332 2.32522,6.48523c1.12368,0.8565 0.39744,-3.06291 0.8659,-2.81531c0.40779,0.17805 1.80667,5.0933 1.80667,5.8549c0,2.95862 -2.39843,5.35704 -5.35704,5.35704c-2.95862,0 -5.35704,-2.39843 -5.35704,-5.35704z" fill="#ff8933" stroke-width="0.3"/><path d="M315.99518,151.40554c0,-0.50614 0.46944,-5.65871 0.7221,-5.25567c0.0995,0.15873 0.88602,3.2259 2.48206,2.7162c0.48952,-0.13008 0.81803,-3.8705 1.13508,-3.77529c0.26502,-0.0026 0.94113,3.7069 1.66367,4.23854c0.74498,0.56783 1.11818,-1.23702 1.42875,-1.07285c0.27036,0.11804 0.22102,2.58314 0.22102,3.08806c0,1.9615 -2.13955,3.61266 -4.10106,3.61266c-1.9615,0 -3.55161,-1.59012 -3.55161,-3.55161z" fill="#ff550d" stroke-width="0"/><path d="M317.46034,151.85797c0,-0.32857 -0.54995,-3.67337 -0.38594,-3.41173c0.06459,0.10304 1.42985,2.09412 2.46592,1.76322c0.31777,-0.08443 0.71418,-2.51255 0.91999,-2.45076c0.17205,-0.00168 0.42779,2.40635 0.89682,2.75146c0.48362,0.36862 1.39741,-0.80303 1.59902,-0.69645c0.17551,0.07663 -0.52807,1.67685 -0.52807,2.00462c0,1.27333 -1.3889,2.34518 -2.66221,2.34518c-1.27333,0 -2.30553,-1.03223 -2.30553,-2.30553z" fill="#ff0000" stroke-width="0"/></g><path d="M321.61792,151.02545c-0.41378,-0.32431 -0.82037,-0.65831 -1.21646,-1.00411c-0.10152,0.07686 -0.20528,0.15267 -0.31181,0.22792c0.00287,0.06181 -0.00343,0.1276 -0.02215,0.1969c0.20542,0.25416 0.15464,0.60138 0.15464,0.60138l-0.03617,0.24737c-0.20711,1.41631 -0.20059,3.15515 0.02256,4.61787c1.51415,-0.96162 2.81459,-2.22356 3.16778,-4.01455c-0.28102,-0.14314 -0.55132,-0.30943 -0.80902,-0.48382l-0.27089,-0.24323c-0.35537,0.10731 -0.67848,-0.14573 -0.67848,-0.14573zM316.99872,149.97517l-0.28354,0.2112c-0.29373,0.21822 -0.5941,0.42818 -0.9013,0.62741l0.13408,0.40672c0.26983,0.8572 1.62815,3.3674 2.70727,4.25107c-0.14917,-1.45244 -0.15171,-3.03808 0.04653,-4.39369l0.03617,-0.24737c0,0 0.00202,-0.01378 0.00738,-0.03733c-0.51912,-0.37606 -1.02045,-0.79089 -1.4452,-1.26942c-0.06738,0.27713 -0.30139,0.45142 -0.30139,0.45142zM315.81915,148.98339l0.28354,-0.2112c0,0 0.29613,-0.22057 0.62759,-0.1444l-0.24035,-0.46473c0,0 -0.34304,-0.66695 0.32392,-1.00999c0.66695,-0.34304 1.00999,0.32392 1.00999,0.32392l0.46125,0.90238c0.21259,0.29155 0.47517,0.54295 0.75843,0.77184c0.312,-0.20958 0.59083,-0.41892 0.85669,-0.64529c0.05239,-0.07476 0.12596,-0.1443 0.22805,-0.20123c0.24432,-0.22332 0.48237,-0.46611 0.73089,-0.74271l0.78948,-0.22207c0,0 0.74211,0.10852 0.63359,0.85063c-0.05993,0.40983 -0.3131,0.56023 -0.52779,0.61276c-0.07138,0.07548 -0.14259,0.14898 -0.21386,0.22072c0.18815,0.16174 0.37873,0.32068 0.57134,0.47711c0.39869,-0.15461 0.75392,0.16535 0.75392,0.16535l0.63416,0.57315c0.21258,0.15485 0.44247,0.30338 0.68543,0.41429c0.25048,-0.48882 0.51143,-0.97233 0.77661,-1.45333l-0.03109,-0.11739c0,0 0.10852,-0.74211 0.85063,-0.63359c0.74211,0.10852 0.63359,0.85063 0.63359,0.85063l-0.13961,0.62471c-0.28496,0.51657 -0.56492,1.03612 -0.83136,1.56249c0.00379,0.05986 0.0012,0.12505 -0.00918,0.19605c-0.06835,0.46739 -0.38801,0.59736 -0.61532,0.62954c-0.57207,2.5667 -2.60244,4.2388 -4.87795,5.49002c0,0 -0.6588,0.35845 -1.01725,-0.30035c-0.07217,-0.13264 -0.1031,-0.2531 -0.10648,-0.36091c-1.94602,-0.61724 -3.66857,-3.61521 -4.29462,-5.45165l-0.09052,-0.27459c-0.22727,-0.15376 -0.31378,-0.41618 -0.31378,-0.41618c-0.18638,-0.58514 -0.29102,-1.20507 -0.29116,-1.81918l-0.22545,-0.82335c0,0 -0.19259,-0.72485 0.53227,-0.91744c0.72485,-0.19259 0.91744,0.53227 0.91744,0.53227l0.26344,1.01676c-0.00082,0.11647 0.00169,0.23352 0.00798,0.35057c0.16758,-0.11526 0.33276,-0.23398 0.49557,-0.3556z" fill="#2d2d2d" stroke="#000000" stroke-width="0.5" stroke-linecap="butt"/></g></g></g></svg>