<svg version="1.1" xmlns="http://www.w3.org/2000/svg" xmlns:xlink="http://www.w3.org/1999/xlink" width="42.39557" height="27.65017" viewBox="0,0,42.39557,27.65017"><g transform="translate(-310.52975,-158.02084)"><g data-paper-data="{&quot;isPaintingLayer&quot;:true}" fill-rule="nonzero" stroke-linejoin="miter" stroke-miterlimit="10" stroke-dasharray="" stroke-dashoffset="0" style="mix-blend-mode: normal"><path d="M314.4091,179.47143l21.84339,0.55749" fill="#ffffff" stroke="#fff599" stroke-width="6" stroke-linecap="round"/><path d="M311.3517,173.60232c0.09948,-0.44457 22.7496,0.50426 22.73534,0.67588c1.11969,0.73836 -0.50904,10.51504 -0.84877,10.64281c-0.31612,0.11888 -21.50577,-1.68 -21.73012,-2.01053c-0.8753,-1.60817 -0.34593,-8.46134 -0.15645,-9.30815z" fill="#6abf54" stroke="#000000" stroke-width="1.5" stroke-linecap="butt"/><path d="M349.92532,163.85351l-21.84943,0.21609" fill="#ffffff" stroke="#fff599" stroke-width="6" stroke-linecap="round"/><path d="M324.14213,158.83547c0.08496,-0.44758 22.75396,-0.23664 22.74529,-0.06463c1.14314,0.70151 -0.16645,10.52605 -0.50184,10.6648c-0.31208,0.1291 -21.54907,-0.97899 -21.78405,-1.30202c-0.92719,-1.57882 -0.62121,-8.4456 -0.45939,-9.29813z" fill="#6abf54" stroke="#000000" stroke-width="1.5" stroke-linecap="butt"/></g></g></svg>