<svg version="1.1" xmlns="http://www.w3.org/2000/svg" xmlns:xlink="http://www.w3.org/1999/xlink" width="33.46153" height="27.77544" viewBox="0,0,33.46153,27.77544"><g transform="translate(-316.25508,-158.02058)"><g data-paper-data="{&quot;isPaintingLayer&quot;:true}" fill-rule="nonzero" stroke-linejoin="miter" stroke-miterlimit="10" stroke-dasharray="" stroke-dashoffset="0" style="mix-blend-mode: normal"><path d="M346.71661,180.16018l-21.81546,-0.55678" fill="#ffffff" stroke="#fff599" stroke-width="6" stroke-linecap="round"/><path d="M321.84766,173.7418c0.09935,-0.444 22.7205,0.50361 22.70627,0.67502c1.11826,0.73741 -0.50839,10.50159 -0.84768,10.6292c-0.31572,0.11873 -21.47827,-1.67785 -21.70233,-2.00796c-0.87418,-1.60612 -0.34549,-8.45052 -0.15625,-9.29625z" fill="#6abf54" stroke="#000000" stroke-width="1.5" stroke-linecap="butt"/><path d="M342.12046,163.68804l-21.82149,0.21582" fill="#ffffff" stroke="#fff599" stroke-width="6" stroke-linecap="round"/><path d="M317.00508,158.83513c0.08485,-0.44701 22.72486,-0.23634 22.7162,-0.06455c1.14167,0.70062 -0.16624,10.51259 -0.5012,10.65116c-0.31168,0.12893 -21.52152,-0.97773 -21.75619,-1.30036c-0.92601,-1.5768 -0.62041,-8.4348 -0.45881,-9.28624z" fill="#6abf54" stroke="#000000" stroke-width="1.5" stroke-linecap="butt"/></g></g></svg>