<svg version="1.1" xmlns="http://www.w3.org/2000/svg" xmlns:xlink="http://www.w3.org/1999/xlink" width="69.58352" height="38.29572" viewBox="0,0,69.58352,38.29572"><g transform="translate(-205.20824,-160.85214)"><g stroke-miterlimit="10"><path d="M205.20825,194.99275v-29.9863c0,-2.29088 1.92369,-4.15431 4.29131,-4.15431h61.00172c2.36513,0 4.29049,1.86343 4.29049,4.15431v29.9871c0,2.29087 -1.92535,4.15432 -4.29049,4.15431h-61.00172c-2.36762,0 -4.29131,-1.86424 -4.29131,-4.15511z" fill="#a6a6a6" stroke="none" stroke-width="1"/><path d="M207.30045,193.73703v-27.47479c0,-2.09901 1.70663,-3.80637 3.8071,-3.80637h54.11864c2.09827,0 3.80636,1.70736 3.80636,3.80637v27.47553c0,2.099 -1.7081,3.80636 -3.80636,3.80636h-54.11864c-2.10047,0 -3.8071,-1.7081 -3.8071,-3.80709z" fill="#27aae1" stroke="none" stroke-width="1"/><path d="M271.90308,182.06925c-1.24408,0 -2.2526,-1.00852 -2.2526,-2.2526c0,-1.24408 1.00852,-2.2526 2.2526,-2.2526c1.24408,0 2.2526,1.00852 2.2526,2.2526c0,1.24408 -1.00852,2.2526 -2.2526,2.2526z" fill="#6f6f6f" stroke="#737373" stroke-width="0"/></g></g></svg>