<svg version="1.1" xmlns="http://www.w3.org/2000/svg" xmlns:xlink="http://www.w3.org/1999/xlink" width="160.89334" height="261.43498" viewBox="0,0,160.89334,261.43498"><defs><linearGradient x1="300.87871" y1="205.77179" x2="300.87871" y2="301.16558" gradientUnits="userSpaceOnUse" id="color-1"><stop offset="0" stop-color="#171717"/><stop offset="1" stop-color="#000000"/></linearGradient><linearGradient x1="340.02981" y1="205.94466" x2="340.02981" y2="301.33844" gradientUnits="userSpaceOnUse" id="color-2"><stop offset="0" stop-color="#171717"/><stop offset="1" stop-color="#000000"/></linearGradient><linearGradient x1="353.35934" y1="135.5591" x2="368.23873" y2="216.17128" gradientUnits="userSpaceOnUse" id="color-3"><stop offset="0" stop-color="#a6ff82" stop-opacity="0"/><stop offset="1" stop-color="#a6ff82"/></linearGradient><linearGradient x1="334.48099" y1="141.94081" x2="376.66601" y2="211.16945" gradientUnits="userSpaceOnUse" id="color-4"><stop offset="0" stop-color="#3f612b"/><stop offset="1" stop-color="#2a4828"/></linearGradient><linearGradient x1="286.64066" y1="136.27337" x2="271.76127" y2="216.88556" gradientUnits="userSpaceOnUse" id="color-5"><stop offset="0" stop-color="#a6ff82" stop-opacity="0"/><stop offset="1" stop-color="#a6ff82"/></linearGradient><linearGradient x1="305.51901" y1="142.65509" x2="263.33399" y2="211.88373" gradientUnits="userSpaceOnUse" id="color-6"><stop offset="0" stop-color="#3f612b"/><stop offset="1" stop-color="#2a4828"/></linearGradient><linearGradient x1="320.53936" y1="162.83359" x2="320.53936" y2="211.43359" gradientUnits="userSpaceOnUse" id="color-7"><stop offset="0" stop-color="#baffa9" stop-opacity="0"/><stop offset="1" stop-color="#baffa9" stop-opacity="0.56452"/></linearGradient><linearGradient x1="320.39865" y1="135.36622" x2="320.39865" y2="215.86623" gradientUnits="userSpaceOnUse" id="color-8"><stop offset="0" stop-color="#3f612b"/><stop offset="1" stop-color="#2a4828"/></linearGradient><radialGradient cx="319.07331" cy="105.48821" r="9.14439" gradientUnits="userSpaceOnUse" id="color-9"><stop offset="0" stop-color="#ef5757" stop-opacity="0.1371"/><stop offset="1" stop-color="#ef5757" stop-opacity="0"/></radialGradient><linearGradient x1="337.49251" y1="60.02547" x2="337.49251" y2="108.06906" gradientUnits="userSpaceOnUse" id="color-10"><stop offset="0" stop-color="#e68e53"/><stop offset="1" stop-color="#e68e53" stop-opacity="0.67742"/></linearGradient><linearGradient x1="295.00861" y1="52.41063" x2="295.00861" y2="110.59842" gradientUnits="userSpaceOnUse" id="color-11"><stop offset="0" stop-color="#e68e53"/><stop offset="1" stop-color="#ea945d" stop-opacity="0.80645"/></linearGradient><radialGradient cx="314.4988" cy="121.17951" r="6.84615" gradientUnits="userSpaceOnUse" id="color-12"><stop offset="0" stop-color="#b9916b"/><stop offset="1" stop-color="#b9916b" stop-opacity="0"/></radialGradient></defs><g transform="translate(-239.55333,-49.28252)"><g stroke-miterlimit="10"><path d="M349.878,274.06923c0,-1.38071 1.11929,-2.5 2.5,-2.5c1.38071,0 2.5,1.11929 2.5,2.5c0,1.38071 -1.11929,2.5 -2.5,2.5c-1.38071,0 -2.5,-1.11929 -2.5,-2.5z" fill="#2c2f2f" stroke="none" stroke-width="0.5" stroke-linecap="butt"/><g><g><path d="M283.18222,296.36557c0,0 2.4543,-13.81914 4.20984,-23.70383c1.32538,-7.46268 2.46548,-21.69001 4.83684,-35.04217c2.87507,-16.18832 6.90837,-31.09022 6.90837,-31.09022l18.15812,3.59956l1.79495,85.83621c0,0 -11.26357,5.88956 -17.35237,5.95746c-5.87276,0.06549 -18.55575,-5.55701 -18.55575,-5.55701z" fill="#2c2f2f" stroke="none" stroke-width="3.5" stroke-linecap="butt"/><path d="M295.35547,232.63059l3,-18.5h17.5v18.33334z" fill-opacity="0.24194" fill="#030303" stroke="none" stroke-width="3" stroke-linecap="butt"/><path d="M285.92465,297.38579l-2.19135,-8.77427l7.17588,-39.24681l-1.89335,-4.42311l3.58428,-3.01618l-1.9267,-3.95636l2.86369,-2.76989l5.3426,-29.42738l18.15812,3.59956c0,0 1.25042,59.79658 1.54567,73.91563c0.11857,5.67004 -1.63961,14.36503 -1.63961,14.36503c0,0 -9.37468,3.44511 -15.46348,3.51301c-5.87276,0.06549 -15.55575,-3.77923 -15.55575,-3.77923z" fill="none" stroke="url(#color-1)" stroke-width="3.5" stroke-linecap="butt"/><path d="M298.02214,260.79724l-3.33334,-9.16667c0,0 6.30796,2.67043 9.68839,2.97773c3.46206,0.31473 10.84495,-1.11107 10.84495,-1.11107l-5.2,8.96667z" fill-opacity="0.24194" fill="#030303" stroke="none" stroke-width="0" stroke-linecap="butt"/><path d="M292.35547,249.63059l6.16667,3.83333l8.16666,1.66667l3.33334,-0.5l7,-2.66667l-11.16667,20.5l-5.16666,-1.33333z" fill="none" stroke-opacity="0.34748" stroke="#000000" stroke-width="2.5" stroke-linecap="round"/><path d="M283.75183,295.55998l2.45455,-10l6.88068,4.31059l8.57202,-0.90189l6.91094,-3.22689l9.27273,-14.18182v24.63636c0,0 -10.49354,4.05139 -16.26998,3.94357c-5.58044,-0.10417 -17.82093,-4.57993 -17.82093,-4.57993z" fill-opacity="0.24194" fill="#030303" stroke="none" stroke-width="0" stroke-linecap="butt"/><path d="M299.54615,300.57297c-5.74597,-0.60217 -15.66275,-5.91121 -15.66275,-5.91121l3.02462,-24.44999l10.36623,9.07009l6.27201,2.66998l13.5393,5.18556l1.68253,4.21611l-0.97355,4.04388c0,0 -12.69739,5.75731 -18.2484,5.17558z" fill-opacity="0.24194" fill="#030303" stroke="none" stroke-width="0" stroke-linecap="butt"/></g><path d="M316.85547,296.71393c0,6.85753 -7.08882,12.41667 -15.83333,12.41667c-8.74451,0 -15.83334,-5.55913 -15.83334,-12.41667c0,-6.85753 7.08883,-12.41667 15.83334,-12.41667c8.74451,0 15.83333,5.55913 15.83333,12.41667z" fill="#212424" stroke="#000000" stroke-width="2.5" stroke-linecap="butt"/><path d="M286.45071,298.2179c0,0 -0.02395,-1.47514 -0.03789,-2.52709c-0.01714,-1.29428 2.08551,-5.09196 2.08551,-5.09196c0,0 2.55889,-2.76399 6.21798,-4.30381c2.28635,-0.96214 5.49571,-0.9819 7.25821,-0.9819c2.13525,0 7.30077,1.43282 10.18626,3.88445c3.0508,2.59208 3.76612,6.21079 3.76612,6.21079l-0.38095,2.38095l-6.32953,-1.89495l-7.85756,-1.20837l-10.17511,1.61103z" fill-opacity="0.32702" fill="#000000" stroke="none" stroke-width="3.5" stroke-linecap="butt"/></g><path d="M339.17055,302.09544c-6.0888,-0.0679 -17.35237,-5.95746 -17.35237,-5.95746l1.79495,-85.83621l18.15812,-3.59956c0,0 10.71662,45.78681 14.03571,64.4752c0.13899,0.78257 -1.48504,3.6112 -2.12297,3.9847c-0.18995,0.11121 -0.2022,-2.52276 -0.16752,-2.32751c0.54354,3.06041 3.82841,5.01224 4.41233,8.30005c0.75581,4.25562 -0.36288,8.54241 -1.13318,11.46118c-0.94207,1.4522 -1.51758,3.16421 -1.59548,5.00498c-4.00496,1.62629 -11.79099,4.5419 -16.02957,4.49463z" fill="#2c2f2f" stroke="none" stroke-width="3.5" stroke-linecap="butt"/><path d="M339.42811,301.33788c-6.0888,-0.0679 -15.46348,-3.513 -15.46348,-3.513c0,0 -1.75818,-8.695 -1.63961,-14.36504c0.29525,-14.11905 1.54567,-73.91563 1.54567,-73.91563l18.15812,-3.59956l14.89629,67.74592l-2.57439,3.42451l4.8231,3.59491l-1.9986,8.07439l-2.19135,8.77427c0,0 -9.68299,3.84472 -15.55575,3.77923z" fill="none" stroke="url(#color-2)" stroke-width="3.5" stroke-linecap="butt"/><path d="M330.88637,262.80082l-5.2,-8.96667c0,0 7.38289,1.4258 10.84495,1.11107c3.38043,-0.3073 9.68839,-2.97773 9.68839,-2.97773l-3.33334,9.16667z" fill-opacity="0.24194" fill="#030303" stroke="none" stroke-width="0" stroke-linecap="butt"/><path d="M340.05566,271.30345l-5.16666,1.33333l-11.16667,-20.5l7,2.66667l3.33334,0.5l8.16666,-1.66667l6.16667,-3.83333z" fill="none" stroke-opacity="0.34748" stroke="#000000" stroke-width="2.5" stroke-linecap="round"/><path d="M357.15668,295.89687c0,0 -12.24049,4.47576 -17.82093,4.57993c-5.77644,0.10782 -16.26998,-3.94357 -16.26998,-3.94357v-24.63636l9.27273,14.18182l6.91094,3.22689l8.57202,0.90189l6.88068,-4.31059l2.45455,10z" fill-opacity="0.24194" fill="#030303" stroke="none" stroke-width="0" stroke-linecap="butt"/><path d="M341.15516,297.25127c-5.55101,0.58173 -18.2484,-5.17558 -18.2484,-5.17558l-0.97355,-4.04388l1.68252,-4.21612l13.5393,-5.18555l6.27202,-2.66998l10.36623,-9.07009c0,0 1.32485,3.50348 1.64295,6.07489c0.22189,1.79365 1.28044,5.00525 1.51966,8.32753c0.35724,4.96128 -0.13799,10.04756 -0.13799,10.04756c0,0 -9.91678,5.30904 -15.66275,5.91121z" fill-opacity="0.24194" fill="#030303" stroke="none" stroke-width="0" stroke-linecap="butt"/><path d="M339.88637,284.63416c8.74451,0 15.83334,5.55913 15.83334,12.41667c0,6.85753 -7.08883,12.41667 -15.83334,12.41667c-8.74451,0 -15.83333,-5.55913 -15.83333,-12.41667c0,-6.85753 7.08882,-12.41667 15.83333,-12.41667z" fill="#212424" stroke="#000000" stroke-width="2.5" stroke-linecap="butt"/><path d="M349.72476,296.63394l-10.17512,-1.61104l-7.85756,1.20837l-6.32953,1.89495l-0.38095,-2.38095c0,0 0.71533,-3.61871 3.76612,-6.21079c2.88549,-2.45162 8.051,-3.88445 10.18626,-3.88445c1.7625,0 4.97186,0.01976 7.25821,0.9819c3.65909,1.53982 6.21798,4.30381 6.21798,4.30381c0,0 2.10265,3.79768 2.08551,5.09195c-0.01394,1.05196 -0.03789,2.5271 -0.03789,2.5271z" fill-opacity="0.32702" fill="#000000" stroke="none" stroke-width="3.5" stroke-linecap="butt"/><path d="M314.8019,137.25322v-12.57143h9.28571v12.57143z" fill="#ffd4ad" stroke="#d69c66" stroke-width="3.5" stroke-linecap="butt"/><g><g stroke-linecap="butt"><path d="M384.73238,190.51567c7.57419,0 13.71429,6.23604 13.71429,13.92858c0,7.69254 -6.14009,13.92857 -13.71429,13.92857c-7.57419,0 -13.71429,-6.23603 -13.71429,-13.92857c0,-7.69254 6.1401,-13.92858 13.71429,-13.92858z" fill="#fec794" stroke="#d69c66" stroke-width="4"/><path d="M378.34288,218.43715l-11.29911,-12.50973l19.5067,-17.61895l11.29911,12.50973z" fill-opacity="0.37097" fill="#ffa048" stroke="none" stroke-width="0"/></g><g><path d="M397.4373,190.72501c0,0 -24.23675,21.91922 -27.33181,25.4365c-0.68249,0.77558 -44.8815,-66.36996 -44.8815,-66.36996l14.51935,-11.38023l57.69396,52.31368z" fill="#7fc659" stroke="none" stroke-width="4.5" stroke-linecap="butt"/><path d="M395.86188,190.67684c0,0 -24.23675,21.91922 -27.33181,25.4365c-0.68249,0.77558 -44.8815,-66.36996 -44.8815,-66.36996l14.51935,-11.38023l57.69396,52.31368z" fill="url(#color-3)" stroke="none" stroke-width="4.5" stroke-linecap="butt"/><path d="M368.76457,217.64777l-42.18503,-69.22863l10.89175,-12.25215l59.21569,56.09587z" fill="none" stroke="url(#color-4)" stroke-width="4.5" stroke-linecap="butt"/><path d="M366.07704,163.21304l-1.06367,12.06007l-4.78815,4.6124l-10.18066,3.40448" fill="none" stroke-opacity="0.32258" stroke="#37572a" stroke-width="2" stroke-linecap="round"/><path d="M369.82531,216.95882l5.61554,-16.60111l-0.3466,-13.86352l-15.35945,-30.31343l35.54636,36.75846z" fill-opacity="0.16935" fill="#3a5b2a" stroke="none" stroke-width="0" stroke-linecap="butt"/><path d="M366.6516,167.17456l6.08393,21.07917l-1.00063,3.06589l-21.66055,-6.17082" fill="none" stroke-opacity="0.33871" stroke="#37572a" stroke-width="2" stroke-linecap="round"/><path d="M346.76676,182.16629l13.37571,12.37774l16.17738,4.13223l18.50683,-5.65315l-26.0015,25.1372z" fill-opacity="0.16935" fill="#3a5b2a" stroke="none" stroke-width="0" stroke-linecap="butt"/><path d="M349.96472,187.27061c0,0 -1.83276,-2.44215 0.19763,-3.71593c2.08504,-1.30808 8.06352,-1.4728 10.32313,-3.36032c2.22377,-1.85758 3.55794,-4.17608 4.52359,-5.48655c2.08024,-2.82308 0.74005,-8.85813 0.74005,-8.85813l1.90987,2.49478l0.72246,17.15382z" fill-opacity="0.16935" fill="#3a5b2a" stroke="none" stroke-width="0" stroke-linecap="butt"/><path d="M341.17619,168.9555l-4.22169,-1.24832l-9.62879,-20.59435l10.72755,-9.09834l11.88537,11.43256l0.37498,9.00968l-4.70633,9.28034z" fill-opacity="0.16935" fill="#3a5b2a" stroke="none" stroke-width="0" stroke-linecap="butt"/><path d="M338.01623,157.94618l-4.07457,-0.45121l-8.00539,-11.79921l11.24408,-6.29988l10.89657,6.07552l-0.28384,5.44043l-5.31673,5.9734z" fill-opacity="0.16935" fill="#3a5b2a" stroke="none" stroke-width="0" stroke-linecap="butt"/></g></g><g><g stroke-linecap="butt"><path d="M268.9819,205.15853c0,7.69254 -6.1401,13.92857 -13.71429,13.92857c-7.57419,0 -13.71428,-6.23603 -13.71428,-13.92857c0,-7.69254 6.1401,-13.92857 13.71428,-13.92857c7.57419,0 13.71429,6.23603 13.71429,13.92857z" fill="#fec794" stroke="#d69c66" stroke-width="4"/><path d="M242.15042,201.53249l11.29911,-12.50973l19.50669,17.61895l-11.29911,12.50973z" fill-opacity="0.37097" fill="#ffa048" stroke="none" stroke-width="0"/></g><g><path d="M242.5627,191.43928l57.69396,-52.31368l14.51935,11.38023c0,0 -44.19901,67.14554 -44.8815,66.36996c-3.09506,-3.51728 -27.33181,-25.4365 -27.33181,-25.4365z" fill="#7fc659" stroke="none" stroke-width="4.5" stroke-linecap="butt"/><path d="M244.13812,191.39111l57.69396,-52.31368l14.51935,11.38023c0,0 -44.19901,67.14554 -44.8815,66.36996c-3.09506,-3.51728 -27.33181,-25.4365 -27.33181,-25.4365z" fill="url(#color-5)" stroke="none" stroke-width="4.5" stroke-linecap="butt"/><path d="M243.31302,192.97714l59.21569,-56.09587l10.89175,12.25215l-42.18503,69.22863z" fill="none" stroke="url(#color-6)" stroke-width="4.5" stroke-linecap="butt"/><path d="M289.95544,184.00427l-10.18066,-3.40448l-4.78815,-4.6124l-1.06367,-12.06007" fill="none" stroke-opacity="0.32258" stroke="#37572a" stroke-width="2" stroke-linecap="round"/><path d="M244.71884,193.6535l35.54636,-36.75846l-15.35945,30.31343l-0.3466,13.86352l5.61554,16.60111z" fill-opacity="0.16935" fill="#3a5b2a" stroke="none" stroke-width="0" stroke-linecap="butt"/><path d="M289.92565,185.86308l-21.66055,6.17082l-1.00063,-3.06589l6.08393,-21.07917" fill="none" stroke-opacity="0.33871" stroke="#37572a" stroke-width="2" stroke-linecap="round"/><path d="M271.17482,218.87459l-26.0015,-25.1372l18.50683,5.65315l16.17738,-4.13223l13.37571,-12.37774z" fill-opacity="0.16935" fill="#3a5b2a" stroke="none" stroke-width="0" stroke-linecap="butt"/><path d="M271.61855,186.21256l0.72246,-17.15382l1.90987,-2.49478c0,0 -1.34019,6.03505 0.74005,8.85813c0.96565,1.31047 2.29982,3.62897 4.52359,5.48655c2.25961,1.88752 8.23809,2.05224 10.32313,3.36032c2.03039,1.27378 0.19763,3.71593 0.19763,3.71593z" fill-opacity="0.16935" fill="#3a5b2a" stroke="none" stroke-width="0" stroke-linecap="butt"/><path d="M294.39272,168.45135l-4.70633,-9.28034l0.37498,-9.00968l11.88537,-11.43256l10.72755,9.09834l-9.62879,20.59435l-4.22169,1.24832z" fill-opacity="0.16935" fill="#3a5b2a" stroke="none" stroke-width="0" stroke-linecap="butt"/><path d="M297.52365,157.59951l-5.31673,-5.9734l-0.28384,-5.44043l10.89657,-6.07552l11.24408,6.29988l-8.00539,11.79921l-4.07457,0.45121z" fill-opacity="0.16935" fill="#3a5b2a" stroke="none" stroke-width="0" stroke-linecap="butt"/></g></g><path d="M291.83047,214.43896l13.25,-80l31.25,-0.5l13.5,80.5z" fill="#7fc659" stroke="none" stroke-width="0" stroke-linecap="butt"/><path d="M291.58047,215.43896l10.25,-53.25l4.60182,32.24613l5.79324,12.41203l12.93607,0.27474l19.66886,-9.6829c0,0 6.50744,18.19467 1.46898,19.89781c-2.53098,0.85554 -7.34154,-1.67317 -13.34548,-1.7372c-16.73012,-0.17844 -41.3735,-0.16061 -41.3735,-0.16061z" fill-opacity="0.72581" fill="#70ae4e" stroke="none" stroke-width="0" stroke-linecap="butt"/><path d="M292.43936,213.63359l9.2,-50.8h37.8l8,52.2z" fill="url(#color-7)" stroke="none" stroke-width="4.5" stroke-linecap="butt"/><path d="M295.58047,217.06396l21.35313,-6.36667l10.79491,-5.68865l7.6641,-10.39423l3.93787,-24.30044l10.25,47.25z" fill-opacity="0.33931" fill="#70ae4e" stroke="none" stroke-width="0" stroke-linecap="butt"/><path d="M308.75547,186.38896l-7.25,-9.875l8.87705,5.56257c0,0 10.43802,0.20148 15.38666,-0.6032c5.90447,-0.96011 13.44357,-3.29826 14.96954,-4.10311c0.42152,-0.22232 -6.23326,9.51874 -6.23326,9.51874l-12.74352,7.40676l-2.51649,-0.2209z" fill-opacity="0.12641" fill="#3a5a28" stroke="none" stroke-width="0" stroke-linecap="butt"/><path d="M342.13047,178.63896l-19.125,25.25l-3.75,-0.25l-18.625,-27.25" fill="none" stroke-opacity="0.25806" stroke="#3a5a28" stroke-width="2.5" stroke-linecap="round"/><path d="M340.88047,176.51396l-8.125,3.375l-8.75,1.5l-13.875,-0.125l-10.5,-5.625" fill="none" stroke-opacity="0.29839" stroke="#3a5a28" stroke-width="2.5" stroke-linecap="round"/><path d="M304.78047,152.33896l2.75,-14.5l27.5,-0.125l1.75,13.125l-6.0482,5.22623l-8.3184,2.95307l-3.38136,-0.22968l-8.62435,-2.17935z" fill-opacity="0.72581" fill="#70ae4e" stroke="none" stroke-width="0" stroke-linecap="butt"/><path d="M304.10774,144.5385l2.75,-9.48821l27.5,-0.08179l1.75,8.58846l-6.0482,3.41983l-8.3184,1.93237l-3.38136,-0.15029l-8.62435,-1.42608z" fill-opacity="0.39516" fill="#5c8f40" stroke="none" stroke-width="0" stroke-linecap="butt"/><path d="M291.39865,215.86623l13.25,-80l31.25,-0.5l13.5,80.5z" fill="none" stroke="url(#color-8)" stroke-width="4.5" stroke-linecap="butt"/><path d="M351.33936,84.5261c0,4.59171 -7.74923,22.61073 -7.74923,22.61073l4.31804,10.70133l-28.76881,12.78794l-31.50861,-14.22543l5.50861,-11.27457c0,0 -9.58589,-19.1634 -7.27629,-27.90887c3.16526,-11.98548 22.53938,-13.99113 33.07629,-13.99113c18.2254,0 32.4,2.688 32.4,21.3z" fill="#ffdfb9" stroke="none" stroke-width="0" stroke-linecap="butt"/><path d="M286.3019,73.73341c0,-3.71049 8.27842,-9.57143 14.85714,-9.57143c8.07752,0 28.30927,0 40.63893,0c0.60405,0.45748 1.26167,0.84792 1.9618,1.16026c0.61601,4.09332 3.71314,7.37401 7.71098,8.26165c0.02645,0.87496 0.1653,1.72165 0.40258,2.52614v12.62244c-0.55707,1.11836 -0.91084,2.35576 -1.01293,3.66383c-3.30385,1.63239 -5.57612,5.0362 -5.57612,8.97072c0,1.07493 0.16961,2.11026 0.48352,3.08066h-53.61551c0.61849,-3.05361 -0.4648,-6.02243 -2.18293,-8.61804c-0.63134,-1.6208 -1.67322,-3.03635 -2.99788,-4.11889c0.41172,-0.66748 0.80545,-1.32156 0.80664,-1.40095c0.11445,-7.66135 -1.47622,-14.66428 -1.47622,-16.5764z" fill-opacity="0.23387" fill="#ff836b" stroke="none" stroke-width="0" stroke-linecap="butt"/><path d="M351.85047,83.67214c0,4.59171 -7.74922,22.61074 -7.74922,22.61074l4.31804,10.70133l-28.76882,12.78794l-31.5086,-14.22543l5.5086,-11.27457c0,0 -2.83786,-5.67324 -5.05339,-12.2548c-1.85638,-5.51466 -3.27584,-11.66702 -2.2229,-15.65407c3.16526,-11.98547 22.53938,-13.99113 33.07629,-13.99113c18.22539,0 32.4,2.688 32.4,21.3z" fill="none" stroke="#ddad80" stroke-width="3.5" stroke-linecap="butt"/><path d="M348.27973,89.10306c0,0.81812 0.19404,1.60608 0.55316,2.34463h-61.33795c0.48431,-1.59073 0.05652,-3.15121 -0.89197,-4.61108c0.00337,-0.10667 0.00506,-0.21377 0.00506,-0.32126c0,-1.96185 -0.56495,-3.79175 -1.54103,-5.33589c0.83014,-3.32058 4.34521,-11.64796 7.91948,-12.97748c2.5438,-0.94622 6.02792,-0.98648 8.21868,-2.61736c0.9127,-0.67944 1.89362,-1.44778 2.89404,-2.20467c0.87632,0.25099 1.80187,0.3854 2.75883,0.3854c2.61717,0 4.9995,-1.0054 6.78187,-2.65104c4.66835,0.39639 9.42791,0.08116 14.03363,0.76116c4.01354,0.59257 6.08966,1.33977 10.36289,1.16827c1.43687,2.38481 3.84085,4.12107 6.66899,4.66583c1.81954,3.62277 4.76671,5.42173 6.72038,10.17696c0.20452,0.49779 0.18106,1.39123 0.08388,2.31396c-0.26141,0.89286 -0.40163,1.83749 -0.40163,2.81486c0,0.83991 0.10355,1.65564 0.29857,2.43511c0,0.42598 0.06176,0.83437 0.17691,1.22531c-1.78562,1.23134 -3.30379,2.29989 -3.30379,2.42728z" fill-opacity="0.23387" fill="#ff836b" stroke="none" stroke-width="0" stroke-linecap="butt"/><path d="M330.10539,104.95011c0,1.90051 -5.03021,3.44118 -11.2353,3.44118c-6.20508,0 -11.23529,-1.54067 -11.23529,-3.44118c0,-1.90051 5.03021,-3.44117 11.23529,-3.44117c6.20508,0 11.2353,1.54066 11.2353,3.44117z" fill-opacity="0.23387" fill="#ff836b" stroke="none" stroke-width="0" stroke-linecap="butt"/><path d="M329.41149,107.57951v-19h7.14286v19z" fill="#000000" stroke="none" stroke-width="0" stroke-linecap="butt"/><path d="M328.21769,104.69743l-6.5,2.18182l-3.96524,-2.78208l-7.82353,1.29411" fill="none" stroke="url(#color-9)" stroke-width="2" stroke-linecap="round"/><path d="M351.12929,84.6429c5.49142,9.61757 3.12784,23.42616 3.12784,23.42616l-25.91997,-23.03998l7.75005,20.15506c0,0 -16.08153,-17.77708 -17.77433,-29.21539c-0.86894,-5.87148 6.10123,-15.94328 8.58429,-15.94328c1.94483,0 10.9332,0.43506 13.3661,1.94202c3.02574,1.87416 7.72568,3.70562 10.19459,7.55898c4.8197,7.52233 6.28877,17.96624 6.28877,17.96624c0,0 -6.28312,-4.01584 -5.61733,-2.8498z" fill="url(#color-10)" stroke="none" stroke-width="0" stroke-linecap="butt"/><path d="M319.97093,79.93559v-10.60363c0,0 10.03814,1.59116 14.16632,0.61343c4.16243,-0.98584 10.70638,-6.50433 10.70638,-6.50433c0,0 6.52387,7.37997 7.90554,10.18788c1.32106,2.68474 1.91263,8.27028 1.91263,8.27028c0,0 -12.94316,-7.42874 -18.60245,-7.74908c-5.89474,-0.33367 -16.08842,5.78545 -16.08842,5.78545z" fill-opacity="0.25806" fill="#ffffff" stroke="none" stroke-width="0" stroke-linecap="butt"/><path d="M318.79275,74.3065l2.22545,-7.46181c0,0 3.9807,-6.15272 7.98545,-6.15272c4.69849,0 18.45816,6.15272 18.45816,6.15272l2.74909,3.14181l-3.78364,2.20807l-7.85467,2.73896z" fill-opacity="0.24677" fill="#c45e3b" stroke="none" stroke-width="0" stroke-linecap="butt"/><path d="M355.44726,108.87238l-29.1927,-28.53815l15.33592,11.22329l5.90355,0.6979l2.13891,-1.27595l1.36341,-6.06343z" fill-opacity="0.40323" fill="#c45e3b" stroke="none" stroke-width="0" stroke-linecap="butt"/><path d="M299.59331,107.30679v-19h7.14286v19z" fill="#000000" stroke="none" stroke-width="0" stroke-linecap="butt"/><path d="M351.53397,84.78576c5.49142,9.61757 3.12784,23.42616 3.12784,23.42616l-25.91997,-23.03998l7.75005,20.15506c0,0 -16.08153,-17.77708 -17.77433,-29.21539c-0.86894,-5.87148 6.10123,-15.94328 8.58429,-15.94328c1.94483,0 10.9332,0.43506 13.3661,1.94202c3.02574,1.87416 7.72568,3.70562 10.19459,7.55898c4.8197,7.52233 6.28877,17.96624 6.28877,17.96624c0,0 -6.28312,-4.01584 -5.61733,-2.8498z" fill="none" stroke="#8f5a2f" stroke-width="3" stroke-linecap="butt"/><path d="M265.77416,83.47225c0,0 9.66157,-14.39964 17.42823,-18.69318c7.76666,-4.29354 22.48804,-3.37321 22.48804,-3.37321l-6.04366,-8.99522l24.59629,9.55742l-8.01136,12.93062c0,0 -5.86349,14.51429 -9.77566,20.32468c-4.00338,5.94586 -20.44264,15.37508 -20.44264,15.37508l17.14713,-30.35885l-25.01794,21.92584l4.77871,-11.80622z" fill="url(#color-11)" stroke="none" stroke-width="0" stroke-linecap="round"/><path d="M295.00862,87.40765c0,0 1.03639,-9.39982 -0.3088,-13.63107c-1.21914,-3.83475 -7.42146,-10.68413 -7.42146,-10.68413h7.87081c0,0 1.27538,5.56386 3.52416,7.56022c2.33898,2.07644 9.54701,4.10545 9.54701,4.10545z" fill-opacity="0.23065" fill="#ffffff" stroke="none" stroke-width="0" stroke-linecap="butt"/><path d="M311.453,89.65646c0,0 -1.86938,-3.66899 -2.97634,-4.993c-1.26201,-1.50946 -4.19172,-3.58056 -4.19172,-3.58056l3.93541,-6.60586c0,0 0.2366,5.7628 1.0122,7.28975c0.71937,1.41627 3.48541,1.56491 3.48541,1.56491z" fill-opacity="0.23065" fill="#ffffff" stroke="none" stroke-width="0" stroke-linecap="butt"/><path d="M295.99247,62.38971l7.73026,-8.29246l19.11483,8.71411l-7.73026,17.14713l-14.12681,-8.60014z" fill-opacity="0.40323" fill="#c45e3b" stroke="none" stroke-width="0" stroke-linecap="butt"/><path d="M266.75802,83.3317l15.74163,-17.00658l-3.98044,10.03933l9.39939,2.65112l19.8801,-3.97634l-13.77392,15.60108l-11.19626,5.44462l-0.12105,-5.84704z" fill-opacity="0.40323" fill="#c45e3b" stroke="none" stroke-width="0" stroke-linecap="butt"/><path d="M266.05527,83.47225c0,0 9.66157,-14.39964 17.42823,-18.69318c7.76666,-4.29355 22.48804,-3.37321 22.48804,-3.37321l-6.04366,-8.99522l24.59629,9.55742l-8.01136,12.93062c0,0 -5.86349,14.51429 -9.77566,20.32468c-4.00339,5.94586 -20.44265,15.37508 -20.44265,15.37508l17.14713,-30.35885l-25.01794,21.92584l4.77871,-11.80622z" fill="none" stroke="#8f5a2f" stroke-width="3" stroke-linecap="round"/><path d="M290.34151,106.22158l10.33161,-18.83318l3.47671,3.54969l4.01049,-1.61473l4.02439,-5.69077l-6.11511,13.77337z" fill-opacity="0.40323" fill="#c45e3b" stroke="none" stroke-width="0" stroke-linecap="butt"/><path d="M322.34497,122.4872l-7.15385,0.69231l-8.15385,-3.76923" fill="none" stroke="url(#color-12)" stroke-width="2.5" stroke-linecap="round"/></g></g></svg>