<svg version="1.1" xmlns="http://www.w3.org/2000/svg" xmlns:xlink="http://www.w3.org/1999/xlink" width="18.64333" height="86.0985" viewBox="0,0,18.64333,86.0985"><g transform="translate(-311.78552,-98.44467)"><g fill="#808080" stroke="#000000" stroke-width="3" stroke-miterlimit="10"><path d="M320.19611,176.7241c1.74497,-0.01941 3.17527,1.37941 3.19469,3.12438c0.01941,1.74497 -1.37941,3.17527 -3.12438,3.19469c-1.74497,0.01941 -3.17527,-1.3794 -3.1947,-3.12438c-0.01941,-1.74497 1.37941,-3.17527 3.12438,-3.19469z"/><path d="M317.86676,175.11031l0.46788,-16.05618l4.75738,0.13864l-0.46788,16.05618z"/><path d="M313.32858,158.05724l0.12542,-4.30436l15.06533,0.43902l-0.12542,4.30436z"/><path d="M317.76229,153.59356l-2.86974,-46.59157c0,0 4.25403,-6.67757 6.39224,-7.08366c2.44157,-0.46369 7.59291,7.07793 7.59291,7.07793l-5.04131,46.30894z"/></g></g></svg>