<svg version="1.1" xmlns="http://www.w3.org/2000/svg" xmlns:xlink="http://www.w3.org/1999/xlink" width="63.90665" height="60.23218" viewBox="0,0,63.90665,60.23218"><g transform="translate(-316.25944,-123.66478)"><g fill="#808080" stroke="#000000" stroke-width="3" stroke-miterlimit="10"><path d="M322.28035,177.92873c1.21931,1.24842 1.19573,3.2489 -0.05268,4.46823c-1.24842,1.21931 -3.2489,1.19573 -4.46823,-0.05268c-1.21931,-1.24842 -1.19573,-3.24889 0.05267,-4.46823c1.24842,-1.21931 3.2489,-1.19573 4.46823,0.05268z"/><path d="M321.8384,175.12965l11.93378,-10.75196l3.18576,3.53594l-11.93378,10.75196z"/><path d="M331.03527,160.06912l3.19922,-2.88241l10.08844,11.19734l-3.19922,2.88241z"/><path d="M337.32551,160.1921l31.7093,-34.25682c0,0 7.76704,-1.53613 9.5376,-0.27042c2.02175,1.44528 0.12634,10.37948 0.12634,10.37948l-36.96924,28.34093z"/></g></g></svg>