<svg version="1.1" xmlns="http://www.w3.org/2000/svg" xmlns:xlink="http://www.w3.org/1999/xlink" width="481.42718" height="361.00971" viewBox="0,0,481.42718,361.00971"><g transform="translate(-79.28641,0.50484)"><g stroke-miterlimit="10"><path d="M79.28641,360.50487v-361.00971h481.42718v361.00971z" fill="#b3b3b3" stroke="none" stroke-width="0"/><g><g><text transform="translate(226.26171,292.46363) scale(0.57097,0.57097)" font-size="40" xml:space="preserve" fill="#000000" stroke="none" stroke-width="1" font-family="Sans Serif" font-weight="normal" text-anchor="start"><tspan x="0" dy="0">В разработке</tspan></text><g fill="#808080" stroke="#000000" stroke-width="3"><path d="M407.42186,282.05479c0,0 6.70883,0.44674 6.29833,4.83414c-0.39906,4.26516 -7.24825,3.63818 -7.24825,3.63818c0,0 3.88256,6.74741 -0.01434,9.1156c-5.03046,1.86083 -8.423,-4.25194 -8.423,-4.25194c0,0 -3.26513,6.44601 -7.92017,4.46333c-4.24564,-1.98901 -0.56057,-8.93744 -0.56057,-8.93744c0,0 -7.4067,0.08396 -7.61665,-5.44955c0.14982,-3.64832 6.86671,-3.64776 6.86671,-3.64776c0,0 -3.42688,-7.67729 1.31607,-10.47827c3.22173,-1.90262 7.99647,4.56289 7.90961,4.77075c-0.3059,0.73204 4.6762,-6.47771 8.9167,-3.68606c4.60049,2.95093 0.47556,9.62903 0.47556,9.62903z"/><path d="M398.15854,295.00524c-5.15668,0 -9.33699,-4.18031 -9.33699,-9.33699c0,-5.15667 4.18031,-9.33698 9.33699,-9.33698c5.15668,0 9.33699,4.18031 9.33699,9.33698c0,5.15668 -4.18031,9.33699 -9.33699,9.33699z"/></g></g><text transform="translate(207.45004,318.27143) scale(0.41062,0.41062)" font-size="40" xml:space="preserve" fill="#000000" stroke="none" stroke-width="1" font-family="Sans Serif" font-weight="normal" text-anchor="start"><tspan x="0" dy="0"> (стараюсь делать быстрее)</tspan></text><g stroke="none" stroke-width="1" font-family="Marker" font-weight="normal" font-size="40" text-anchor="start"><text transform="translate(150.81935,189.79382) scale(0.95504,0.95504)" font-size="40" xml:space="preserve" fill="#00ffff"><tspan x="0" dy="0">Realm of Darkness</tspan></text><text transform="translate(154.15269,193.12716) scale(0.95504,0.95504)" font-size="40" xml:space="preserve" fill="#ff0000"><tspan x="0" dy="0">Realm of Darkness</tspan></text><text transform="translate(152.48602,191.46049) scale(0.95504,0.95504)" font-size="40" xml:space="preserve" fill="#000000"><tspan x="0" dy="0">Realm of Darkness</tspan></text></g></g></g></g></svg>