<svg version="1.1" xmlns="http://www.w3.org/2000/svg" xmlns:xlink="http://www.w3.org/1999/xlink" width="83.07398" height="107.47254" viewBox="0,0,83.07398,107.47254"><g transform="translate(-266.66969,-122.40578)"><g data-paper-data="{&quot;isPaintingLayer&quot;:true}" fill-rule="nonzero" stroke-linejoin="miter" stroke-miterlimit="10" stroke-dasharray="" stroke-dashoffset="0" style="mix-blend-mode: normal"><g><path d="M308.27989,188.04246l-26.73988,-52.75971" fill="none" stroke="#331f00" stroke-width="2.5" stroke-linecap="round"/><path d="M284.42477,141.04502l-5.8997,-3.27841l-2.10369,-12.36881l8.74317,9.66369z" fill="#999999" stroke="#000000" stroke-width="0.75" stroke-linecap="butt"/><path d="M310.33682,187.32887l-24.88981,-53.6573" fill="none" stroke="#331f00" stroke-width="2.5" stroke-linecap="round"/><path d="M288.6139,139.54744l-5.7822,-3.48148l-1.67247,-12.43444l8.40197,9.96176z" fill="#999999" stroke="#000000" stroke-width="0.75" stroke-linecap="butt"/><path d="M273.92943,134.99504l36.40834,46.6159" fill="none" stroke="#331f00" stroke-width="2.5" stroke-linecap="round"/><path d="M278.34617,139.99979l-6.42102,-2.0797l-4.44843,-11.73134l10.44196,7.79714z" fill="#999999" stroke="#000000" stroke-width="0.75" stroke-linecap="butt"/><path d="M311.64351,207.00798l-27.61868,-52.80641l11.41206,-5.69571l27.61868,52.80641z" fill="#995c00" stroke="#000000" stroke-width="1" stroke-linecap="butt"/></g><path d="M334.27128,179.98673l9.65717,14.75402" fill="none" stroke="#fff599" stroke-width="6" stroke-linecap="round"/><path d="M329.6049,227.37832v-17.63355" fill="none" stroke="#fff599" stroke-width="5" stroke-linecap="round"/><path d="M306.54566,227.37832v-17.63355" fill="none" stroke="#fff599" stroke-width="5" stroke-linecap="round"/><path d="M302.03784,181.05086l-8.69878,15.33862" fill="#ffffff" stroke="#fff599" stroke-width="6" stroke-linecap="round"/><path d="M303.303,226.2224c-0.74671,-2.97066 0.11169,-20.99826 0.4589,-21.65181c0.15703,-0.29556 28.65071,0.29589 28.9364,0c0.15897,-0.16465 1.82864,22.28195 0.56881,21.96107c-1.93624,0.42568 -6.855,-0.13788 -6.98798,-0.12243c-1.16865,0.13577 -5.22891,-13.84767 -5.33049,-13.93009c-1.30503,-1.05876 -4.24113,-0.56564 -4.35743,-0.10444c-0.08347,0.33103 -5.04998,12.99284 -6.13189,13.84771c-0.57881,0.45735 -7.02709,0.51402 -7.15631,-0.00001z" fill="#303333" stroke="#000000" stroke-width="1.5" stroke-linecap="butt"/><path d="M302.61906,205.35656c0.06491,0.35654 1.32206,-19.55718 1.32206,-20.52621c0,-0.36767 -5.64765,12.24235 -5.76705,12.17126c-0.93189,0.55059 -7.44529,-4.09196 -7.41765,-4.38356c0.02572,-0.27133 7.26933,-14.74593 8.82531,-14.55759c2.17815,-0.16569 36.15194,-0.3966 36.45366,-0.28494c0.39477,0.1461 10.35497,13.26793 10.07743,12.93863c-1.1427,1.52385 -4.63988,4.74479 -6.75165,4.75629c-0.44211,0.00242 -7.16455,-9.98356 -7.16092,-10.33238c0.00154,-0.14821 1.64309,20.82761 1.65258,20.85672c0.21421,0.65776 -31.2736,-0.85705 -31.23377,-0.63825z" fill="#808080" stroke="#000000" stroke-width="1.5" stroke-linecap="butt"/><path d="M314.14864,205.72242c0.0178,0.41084 0.36245,-21.64195 0.36245,-22.75853c0,-0.42364 7.74638,-0.13665 7.74738,-0.53856c0.00044,-0.17078 0.45046,23.1058 0.45305,23.13938c0.05874,0.7579 -8.57381,-0.09442 -8.56287,0.15768z" fill="#999999" stroke="#000000" stroke-width="1.5" stroke-linecap="butt"/><path d="M341.41007,159.55698c0,12.73527 -10.32398,23.05925 -23.05925,23.05925c-12.73527,0 -23.05925,-10.32398 -23.05925,-23.05925c0,-12.73527 10.32398,-23.05925 23.05925,-23.05925c12.73527,0 23.05925,10.32398 23.05925,23.05925z" fill="#fff599" stroke="#000000" stroke-width="1.5" stroke-linecap="butt"/><path d="M327.53435,160.68735c0,1.96648 -0.91093,3.56062 -2.03465,3.56062c-1.1237,0 -2.03465,-1.59414 -2.03465,-3.56062c0,-1.96648 0.91093,-3.56062 2.03465,-3.56062c1.1237,0 2.03465,1.59414 2.03465,3.56062z" fill="#000000" stroke="#000000" stroke-width="2.5" stroke-linecap="butt"/><path d="M314.87439,161.13948c0,1.96648 -0.91093,3.56062 -2.03465,3.56062c-1.1237,0 -2.03465,-1.59414 -2.03465,-3.56062c0,-1.96648 0.91093,-3.56062 2.03465,-3.56062c1.1237,0 2.03465,1.59414 2.03465,3.56062z" fill="#000000" stroke="#000000" stroke-width="2.5" stroke-linecap="butt"/><path d="M323.54502,174.38628c0,0 1.97866,0.94496 -7.08725,0.94496c-8.35836,0 -4.25233,-4.25233 -4.25233,-4.25233" fill="none" stroke="#000000" stroke-width="2.5" stroke-linecap="round"/><path d="M333.6703,140.03179c5.24592,6.25881 6.84728,12.51484 7.27556,20.89239c0.42828,8.37755 -4.10134,15.51358 -5.15333,20.62103c-1.05198,5.10747 -1.83229,13.29516 -1.83229,13.29516l-0.11452,-11.80284c0,0 -0.49639,2.64622 -0.80566,4.29498c-0.41985,2.2382 -1.4847,7.91485 -1.4847,7.91485c0,0 -1.2254,-5.6786 -1.35072,-7.97975c-0.09553,-1.75417 -0.38638,2.09195 0.66362,-4.63707c1.04999,-6.72902 3.57303,-9.3849 2.74843,-17.22944c-0.8246,-7.84452 -1.73899,-13.96847 -6.52753,-18.72173c-4.78854,-4.75327 -9.81587,-6.44761 -15.74989,-3.39163c-5.93403,3.05598 -8.73519,5.62688 -10.16747,15.87279c-1.43229,10.2459 4.27001,21.82511 4.21255,26.72597c-0.05746,4.90086 -1.9468,12.3455 -1.9468,12.3455l-1.9468,-12.3455l-1.48875,-5.96925c0,0 0.88339,6.85806 0.92257,9.36457c0.03704,2.36973 -1.7242,6.10123 -1.7242,6.10123c0,0 0.30576,-6.52463 0.16173,-10.19303c-0.15972,-4.06826 -1.07789,-13.14132 -1.07789,-13.14132c0,0 -1.21769,3.36431 -1.43756,4.92723c-0.23691,1.684 0.06335,4.84064 0.06335,4.84064c0,0 -1.79014,-2.96798 -2.93187,-10.56374c-1.00484,-6.68507 -1.40416,-17.90272 -1.07626,-20.63916c0.60467,-5.04611 0.88222,-8.35574 6.87108,-12.75249c5.98885,-4.39677 10.69975,-5.59207 17.52125,-5.15524c6.82152,0.43682 11.13015,1.06709 16.37607,7.3259z" fill="#806554" stroke="#2f241e" stroke-width="1" stroke-linecap="round"/><path d="M328.00067,135.0694c0,0 4.99506,1.63019 9.35407,5.53137c3.56102,3.18701 6.49828,8.48606 7.59305,10.70484c6.43313,13.03834 3.73396,25.09069 3.73396,25.09069c0,0 -3.89454,-14.79247 -6.06028,-18.57995c-3.9308,-6.87424 -14.81612,-19.19956 -14.81612,-19.19956c0,0 5.5897,5.95465 14.75228,19.21212c2.82587,13.00463 2.853,13.21904 1.14648,19.09414c-1.41683,4.87771 -5.82146,6.29365 -5.82146,6.29365c0,0 3.05344,-10.86163 1.17615,-19.85126c-1.97001,-9.4337 -9.53336,-20.34528 -9.53336,-20.34528c0,0 7.98162,11.16333 10.05094,22.70128c1.56263,8.71276 -2.77039,17.95899 -2.77039,17.95899c0,0 -3.53063,-18.01432 -6.49483,-24.68009c-1.80768,-4.065 -9.60758,-11.53033 -9.60758,-11.53033c0,0 5.7779,6.19227 7.57652,8.78844c1.71641,2.47749 2.98017,6.44919 2.98017,6.44919c0,0 -3.02475,-4.08474 -5.06648,-6.5276c-0.69592,-0.83265 -3.59642,-2.83018 -4.68805,-4.09952c-3.74159,-4.35065 -5.84444,-8.61386 -5.84444,-8.61386c0,0 0.35788,11.70916 4.08038,19.11644c3.72251,7.4073 13.17565,16.6624 13.17565,16.6624c0,0 -11.03315,-9.19743 -14.70593,-15.84542c-3.6728,-6.64799 -4.29901,-20.84643 -4.29901,-20.84643l-9.95484,13.9027l0.28219,-9.70515c0,0 -0.77293,10.65797 -0.05412,14.94572c0.76335,4.55358 4.50861,11.62628 4.50861,11.62628c0,0 -3.0926,-2.01908 -5.35211,-5.28355c-1.15095,-1.66285 -3.60812,-8.63139 -3.67423,-11.53815c-0.10368,-4.55806 -1.09073,-14.0363 -1.09073,-14.0363" fill="#806554" stroke="#2f241e" stroke-width="1" stroke-linecap="round"/></g></g></svg>