<svg version="1.1" xmlns="http://www.w3.org/2000/svg" xmlns:xlink="http://www.w3.org/1999/xlink" width="40.48509" height="27.34529" viewBox="0,0,40.48509,27.34529"><g transform="translate(-312.00766,-157.82565)"><g data-paper-data="{&quot;isPaintingLayer&quot;:true}" fill-rule="nonzero" stroke-linejoin="miter" stroke-miterlimit="10" stroke-dasharray="" stroke-dashoffset="0" style="mix-blend-mode: normal"><path d="M327.36618,178.90071l22.12657,0.56472" fill="#ffffff" stroke="#fff599" stroke-width="6" stroke-linecap="round"/><path d="M324.26914,172.95551c0.10077,-0.45034 23.04452,0.5108 23.03008,0.68465c1.13421,0.74793 -0.51564,10.65136 -0.85977,10.78078c-0.32022,0.12042 -21.78457,-1.70178 -22.01183,-2.03659c-0.88665,-1.62902 -0.35042,-8.57103 -0.15847,-9.42882z" fill="#6abf54" stroke="#000000" stroke-width="1.5" stroke-linecap="butt"/><path d="M338.2312,163.56324l-22.13268,0.2189" fill="#ffffff" stroke="#fff599" stroke-width="6" stroke-linecap="round"/><path d="M312.75766,158.64112c0.08606,-0.45339 23.04894,-0.23971 23.04015,-0.06547c1.15795,0.71061 -0.16861,10.66251 -0.50835,10.80306c-0.31612,0.13077 -21.82843,-0.99168 -22.06645,-1.3189c-0.93921,-1.59929 -0.62926,-8.55509 -0.46535,-9.41867z" fill="#6abf54" stroke="#000000" stroke-width="1.5" stroke-linecap="butt"/></g></g></svg>