<svg version="1.1" xmlns="http://www.w3.org/2000/svg" xmlns:xlink="http://www.w3.org/1999/xlink" width="60.76545" height="67.47711" viewBox="0,0,60.76545,67.47711"><g transform="translate(-288.85722,-145.78504)"><g stroke-miterlimit="10"><path d="" fill="#9966ff" stroke="none" stroke-width="NaN" stroke-linecap="butt"/><path d="" fill="#8b8b8b" stroke="#686868" stroke-width="5" stroke-linecap="round"/><path d="" fill="#000000" stroke="#fffdfd" stroke-width="2" stroke-linecap="butt"/><path d="" fill="#000000" stroke="#fffdfd" stroke-width="2" stroke-linecap="butt"/><path d="" fill="#000000" stroke="#fffdfd" stroke-width="2" stroke-linecap="butt"/><g><path d="M312.7455,173.42988l8.21266,0.54751l7.66514,-1.36877l5.4751,5.20135l2.4638,5.47511l1.64253,6.02261l0.27375,4.65384l0.82127,3.55882l-0.82127,5.74886l1.09502,1.64253l5.4751,5.4751l-5.74886,1.36878l-7.39139,-0.27376l-4.10632,-1.91628l-4.65383,1.36878l-8.21266,-1.64253l-5.74886,1.36878l-6.02261,-0.27376l-6.84388,-0.54751l-4.38008,-1.09502l3.0113,-2.73756l1.09502,-2.4638v-3.28506l-0.82127,-4.92759l1.36878,-5.47511l0.82127,-4.10633l2.19004,-3.55882l3.0113,-2.73756l4.65383,-2.4638l1.91628,-0.82127z" fill="#106400" stroke="#000000" stroke-width="3" stroke-linecap="round"/><path d="M316.3043,181.91628l-3.83257,-1.36878l-3.83257,-1.91628l-3.28506,-2.4638l-2.19004,-3.0113v-4.92759l1.09502,-5.74886l2.4638,-3.55882l1.64253,-3.83257l2.4638,-4.65384l2.19004,-2.19004l2.73755,3.28506l6.02261,-0.27376l7.66514,0.82127l4.38008,-0.54751l2.4638,-3.28506l4.10633,5.20135l4.10632,5.20135l2.4638,4.38009l1.09502,3.55882l-1.36878,4.92759l-2.19004,3.83257l-2.19004,0.82127l-4.10632,3.0113l-4.38008,1.36878l-4.10633,1.36878h-3.55882h-5.4751h-2.4638z" fill="#106400" stroke="#000000" stroke-width="3" stroke-linecap="round"/><path d="M318.34579,160.15069c3.28792,4.60345 4.5242,10.95375 0.75516,15.67144c0,0 -0.72036,0.72662 -1.23161,0.21537c-0.25234,-0.25234 -0.47163,-1.02165 -0.47163,-1.02165c-1.88895,-4.83972 -3.85963,-10.1496 -0.75431,-14.76826c0.98104,-1.45913 1.70238,-0.09689 1.70238,-0.09689zM317.59421,161.61574c-1.77955,4.13075 -0.60504,8.47681 0.9822,12.45677c2.45091,-3.87244 1.43853,-8.72072 -0.9822,-12.45677z" fill="#000000" stroke="none" stroke-width="0.5" stroke-linecap="butt"/><path d="M334.05207,171.5487c-0.00062,-0.00194 -0.00124,-0.00387 -0.00186,-0.00581zM332.14906,167.3409c-0.29875,-2.65764 -0.27676,-4.96505 0.61962,-7.70469c0,0 0.38121,-0.80121 0.45618,-0.90117c0.43381,-0.57841 1.01221,-0.1446 1.01221,-0.1446c2.54488,1.90984 5.21122,6.75164 4.31337,10.11849c-0.35996,1.34984 -2.28214,3.74951 -3.45218,3.63112c-1.11279,-0.38977 -2.78457,-3.53453 -2.9492,-4.99916zM333.6987,167.78789c0.49078,1.16413 1.27958,2.05423 1.70557,3.24768c0.56037,-0.93071 1.45023,-1.63869 1.75261,-2.71261c0.68461,-2.43136 -1.15295,-5.98767 -2.99609,-7.87221c-0.26522,2.30358 -1.37969,5.16058 -0.46209,7.33713z" fill="#000000" stroke="none" stroke-width="0.5" stroke-linecap="butt"/><path d="M334.51942,167.97573l0.11868,-0.23872c0,-1.20651 0.04339,-2.18503 -0.41564,-3.31453c0,0 -0.26852,-0.67129 0.40277,-0.93981c0.6713,-0.26851 0.93982,0.40278 0.93982,0.40278c0.51801,1.31236 0.51906,2.46038 0.51906,3.85156l-0.19288,0.69599c0,0 -0.22864,0.6859 -0.91455,0.45727c-0.6859,-0.22864 -0.45727,-0.91454 -0.45727,-0.91454z" fill="#00ff09" stroke="none" stroke-width="0.5" stroke-linecap="butt"/><path d="M317.66794,170.67536c-0.60158,-0.40105 -0.20053,-1.00263 -0.20053,-1.00263l0.19014,-0.0663c0.0059,-1.42667 0.40864,-2.65373 0.16562,-4.08732c0,0 -0.11886,-0.71317 0.59431,-0.83203c0.71318,-0.11886 0.83204,0.59431 0.83204,0.59431c0.25122,1.53036 -0.15343,2.82025 -0.14595,4.32505l-0.433,0.86841c0,0 -0.40105,0.60158 -1.00263,0.20053z" fill="#00ff09" stroke="none" stroke-width="0.5" stroke-linecap="butt"/></g></g></g></svg>