<svg version="1.1" xmlns="http://www.w3.org/2000/svg" xmlns:xlink="http://www.w3.org/1999/xlink" width="84.70761" height="27.41369" viewBox="0,0,84.70761,27.41369"><g transform="translate(-315.4617,-175.35996)"><g fill="#808080" stroke="#000000" stroke-width="3" stroke-miterlimit="10"><g><path d="M323.18045,180.70425c-0.2792,1.72259 -1.90196,2.89269 -3.62456,2.61351c-1.72259,-0.2792 -2.89269,-1.90196 -2.61351,-3.62456c0.2792,-1.72259 1.90195,-2.89269 3.62455,-2.61351c1.72259,0.2792 2.89269,1.90196 2.61351,3.62456z"/><path d="M325.16872,178.68511l15.73981,3.206l-0.94993,4.66365l-15.73981,-3.206z"/><path d="M342.74658,177.12916l4.21956,0.85946l-3.00815,14.76848l-4.21956,-0.85946z"/><path d="M346.38654,182.26074l46.39624,5.13793c0,0 5.85197,5.33301 5.88653,7.50917c0.03945,2.4849 -8.27184,6.27107 -8.27184,6.27107l-44.76528,-12.88421z"/></g></g></g></svg>