<svg version="1.1" xmlns="http://www.w3.org/2000/svg" xmlns:xlink="http://www.w3.org/1999/xlink" width="649.48057" height="373.03398" viewBox="0,0,649.48057,373.03398"><defs><linearGradient x1="643.57359" y1="180.00001" x2="-3.57357" y2="180.00001" gradientUnits="userSpaceOnUse" id="color-1"><stop offset="0" stop-color="#a6ffaf"/><stop offset="1" stop-color="#fff6a6"/></linearGradient><linearGradient x1="559.22426" y1="1082.00483" x2="559.22426" y2="1164.70963" gradientUnits="userSpaceOnUse" id="color-2"><stop offset="0" stop-color="#ee2a7b"/><stop offset="1" stop-color="#811150"/></linearGradient></defs><g transform="translate(5.23602,6.77779)"><g data-paper-data="{&quot;isPaintingLayer&quot;:true}" fill-rule="nonzero" stroke-linejoin="miter" stroke-miterlimit="10" stroke-dasharray="" stroke-dashoffset="0" style="mix-blend-mode: normal"><path d="M-3.57356,363.93395v-367.86787h647.14715v367.86787z" fill="url(#color-1)" stroke="none" stroke-width="0" stroke-linecap="butt"/><g><path d="M587.43094,220.81738l15.5489,23.75526" fill="none" stroke="#fff599" stroke-width="12.5" stroke-linecap="round"/><path d="M579.9177,268.73044v28.39155" fill="none" stroke="#fff599" stroke-width="12.5" stroke-linecap="round"/><path d="M542.79027,268.73044v28.39155" fill="none" stroke="#fff599" stroke-width="12.5" stroke-linecap="round"/><path d="M535.96138,222.53072l-14.0058,24.69652" fill="#ffffff" stroke="#fff599" stroke-width="12.5" stroke-linecap="round"/><path d="M537.56931,295.26086c-1.20227,-4.78301 0.17983,-33.80903 0.73886,-34.86131c0.25284,-0.47589 46.13014,0.47641 46.59015,0c0.25594,-0.26509 2.94427,35.8759 0.91582,35.35926c-3.11753,0.68537 -11.03715,-0.222 -11.25127,-0.19713c-1.88164,0.21859 -8.41901,-22.29597 -8.58255,-22.42867c-2.10122,-1.7047 -6.82858,-0.91073 -7.01584,-0.16816c-0.1344,0.53298 -8.1309,20.91962 -9.87288,22.29604c-0.93194,0.73637 -11.31423,0.82763 -11.52227,-0.00002z" fill="#303333" stroke="#000000" stroke-width="2.5" stroke-linecap="butt"/><path d="M536.46813,261.66499c0.10452,0.57405 2.12865,-31.48877 2.12865,-33.04899c0,-0.59196 -9.0932,19.71128 -9.28546,19.59679c-1.50043,0.88649 -11.98757,-6.58841 -11.94308,-7.05792c0.04141,-0.43688 11.70426,-23.74224 14.20952,-23.43899c3.50701,-0.26677 58.2078,-0.63855 58.6936,-0.45876c0.63562,0.23523 16.67242,21.36255 16.22555,20.83232c-1.83984,2.45353 -7.4706,7.63951 -10.87076,7.65803c-0.71184,0.00388 -11.53556,-16.07443 -11.52971,-16.63603c0.00249,-0.23864 2.64553,33.53427 2.6608,33.58116c0.34489,1.05905 -50.35323,-1.37992 -50.28911,-1.02765z" fill="#808080" stroke="#000000" stroke-width="2.5" stroke-linecap="butt"/><path d="M555.03176,262.25068c0.02865,0.66996 0.58357,-35.29191 0.58357,-37.11274c0,-0.69083 12.47235,-0.22284 12.47396,-0.87823c0.0007,-0.2785 0.72527,37.67905 0.72947,37.7338c0.09456,1.23593 -13.80458,-0.15398 -13.78698,0.25714z" fill="#999999" stroke="#000000" stroke-width="2.5" stroke-linecap="butt"/><path d="M598.92504,187.92369c0,20.50491 -16.62251,37.12742 -37.12741,37.12742c-20.50491,0 -37.12742,-16.62251 -37.12742,-37.12742c0,-20.50491 16.62251,-37.12741 37.12742,-37.12741c20.50491,0 37.12741,16.62251 37.12741,37.12741z" fill="#fff599" stroke="#000000" stroke-width="2.5" stroke-linecap="butt"/><path d="M576.5839,189.74369c0,3.1662 -1.46668,5.73291 -3.27595,5.73291c-1.80926,0 -3.27595,-2.56671 -3.27595,-5.73291c0,-3.1662 1.46668,-5.73291 3.27595,-5.73291c1.80926,0 3.27595,2.56671 3.27595,5.73291z" fill="#000000" stroke="#000000" stroke-width="5" stroke-linecap="butt"/><path d="M556.20026,190.47165c0,3.1662 -1.46668,5.73291 -3.27594,5.73291c-1.80926,0 -3.27595,-2.56671 -3.27595,-5.73291c0,-3.1662 1.46668,-5.73291 3.27595,-5.73291c1.80926,0 3.27594,2.56671 3.27594,5.73291z" fill="#000000" stroke="#000000" stroke-width="5" stroke-linecap="butt"/><path d="M570.16077,213.25224c0,0 3.18581,0.0694 -11.41109,0.0694c-13.45768,0 -6.84663,-6.84663 -6.84663,-6.84663" fill="none" stroke="#000000" stroke-width="5" stroke-linecap="round"/><path d="M586.46335,156.48639c8.4464,10.07724 11.02472,20.14999 11.71429,33.63857c0.68957,13.48859 -6.60352,24.97824 -8.2973,33.20168c-1.69377,8.22349 -2.95015,21.40635 -2.95015,21.40635l-0.18439,-19.0036c0,0 -0.79922,4.26063 -1.29719,6.91529c-0.67601,3.60369 -2.39048,12.7436 -2.39048,12.7436c0,0 -1.97299,-9.14304 -2.17477,-12.84809c-0.15382,-2.82437 -0.62211,3.36822 1.06848,-7.46608c1.69059,-10.8343 5.75289,-15.11051 4.42522,-27.74091c-1.32767,-12.63037 -2.79994,-22.49045 -10.5099,-30.14364c-7.70997,-7.65319 -15.8044,-10.38122 -25.3587,-5.46081c-9.5543,4.92041 -14.06443,9.05976 -16.37052,25.55657c-2.30611,16.4968 6.87509,35.14034 6.78257,43.03116c-0.09252,7.89082 -3.13451,19.87734 -3.13451,19.87734l-3.13452,-19.87734l-2.39702,-9.61102c0,0 1.42233,11.04208 1.48543,15.07779c0.05965,3.81547 -2.77611,9.8235 -2.77611,9.8235c0,0 0.49231,-10.50522 0.26042,-16.41167c-0.25716,-6.55026 -1.73549,-21.15868 -1.73549,-21.15868c0,0 -1.96059,5.41682 -2.31461,7.93328c-0.38145,2.71137 0.10199,7.79386 0.10199,7.79386c0,0 -2.88229,-4.77872 -4.72055,-17.00855c-1.61788,-10.76354 -2.26082,-28.82494 -1.73287,-33.23085c0.97357,-8.12468 1.42045,-13.45347 11.06303,-20.53264c9.64258,-7.07917 17.22754,-9.00373 28.21074,-8.30041c10.98323,0.70333 17.9205,1.71811 26.3669,11.79534z" fill="#806554" stroke="#2f241e" stroke-width="1.5" stroke-linecap="round"/><path d="M577.33471,148.49651c0,0 8.0425,2.62475 15.06089,8.90599c5.73355,5.13136 10.46281,13.6633 12.22547,17.23575c10.35792,20.99289 6.012,40.39821 6.012,40.39821c0,0 -6.27056,-23.81717 -9.75759,-29.91535c-6.32894,-11.06814 -23.85526,-30.91299 -23.85526,-30.91299c0,0 8.99991,9.58752 23.75246,30.93319c4.5499,20.93859 4.5936,21.28382 1.84593,30.74325c-2.28122,7.85354 -9.37308,10.13332 -9.37308,10.13332c0,0 4.9163,-17.48819 1.89369,-31.96227c-3.17191,-15.18909 -15.34955,-32.7577 -15.34955,-32.7577c0,0 12.85111,17.97396 16.18288,36.55105c2.51597,14.02831 -4.46058,28.91555 -4.46058,28.91555c0,0 -5.68462,-29.00461 -10.45724,-39.7371c-2.9105,-6.54502 -15.46906,-18.56484 -15.46906,-18.56484c0,0 9.30291,9.97009 12.19887,14.15015c2.76359,3.98897 4.79834,10.38375 4.79834,10.38375c0,0 -4.87011,-6.57679 -8.15746,-10.51001c-1.12049,-1.34065 -5.79054,-4.55685 -7.54818,-6.60058c-6.02427,-7.00492 -9.41005,-13.86906 -9.41005,-13.86906c0,0 0.57622,18.85276 6.56979,30.77916c5.99356,11.9264 21.21395,26.82792 21.21395,26.82792c0,0 -17.76433,-14.80866 -23.67783,-25.51252c-5.91353,-10.70383 -6.92178,-33.56458 -6.92178,-33.56458l-16.02817,22.38456l0.45435,-15.62615c0,0 -1.24446,17.16027 -0.08714,24.06394c1.22907,7.33166 7.25926,18.71934 7.25926,18.71934c0,0 -4.97935,-3.25089 -8.61736,-8.50698c-1.85314,-2.67735 -5.80939,-13.8973 -5.91584,-18.57743c-0.16694,-7.33886 -1.75617,-22.59967 -1.75617,-22.59967" fill="#806554" stroke="#2f241e" stroke-width="1.5" stroke-linecap="round"/></g><path d="M339.6106,267.24201c0,0 -41.97789,0.01776 -61.04286,0.01776c-4.99402,0 -9.04212,-4.04902 -9.04212,-9.04212c0,-4.99402 4.0481,-9.04139 9.04212,-9.04139c15.98384,0 60.99378,-0.01868 60.99378,-0.01868c0,0 -3.02179,-3.05805 -16.96218,-16.99752c-3.53138,-3.53156 -3.53138,-9.25599 0,-12.78664c3.53321,-3.53064 9.25691,-3.53156 12.78755,0c11.30366,11.30202 32.43955,32.44028 32.43955,32.44028c3.53064,3.53156 3.53064,9.25672 0,12.78664c0,0 -18.23971,18.24044 -32.17991,32.18082c-3.53321,3.53321 -9.25764,3.53321 -12.78755,0c-3.53156,-3.53083 -3.53156,-9.25691 0,-12.78499c11.30385,-11.30714 16.75161,-16.75417 16.75161,-16.75417z" fill="url(#color-2)" stroke="#ffffff" stroke-width="3.5" stroke-linecap="butt"/><g><path d="M79.89803,278.85886v25.93865" fill="none" stroke="#000000" stroke-width="10" stroke-linecap="round"/><path d="M111.15749,304.79751v-25.93865" fill="none" stroke="#000000" stroke-width="10" stroke-linecap="round"/><path d="M61.48872,260.77878l14.20554,-21.70291" fill="none" stroke="#000000" stroke-width="10" stroke-linecap="round"/><path d="M129.52704,262.53893l-12.79576,-22.56285" fill="none" stroke="#000000" stroke-width="10" stroke-linecap="round"/><path d="M75.16961,279.52401l0.66509,-16.2948v-36.9127h39.90562v37.57779l1.99528,14.9646z" fill="#adff00" stroke="#000000" stroke-width="4" stroke-linecap="butt"/><path d="M96.12019,173.10903c18.54969,0 33.58722,15.03752 33.58722,33.58722c0,18.54969 -15.03752,33.58722 -33.58722,33.58722c-18.54969,0 -33.58722,-15.03752 -33.58722,-33.58722c0,-18.54969 15.03752,-33.58722 33.58722,-33.58722z" fill="#a9ff00" stroke="#000000" stroke-width="4" stroke-linecap="butt"/><path d="M103.22922,198.13315c1.65295,0 2.99292,2.34495 2.99292,5.23761c0,2.89266 -1.33998,5.23761 -2.99292,5.23761c-1.65295,0 -2.99292,-2.34496 -2.99292,-5.23761c0,-2.89266 1.33997,-5.23761 2.99292,-5.23761z" fill="#000000" stroke="#000000" stroke-width="5" stroke-linecap="butt"/><path d="M106.22218,221.32833c0,0 5.77989,5.98584 -5.98584,5.98584c-12.76172,0 -9.97642,-1.33019 -9.97642,-1.33019" fill="none" stroke="#000000" stroke-width="5" stroke-linecap="round"/><path d="M84.60658,198.13315c1.65295,0 2.99292,2.34495 2.99292,5.23761c0,2.89266 -1.33998,5.23761 -2.99292,5.23761c-1.65295,0 -2.99292,-2.34496 -2.99292,-5.23761c0,-2.89266 1.33997,-5.23761 2.99292,-5.23761z" fill="#000000" stroke="#000000" stroke-width="5" stroke-linecap="butt"/><path d="M99.40319,274.25391l-29.56747,-58.87789" fill="none" stroke="#525252" stroke-width="6" stroke-linecap="round"/><path d="M102.54556,273.69329c0,0 -33.503,18.48003 -49.88793,-13.61139c-14.14562,-27.70549 20.05573,-46.93 20.05573,-46.93" fill="none" stroke="#663d00" stroke-width="10" stroke-linecap="round"/><path d="M142.72742,270.24424l15.23196,-26.85864" fill="none" stroke="#000000" stroke-width="10" stroke-linecap="round"/><path d="M225.05347,268.85724l-16.91017,-25.83496" fill="none" stroke="#000000" stroke-width="10" stroke-linecap="round"/><path d="M201.97222,290.62702v30.87715" fill="none" stroke="#000000" stroke-width="10" stroke-linecap="round"/><path d="M163.0959,290.62701v30.87715" fill="none" stroke="#000000" stroke-width="10" stroke-linecap="round"/><path d="M158.51415,288.8797v-59.37914h47.50333v59.37914z" fill="#16ff00" stroke="#000000" stroke-width="4" stroke-linecap="butt"/><path d="M222.64353,205.7489c0,22.30006 -18.07777,40.37782 -40.37782,40.37782c-22.30006,0 -40.37782,-18.07777 -40.37782,-40.37782c0,-22.30006 18.07776,-40.37782 40.37782,-40.37782c22.30006,0 40.37782,18.07777 40.37782,40.37782z" fill="#16ff00" stroke="#000000" stroke-width="4" stroke-linecap="butt"/><path d="M176.97008,202.18614c0,3.4434 -1.59509,6.23481 -3.56275,6.23481c-1.96767,0 -3.56275,-2.79142 -3.56275,-6.23481c0,-3.4434 1.59509,-6.23481 3.56275,-6.23481c1.96767,0 3.56275,2.79142 3.56275,6.23481z" fill="#000000" stroke="#000000" stroke-width="5" stroke-linecap="butt"/><path d="M200.72172,221.18746c0,0 -6.18506,14.251 -21.37651,14.251c-14.00584,0 -14.25099,-16.62616 -14.25099,-16.62616" fill="none" stroke="#000000" stroke-width="5" stroke-linecap="round"/><path d="M198.34666,202.18614c0,3.4434 -1.59509,6.23481 -3.56275,6.23481c-1.96767,0 -3.56275,-2.79142 -3.56275,-6.23481c0,-3.4434 1.59509,-6.23481 3.56275,-6.23481c1.96767,0 3.56275,2.79142 3.56275,6.23481z" fill="#000000" stroke="#000000" stroke-width="5" stroke-linecap="butt"/><g fill="#808080" stroke="#000000" stroke-width="5" stroke-linecap="butt"><path d="M212.95517,269.44919c2.67222,1.37978 3.71996,4.66449 2.3402,7.33671c-1.37976,2.67222 -4.66451,3.71994 -7.33673,2.3402c-2.67222,-1.37978 -3.71996,-4.66447 -2.3402,-7.33673c1.37976,-2.67222 4.66449,-3.71997 7.33671,-2.34021z"/><path d="M210.21233,265.61109l13.67999,-24.06602l7.13065,4.05334l-13.67999,24.06602z"/><path d="M217.07624,235.98433l3.66732,-6.45166l22.58085,12.8358l-3.66732,6.45166z"/><path d="M227.43119,232.76969l33.26053,-73.24868c0,0 11.86943,-6.73019 15.45261,-5.62151c4.09154,1.26599 5.84298,16.90781 5.84298,16.90781l-45.07603,66.42907z"/></g></g><g><path d="M406.01519,290.12147v-60.65027h48.5202v60.65027z" fill="#fff599" stroke="#000000" stroke-width="2" stroke-linecap="butt"/><path d="M458.74947,241.75033l17.27215,26.388" fill="none" stroke="#fff599" stroke-width="12.5" stroke-linecap="round"/><path d="M450.40351,294.97348v31.53814" fill="none" stroke="#fff599" stroke-width="12.5" stroke-linecap="round"/><path d="M409.16133,326.51162v-31.53814" fill="none" stroke="#fff599" stroke-width="12.5" stroke-linecap="round"/><path d="M386.01756,271.08716l15.55803,-27.43359" fill="#ffffff" stroke="#fff599" stroke-width="12.5" stroke-linecap="round"/><path d="M403.36176,324.44425c-1.33552,-5.31311 0.19975,-37.55602 0.82074,-38.72492c0.28086,-0.52863 51.24265,0.52921 51.75364,0c0.28431,-0.29447 3.27058,39.85195 1.01733,39.27805c-3.46303,0.76133 -12.26038,-0.2466 -12.49822,-0.21897c-2.09018,0.24282 -9.35208,-24.767 -9.53374,-24.9144c-2.33409,-1.89362 -7.58538,-1.01168 -7.79339,-0.18681c-0.14929,0.59204 -9.03203,23.2381 -10.96707,24.76707c-1.03523,0.81798 -12.56817,0.91936 -12.79927,-0.00003z" fill="#303333" stroke="#000000" stroke-width="2.5" stroke-linecap="butt"/><path d="M402.13852,287.12505c0.11611,0.63768 2.36456,-34.97861 2.36456,-36.71175c0,-0.65757 -10.10099,21.89583 -10.31455,21.76867c-1.66672,0.98474 -13.31613,-7.31859 -13.26671,-7.84014c0.046,-0.4853 13.00143,-26.37355 15.78433,-26.0367c3.89569,-0.29633 64.65885,-0.70932 65.19849,-0.50961c0.70607,0.2613 18.52019,23.73011 18.0238,23.14113c-2.04375,2.72546 -8.29855,8.48618 -12.07554,8.50676c-0.79073,0.00432 -12.81401,-17.85592 -12.80751,-18.47977c0.00277,-0.26509 2.93872,37.25081 2.95568,37.3029c0.38311,1.17642 -55.93378,-1.53285 -55.86255,-1.14153z" fill="#6abf54" stroke="#000000" stroke-width="2.5" stroke-linecap="butt"/><g fill="#808080" stroke="#000000" stroke-width="2.5" stroke-linecap="butt"><path d="M465.95692,274.76661c2.29636,1.94198 2.58366,5.37776 0.6417,7.67412c-1.94196,2.29636 -5.37777,2.58364 -7.67414,0.64169c-2.29636,-1.94198 -2.58366,-5.37774 -0.64169,-7.67414c1.94196,-2.29636 5.37776,-2.58367 7.67412,-0.64171z"/><path d="M463.12731,272.25228l18.7115,-20.40086l6.04467,5.54415l-18.7115,20.40086z"/><path d="M475.05482,245.77529l5.01618,-5.46911l19.14187,17.55681l-5.01618,5.46911z"/><path d="M485.52057,245.17242l48.78652,-63.9649c0,0 13.07315,-3.90789 16.31801,-2.0266c3.70522,2.14821 1.91732,17.7859 1.91732,17.7859l-58.77949,54.67761z"/></g><path d="M422.75956,287.85285c0.03183,0.73609 0.64826,-38.77553 0.64826,-40.7761c0,-0.75902 13.85463,-0.24484 13.85643,-0.96493c0.00077,-0.306 0.80565,41.39829 0.81031,41.45845c0.10505,1.35793 -15.33452,-0.16918 -15.31497,0.28253z" fill="#b3ffff" stroke="#000000" stroke-width="2.5" stroke-linecap="butt"/><path d="M471.51744,205.2111c0,22.77742 -18.46475,41.24218 -41.24217,41.24218c-22.77742,0 -41.24218,-18.46475 -41.24218,-41.24218c0,-22.77742 18.46476,-41.24218 41.24218,-41.24218c22.77742,0 41.24217,18.46476 41.24217,41.24218z" fill="#fff599" stroke="#000000" stroke-width="2.5" stroke-linecap="butt"/><path d="M446.70025,207.23282c0,3.51711 -1.62924,6.36827 -3.63902,6.36827c-2.00978,0 -3.63901,-2.85116 -3.63901,-6.36827c0,-3.51711 1.62923,-6.36828 3.63901,-6.36828c2.00978,0 3.63902,2.85117 3.63902,6.36828z" fill="#000000" stroke="#000000" stroke-width="5" stroke-linecap="butt"/><path d="M424.05755,208.04148c0,3.51711 -1.62924,6.36828 -3.63902,6.36828c-2.00978,0 -3.63902,-2.85117 -3.63902,-6.36828c0,-3.51711 1.62924,-6.36828 3.63902,-6.36828c2.00978,0 3.63902,2.85117 3.63902,6.36828z" fill="#000000" stroke="#000000" stroke-width="5" stroke-linecap="butt"/><path d="M435.71669,231.38882c0,0 -5.62655,4.28933 -9.42554,3.37593c-6.43599,-1.44079 -8.27522,-7.63174 -8.27522,-7.63174" fill="none" stroke="#000000" stroke-width="5" stroke-linecap="round"/><path d="M455.22074,165.94395c12.19939,0.27419 23.63723,34.84795 24.17149,39.95501c1.04192,9.95998 -6.57146,-1.2869 -6.81802,-0.52873c-0.05771,0.17748 -1.2762,15.87045 -1.25575,16.45558c0.02928,0.83821 -15.82183,-21.39292 -22.45648,-28.69157c-6.03667,-6.64084 -17.90046,-9.92721 -17.90046,-9.92721c0,0 -5.17226,-20.93132 -4.60289,-21.51992c0,0 11.72617,-1.38023 28.86212,4.25685z" fill="#e68e53" stroke="#8f5a2f" stroke-width="2.5" stroke-linecap="butt"/><path d="M432.36852,160.45577c0.56075,0.77417 6.99014,18.16773 -1.33438,25.4109c-0.76455,0.66523 -6.19344,1.52262 -16.36798,6.3866c-11.93335,5.70479 -27.95725,26.34621 -27.9875,26.1949c-0.31094,-2.53147 -1.24149,-9.2901 -1.24149,-9.2901c0,0 -5.27688,3.91813 -4.79692,1.06101c0.10185,-0.60634 4.16823,-17.65337 4.62631,-18.59498c5.10891,-10.50188 13.14243,-21.43856 18.88925,-25.16908c1.01407,-0.65828 -15.70087,8.63053 -16.42392,7.34472c-0.9026,-1.60514 9.30979,-11.42573 17.7787,-13.87032c6.8971,-1.9909 26.22811,-0.34319 26.85793,0.52634z" fill="#e68e53" stroke="#8f5a2f" stroke-width="2.5" stroke-linecap="butt"/><path d="M408.81099,185.76731c-1.38496,-1.42778 -15.75136,12.84689 -15.5493,12.46212c0.14988,-0.28539 3.10197,-22.03616 7.45343,-19.84552" fill="none" stroke="#8f5a2f" stroke-width="2.5" stroke-linecap="round"/><path d="M462.54945,183.25723c1.99784,-0.52468 6.09766,13.31198 5.77231,13.02387c-0.14037,-0.12428 -5.59962,-2.18297 -5.7004,-2.41187c-0.05604,-0.1273 -1.88509,2.88819 -2.10775,2.93727c-0.14074,0.031 -3.65864,-2.04638 -3.44103,-4.13753" fill="none" stroke="#8f5a2f" stroke-width="2.5" stroke-linecap="round"/><path d="M444.09256,174.24264c2.20381,1.98392 2.2157,9.45654 1.87092,9.19196c-0.60866,-0.46705 -6.36872,-7.78451 -6.36872,-7.78451" fill="none" stroke="#8f5a2f" stroke-width="2.5" stroke-linecap="round"/><path d="M410.92676,165.41759c0.23163,0.07013 17.25682,-2.61036 15.88707,2.06424" fill="none" stroke="#8f5a2f" stroke-width="2.5" stroke-linecap="round"/><path d="M414.84899,277.50194c0,-1.16174 0.94178,-2.1035 2.1035,-2.1035c1.16174,0 2.1035,0.94178 2.1035,2.1035c0,1.16174 -0.94178,2.1035 -2.1035,2.1035c-1.16174,0 -2.1035,-0.94178 -2.1035,-2.1035z" fill="#000000" stroke="#000000" stroke-width="1.5" stroke-linecap="butt"/><path d="M415.4555,267.05663c0,-1.16174 0.94178,-2.1035 2.1035,-2.1035c1.16172,0 2.1035,0.94175 2.1035,2.1035c0,1.16174 -0.94178,2.1035 -2.1035,2.1035c-1.16172,0 -2.1035,-0.94178 -2.1035,-2.1035z" fill="#000000" stroke="#000000" stroke-width="1.5" stroke-linecap="butt"/><path d="M416.062,255.93743c0,-1.16174 0.94178,-2.1035 2.1035,-2.1035c1.16172,0 2.1035,0.94175 2.1035,2.1035c0,1.16175 -0.94178,2.10349 -2.1035,2.10349c-1.16172,0 -2.1035,-0.94178 -2.1035,-2.10349z" fill="#000000" stroke="#000000" stroke-width="1.5" stroke-linecap="butt"/></g><path d="M-2.03618,106.21546l-0.68411,-109.29354l485.82238,0.78921l11.19463,28.77025l-83.07031,35.37914l-317.53953,31.43752l-17.27434,23.91285l-7.83477,-19.72497z" fill="#ffe600" stroke="#e6cf00" stroke-width="5" stroke-linecap="butt"/><text transform="translate(25.9854,63.20511) rotate(-3.68642) scale(1.01943,1.01943)" font-size="40" xml:space="preserve" fill="#ffffff" fill-rule="nonzero" stroke="#ffffff" stroke-width="1" stroke-linecap="butt" stroke-linejoin="miter" stroke-miterlimit="10" stroke-dasharray="" stroke-dashoffset="0" font-family="Sans Serif" font-weight="normal" text-anchor="start" style="mix-blend-mode: normal"><tspan x="0" dy="0">Новое обновление!</tspan></text><path d="M622.5385,307.01455l19.19461,16.12957l-0.3817,38.91438l-133.81849,1.67511l-7.83841,-23.25451z" fill="#ffe600" stroke="#e6cf00" stroke-width="5" stroke-linecap="butt"/><text transform="translate(536.41189,357.34739) rotate(-15.1944) scale(0.56487,0.56487)" font-size="40" xml:space="preserve" fill="#000000" fill-rule="nonzero" stroke="none" stroke-width="1" stroke-linecap="butt" stroke-linejoin="miter" stroke-miterlimit="10" stroke-dasharray="" stroke-dashoffset="0" font-family="Sans Serif" font-weight="normal" text-anchor="start" style="mix-blend-mode: normal"><tspan x="0" dy="0">v1.0.4.5</tspan></text><g fill="none" stroke-linecap="round"><path d="M555.7999,246.29798l49.17646,-52.5207" stroke="#525252" stroke-width="5"/><path d="M602.42862,190.60323c0,0 32.30951,30.21463 8.91281,54.85947c-27.10051,28.54624 -58.84933,-0.68485 -58.84933,-0.68485" stroke="#663d00" stroke-width="10.5"/></g></g></g></svg>