<svg version="1.1" xmlns="http://www.w3.org/2000/svg" xmlns:xlink="http://www.w3.org/1999/xlink" width="43.92853" height="78.1325" viewBox="0,0,43.92853,78.1325"><g transform="translate(-315.73397,-105.87502)"><g fill="#808080" stroke="#000000" stroke-width="3" stroke-miterlimit="10"><path d="M321.27365,176.8565c1.59589,0.70598 2.31731,2.572 1.61134,4.1679c-0.70598,1.59589 -2.572,2.31731 -4.1679,1.61134c-1.59589,-0.70598 -2.31731,-2.57199 -1.61135,-4.1679c0.70598,-1.59589 2.572,-2.31731 4.1679,-1.61134z"/><path d="M319.82329,174.42204l7.0843,-14.4164l4.27152,2.09906l-7.0843,14.4164z"/><path d="M322.7657,157.02249l1.89916,-3.86477l13.52674,6.64713l-1.89916,3.86477z"/><path d="M328.65129,154.79941l16.71034,-43.5864c0,0 6.64019,-4.31214 8.75428,-3.79493c2.41402,0.59059 3.97398,9.58942 3.97398,9.58942l-23.79185,40.04848z"/></g></g></svg>