<svg version="1.1" xmlns="http://www.w3.org/2000/svg" xmlns:xlink="http://www.w3.org/1999/xlink" width="56.92214" height="94.01422" viewBox="0,0,56.92214,94.01422"><g transform="translate(-291.56891,-134.23503)"><g data-paper-data="{&quot;isPaintingLayer&quot;:true}" fill-rule="nonzero" stroke-linejoin="miter" stroke-miterlimit="10" stroke-dasharray="" stroke-dashoffset="0" style="mix-blend-mode: normal"><path d="M345.49105,193.11167l-9.65717,-14.75402" fill="none" stroke="#fff599" stroke-width="6" stroke-linecap="round"/><path d="M331.16748,225.74925v-17.63355" fill="none" stroke="#fff599" stroke-width="5" stroke-linecap="round"/><path d="M308.10822,225.74925v-17.63355" fill="none" stroke="#fff599" stroke-width="5" stroke-linecap="round"/><path d="M294.90163,194.76042l8.69878,-15.33862" fill="#ffffff" stroke="#fff599" stroke-width="6" stroke-linecap="round"/><path d="M304.86556,224.59334c-0.74671,-2.97066 0.11169,-20.99826 0.4589,-21.65181c0.15703,-0.29556 28.65071,0.29589 28.9364,0c0.15897,-0.16465 1.82864,22.28195 0.56881,21.96107c-1.93624,0.42568 -6.855,-0.13788 -6.98798,-0.12243c-1.16865,0.13577 -5.22891,-13.84767 -5.33049,-13.93009c-1.30503,-1.05876 -4.24113,-0.56564 -4.35743,-0.10444c-0.08347,0.33103 -5.04998,12.99284 -6.13189,13.84771c-0.57881,0.45735 -7.02709,0.51402 -7.15631,-0.00001z" fill="#303333" stroke="#000000" stroke-width="1.5" stroke-linecap="butt"/><path d="M304.18164,203.72748c0.06491,0.35654 1.32206,-19.55718 1.32206,-20.52621c0,-0.36767 -5.64765,12.24235 -5.76705,12.17126c-0.93189,0.55059 -7.44529,-4.09196 -7.41765,-4.38356c0.02572,-0.27133 7.26933,-14.74593 8.82531,-14.55759c2.17815,-0.16569 36.15194,-0.3966 36.45366,-0.28494c0.39477,0.1461 10.35497,13.26793 10.07743,12.93863c-1.1427,1.52385 -4.63988,4.74479 -6.75165,4.75629c-0.44211,0.00242 -7.16455,-9.98356 -7.16092,-10.33238c0.00154,-0.14821 1.64309,20.82761 1.65258,20.85672c0.21421,0.65776 -31.2736,-0.85705 -31.23377,-0.63825z" fill="#9a0000" stroke="#000000" stroke-width="1.5" stroke-linecap="butt"/><path d="M315.71124,204.07876c0.0178,0.44732 0.36245,-23.56366 0.36245,-24.77938c0,-0.46125 7.74638,-0.14878 7.74738,-0.58638c0.00044,-0.18595 0.45046,25.15748 0.45305,25.19404c0.05874,0.8252 -8.57381,-0.1028 -8.56287,0.17168z" fill="#ffb84d" stroke="#000000" stroke-width="1.5" stroke-linecap="butt"/><g stroke="#000000"><path d="M342.33873,159.58186c0,12.73527 -10.32398,23.05925 -23.05925,23.05925c-12.73527,0 -23.05925,-10.32398 -23.05925,-23.05925c0,-12.73527 10.32398,-23.05925 23.05925,-23.05925c12.73527,0 23.05925,10.32398 23.05925,23.05925z" fill="#fff599" stroke-width="1.5" stroke-linecap="butt"/><path d="M322.51477,174.35147c0,0 -2.09584,0 -3.23529,0c-1.16396,0 -3.2353,-2.20588 -3.2353,-2.20588" fill="none" stroke-width="2.5" stroke-linecap="round"/><path d="M328.46301,160.71223c0,1.96648 -0.91093,3.56062 -2.03465,3.56062c-1.1237,0 -2.03465,-1.59414 -2.03465,-3.56062c0,-1.96648 0.91093,-3.56062 2.03465,-3.56062c1.1237,0 2.03465,1.59414 2.03465,3.56062z" fill="#000000" stroke-width="2.5" stroke-linecap="butt"/><path d="M315.80304,161.16436c0,1.96648 -0.91093,3.56062 -2.03465,3.56062c-1.1237,0 -2.03465,-1.59414 -2.03465,-3.56062c0,-1.96648 0.91093,-3.56062 2.03465,-3.56062c1.1237,0 2.03465,1.59414 2.03465,3.56062z" fill="#000000" stroke-width="2.5" stroke-linecap="butt"/></g><g stroke="#000000" stroke-linecap="butt"><path d="M308.13051,188.49517c0,-0.38165 1.50482,-4.54315 1.69534,-4.23923c0.07502,0.11968 -0.48275,2.70869 0.72074,2.32434c0.36912,-0.09808 0.20253,-2.91854 0.4416,-2.84675c0.19984,-0.00195 0.6176,2.8412 1.16242,3.24209c0.56175,0.42818 0.19869,-1.53121 0.43288,-1.40743c0.20386,0.08901 0.90319,2.54624 0.90319,2.92698c0,1.47907 -1.19902,2.67809 -2.67809,2.67809c-1.47907,0 -2.67809,-1.19902 -2.67809,-2.67809z" fill="#ff8933" stroke-width="0.3"/><path d="M308.95512,189.00962c0,-0.25303 0.23468,-2.8289 0.36099,-2.62741c0.04974,0.07935 0.44294,1.61269 1.24083,1.35788c0.24472,-0.06503 0.40895,-1.93494 0.56745,-1.88734c0.13249,-0.0013 0.47049,1.85315 0.8317,2.11893c0.37243,0.28387 0.559,-0.61841 0.71426,-0.53634c0.13516,0.05901 0.11049,1.29136 0.11049,1.54378c0,0.98059 -1.0696,1.80604 -2.0502,1.80604c-0.98059,0 -1.77552,-0.79493 -1.77552,-1.77552z" fill="#ff550d" stroke-width="0"/><path d="M309.68758,189.2358c0,-0.16426 -0.27493,-1.83639 -0.19294,-1.70559c0.03229,0.05151 0.71481,1.04689 1.23276,0.88147c0.15886,-0.04221 0.35703,-1.25607 0.45992,-1.22518c0.08601,-0.00084 0.21386,1.20298 0.44834,1.37551c0.24177,0.18428 0.69859,-0.40145 0.79938,-0.34817c0.08774,0.03831 -0.26399,0.83829 -0.26399,1.00215c0,0.63656 -0.69434,1.1724 -1.33089,1.1724c-0.63656,0 -1.15258,-0.51603 -1.15258,-1.15258z" fill="#ff0000" stroke-width="0"/></g><path d="M333.5612,137.95993c6.09757,0.13705 12.76123,15.52443 13.02827,18.07707c0.24643,2.35568 -0.73866,6.2763 -2.79471,5.37984c-1.60094,-2.03009 -3.70397,-1.11008 -3.76889,-0.91044c-0.02884,0.08871 -4.29151,-6.03172 -4.89932,-6.35729c-0.83515,-0.27632 -1.42746,1.04928 -4.74363,-2.59877c-3.01728,-3.31926 -8.94711,-4.96188 -8.94711,-4.96188c0,0 -2.58523,-10.46202 -2.30065,-10.75621c0,0 5.86104,-0.68988 14.42603,2.12769z" fill="#e68e53" stroke="#8f5a2f" stroke-width="1.5" stroke-linecap="butt"/><path d="M320.48394,134.98503c0.28027,0.38695 3.49385,9.0807 -0.66695,12.70102c-0.38215,0.3325 -4.04237,-0.50127 -9.12788,1.92987c-5.96459,2.8514 -7.03105,8.43484 -7.04616,8.35922c-0.10282,-0.83709 -2.7296,-1.53232 -5.7773,-0.19825c-1.55899,0.68242 -4.51282,3.56579 -4.62613,3.75985c-0.81851,1.40183 -0.11291,-2.77528 0.12699,-4.20334c0.0509,-0.30306 1.45224,-7.5613 1.68119,-8.03194c2.55357,-5.24912 8.46239,-9.45324 11.3348,-11.31785c0.50686,-0.32902 -7.84771,4.31376 -8.2091,3.67108c-0.45114,-0.80229 4.65327,-5.71088 8.88625,-6.93275c3.44735,-0.9951 13.10949,-0.17152 13.42428,0.26308z" fill="#e68e53" stroke="#8f5a2f" stroke-width="1.5" stroke-linecap="butt"/><path d="M309.97158,147.00523c-0.69224,-0.71364 -8.34252,6.4212 -8.24152,6.2289c0.07491,-0.14264 2.02002,-11.01424 4.19499,-9.9193" fill="none" stroke="#8f5a2f" stroke-width="1.5" stroke-linecap="round"/><path d="M337.14703,146.38178c0.99857,-0.26224 3.04776,6.65367 2.88514,6.50966c-0.07016,-0.06212 -2.79883,-1.0911 -2.8492,-1.20551c-0.02801,-0.06362 -0.94221,1.44359 -1.05351,1.46812c-0.07034,0.0155 -1.82869,-1.02284 -1.71992,-2.06805" fill="none" stroke="#8f5a2f" stroke-width="1.5" stroke-linecap="round"/><path d="M327.9218,141.87605c1.10152,0.99162 1.10746,4.72663 0.93513,4.59438c-0.30423,-0.23345 -3.18325,-3.89091 -3.18325,-3.89091" fill="none" stroke="#8f5a2f" stroke-width="1.5" stroke-linecap="round"/><path d="M311.0291,136.83391c0.11578,0.03506 8.6254,-1.30472 7.94077,1.03176" fill="none" stroke="#8f5a2f" stroke-width="1.5" stroke-linecap="round"/></g></g></svg>