<svg version="1.1" xmlns="http://www.w3.org/2000/svg" xmlns:xlink="http://www.w3.org/1999/xlink" width="129.52942" height="129.52942" viewBox="0,0,129.52942,129.52942"><g transform="translate(-255.23529,-115.23529)"><g data-paper-data="{&quot;isPaintingLayer&quot;:true}" fill-rule="nonzero" stroke-linecap="butt" stroke-linejoin="miter" stroke-miterlimit="10" stroke-dasharray="" stroke-dashoffset="0" style="mix-blend-mode: normal"><path d="M258.23529,180c0,-34.11171 27.653,-61.76471 61.76471,-61.76471c34.11171,0 61.76471,27.653 61.76471,61.76471c0,34.11171 -27.653,61.76471 -61.76471,61.76471c-34.11171,0 -61.76471,-27.653 -61.76471,-61.76471z" fill="none" stroke="#000000" stroke-width="6"/><path d="M266.17647,180c0,-29.72591 24.09761,-53.82353 53.82353,-53.82353c29.72591,0 53.82353,24.09761 53.82353,53.82353c0,29.72591 -24.09761,53.82353 -53.82353,53.82353c-29.72591,0 -53.82353,-24.09761 -53.82353,-53.82353z" fill="#000000" stroke="none" stroke-width="0"/><path d="M292.20588,180c0,-15.35026 12.44386,-27.79412 27.79412,-27.79412c15.35026,0 27.79412,12.44386 27.79412,27.79412c0,15.35026 -12.44386,27.79412 -27.79412,27.79412c-15.35026,0 -27.79412,-12.44386 -27.79412,-27.79412z" fill="none" stroke="#ffffff" stroke-width="4"/><path d="M296.20503,180c0,-13.14159 10.54916,-23.79497 23.56219,-23.79497c13.01303,0 23.56219,10.65338 23.56219,23.79497c0,13.14159 -10.54916,23.79497 -23.56219,23.79497c-13.01303,0 -23.56219,-10.65338 -23.56219,-23.79497z" fill="#ffffff" stroke="none" stroke-width="0"/></g></g></svg>