<svg version="1.1" xmlns="http://www.w3.org/2000/svg" xmlns:xlink="http://www.w3.org/1999/xlink" width="33.5425" height="27.90315" viewBox="0,0,33.5425,27.90315"><g transform="translate(-310.52501,-157.76794)"><g data-paper-data="{&quot;isPaintingLayer&quot;:true}" fill-rule="nonzero" stroke-linejoin="miter" stroke-miterlimit="10" stroke-dasharray="" stroke-dashoffset="0" style="mix-blend-mode: normal"><path d="M314.36069,179.54936l21.53134,0.54952" fill="#ffffff" stroke="#fff599" stroke-width="6" stroke-linecap="round"/><path d="M311.34697,173.7641c0.09806,-0.43822 22.42459,0.49706 22.41055,0.66623c1.1037,0.72781 -0.50177,10.36482 -0.83664,10.49076c-0.3116,0.11718 -21.19854,-1.656 -21.41968,-1.9818c-0.86279,-1.5852 -0.34099,-8.34046 -0.15421,-9.17517z" fill="#6abf54" stroke="#000000" stroke-width="1.5" stroke-linecap="butt"/><path d="M319.53022,163.74101l21.53729,-0.21301" fill="#ffffff" stroke="#fff599" stroke-width="6" stroke-linecap="round"/><path d="M315.65267,158.58165c0.08375,-0.44119 22.42889,-0.23326 22.42034,-0.06371c1.1268,0.69149 -0.16407,10.37567 -0.49467,10.51244c-0.30762,0.12726 -21.24122,-0.965 -21.47284,-1.28342c-0.91395,-1.55627 -0.61233,-8.32495 -0.45283,-9.1653z" fill="#6abf54" stroke="#000000" stroke-width="1.5" stroke-linecap="butt"/></g></g></svg>