<svg version="1.1" xmlns="http://www.w3.org/2000/svg" xmlns:xlink="http://www.w3.org/1999/xlink" width="57.34869" height="51.03948" viewBox="0,0,57.34869,51.03948"><g transform="translate(-291.22068,-154.75305)"><g fill="#808080" stroke="#000000" stroke-width="5" stroke-miterlimit="10"><path d="M304.27432,174.10285c0,0 -6.76462,-10.95165 0.77988,-15.79097c6.95414,-4.57813 15.12446,7.24538 14.6228,6.04489c-0.14245,-0.34088 7.68781,-10.94386 12.97123,-7.8237c7.77812,4.59342 2.15826,17.18366 2.15826,17.18366c0,0 11.01525,-0.00092 11.26094,5.98209c-0.34431,9.07459 -12.49079,8.93691 -12.49079,8.93691c0,0 6.04325,11.39496 -0.9193,14.6568c-7.63394,3.25148 -12.98855,-7.31956 -12.98855,-7.31956c0,0 -5.56354,10.02454 -13.81316,6.9729c-6.39066,-3.88368 -0.02351,-14.94899 -0.02351,-14.94899c0,0 -11.51081,-1.28377 -12.11143,-6.64072c-0.60062,-5.35695 10.55363,-7.25331 10.55363,-7.25331z"/><path d="M304.15349,180.02865c0,-8.45661 6.85544,-15.31204 15.31204,-15.31204c8.45661,0 15.31204,6.85544 15.31204,15.31204c0,8.45661 -6.85544,15.31204 -15.31204,15.31204c-8.45661,0 -15.31204,-6.85544 -15.31204,-15.31204z"/></g></g></svg>