<svg version="1.1" xmlns="http://www.w3.org/2000/svg" xmlns:xlink="http://www.w3.org/1999/xlink" width="85.57695" height="23.15855" viewBox="0,0,85.57695,23.15855"><g transform="translate(-315.81615,-163.91467)"><g fill="#808080" stroke="#000000" stroke-width="3" stroke-miterlimit="10"><g><path d="M323.57476,179.62456c0.24161,1.72826 -0.96355,3.32516 -2.69182,3.56679c-1.72826,0.24161 -3.32516,-0.96355 -3.56679,-2.69182c-0.24161,-1.72826 0.96354,-3.32516 2.69181,-3.56679c1.72826,-0.24161 3.32516,0.96355 3.56679,2.69182z"/><path d="M324.87858,177.10857l15.98491,-1.58195l0.46872,4.73627l-15.98491,1.58195z"/><path d="M341.21432,170.43432l4.28526,-0.4241l1.48433,14.99846l-4.28526,0.4241z"/><path d="M346.20659,174.2631l45.84605,-8.78345c0,0 7.16521,3.36843 7.84046,5.43747c0.77104,2.36258 -6.05268,8.43295 -6.05268,8.43295l-46.57383,0.90086z"/></g></g></g></svg>