<svg version="1.1" xmlns="http://www.w3.org/2000/svg" xmlns:xlink="http://www.w3.org/1999/xlink" width="32.45704" height="28.26494" viewBox="0,0,32.45704,28.26494"><g transform="translate(-312.01417,-156.90579)"><g data-paper-data="{&quot;isPaintingLayer&quot;:true}" fill-rule="nonzero" stroke-linejoin="miter" stroke-miterlimit="10" stroke-dasharray="" stroke-dashoffset="0" style="mix-blend-mode: normal"><path d="M318.55732,178.70408l22.91389,0.58481" fill="#ffffff" stroke="#fff599" stroke-width="6" stroke-linecap="round"/><path d="M315.35008,172.54734c0.10435,-0.46636 23.86451,0.52897 23.84956,0.70901c1.17457,0.77454 -0.53399,11.03036 -0.89036,11.16439c-0.33161,0.1247 -22.55973,-1.76234 -22.79507,-2.10906c-0.9182,-1.68699 -0.36289,-8.87601 -0.16411,-9.76432z" fill="#6abf54" stroke="#000000" stroke-width="1.5" stroke-linecap="butt"/><path d="M339.14414,162.82086l-22.92023,0.22668" fill="#ffffff" stroke="#fff599" stroke-width="6" stroke-linecap="round"/><path d="M312.76417,157.72359c0.08912,-0.46952 23.86908,-0.24824 23.85999,-0.0678c1.19916,0.73589 -0.17461,11.04191 -0.52644,11.18746c-0.32737,0.13543 -22.60515,-1.02696 -22.85164,-1.36583c-0.97263,-1.6562 -0.65165,-8.8595 -0.48191,-9.75382z" fill="#6abf54" stroke="#000000" stroke-width="1.5" stroke-linecap="butt"/></g></g></svg>