<svg version="1.1" xmlns="http://www.w3.org/2000/svg" xmlns:xlink="http://www.w3.org/1999/xlink" width="36.26372" height="27.77162" viewBox="0,0,36.26372,27.77162"><g transform="translate(-314.0354,-157.77429)"><g data-paper-data="{&quot;isPaintingLayer&quot;:true}" fill-rule="nonzero" stroke-linejoin="miter" stroke-miterlimit="10" stroke-dasharray="" stroke-dashoffset="0" style="mix-blend-mode: normal"><path d="M317.96675,179.25366l22.21483,0.56697" fill="#ffffff" stroke="#fff599" stroke-width="6" stroke-linecap="round"/><path d="M314.85736,173.28475c0.10117,-0.45213 23.13645,0.51283 23.12195,0.68738c1.13873,0.75091 -0.5177,10.69385 -0.8632,10.82378c-0.3215,0.1209 -21.87148,-1.70857 -22.09964,-2.04472c-0.89018,-1.63552 -0.35181,-8.60522 -0.15911,-9.46643z" fill="#6abf54" stroke="#000000" stroke-width="1.5" stroke-linecap="butt"/><path d="M347.29911,163.53178l-22.22098,0.21977" fill="#ffffff" stroke="#fff599" stroke-width="6" stroke-linecap="round"/><path d="M321.72395,158.59003c0.08641,-0.4552 23.14088,-0.24066 23.13206,-0.06573c1.16257,0.71344 -0.16928,10.70504 -0.51038,10.84615c-0.31738,0.1313 -21.91551,-0.99563 -22.15448,-1.32416c-0.94296,-1.60567 -0.63177,-8.58922 -0.46721,-9.45625z" fill="#6abf54" stroke="#000000" stroke-width="1.5" stroke-linecap="butt"/></g></g></svg>