<svg version="1.1" xmlns="http://www.w3.org/2000/svg" xmlns:xlink="http://www.w3.org/1999/xlink" width="39.63987" height="27.98583" viewBox="0,0,39.63987,27.98583"><g transform="translate(-310.56579,-157.68512)"><g data-paper-data="{&quot;isPaintingLayer&quot;:true}" fill-rule="nonzero" stroke-linejoin="miter" stroke-miterlimit="10" stroke-dasharray="" stroke-dashoffset="0" style="mix-blend-mode: normal"><path d="M314.45262,179.4014l22.12376,0.56464" fill="#ffffff" stroke="#fff599" stroke-width="6" stroke-linecap="round"/><path d="M311.35597,173.45697c0.10075,-0.45028 23.04159,0.51073 23.02715,0.68456c1.13406,0.74783 -0.51557,10.65 -0.85966,10.77941c-0.32017,0.1204 -21.78181,-1.70157 -22.00902,-2.03633c-0.88654,-1.62882 -0.35037,-8.56995 -0.15846,-9.42762z" fill="#6abf54" stroke="#000000" stroke-width="1.5" stroke-linecap="butt"/><path d="M347.20566,163.58304l-22.12987,0.21886" fill="#ffffff" stroke="#fff599" stroke-width="6" stroke-linecap="round"/><path d="M321.09154,158.50058c0.08605,-0.45333 23.046,-0.23968 23.03723,-0.06547c1.15781,0.71051 -0.16859,10.66116 -0.50829,10.80169c-0.31608,0.13076 -21.82566,-0.99155 -22.06365,-1.31873c-0.9391,-1.59908 -0.62918,-8.554 -0.46529,-9.41747z" fill="#6abf54" stroke="#000000" stroke-width="1.5" stroke-linecap="butt"/></g></g></svg>