<svg version="1.1" xmlns="http://www.w3.org/2000/svg" xmlns:xlink="http://www.w3.org/1999/xlink" width="76.4381" height="124.92411" viewBox="0,0,76.4381,124.92411"><g transform="translate(-283.35898,-122.40862)"><g data-paper-data="{&quot;isPaintingLayer&quot;:true}" fill-rule="nonzero" stroke-linejoin="miter" stroke-miterlimit="10" stroke-dasharray="" stroke-dashoffset="0" style="mix-blend-mode: normal"><path d="M355.50001,180.40862c0,32.03252 -15.89389,58 -35.5,58c-19.60611,0 -35.5,-25.96748 -35.5,-58c0,-32.03252 15.89389,-58 35.5,-58c19.60611,0 35.5,25.96748 35.5,58z" fill="#9966ff" stroke="none" stroke-width="0" stroke-linecap="butt"/><path d="M329.78751,236.79151l13.63615,-10.16606l8.046,-16.57369l5.40358,33.99201l-70.813,0.75983l2.57459,-33.57818c0,0 5.14359,11.60211 8.48364,14.94216c3.6273,3.6273 13.2494,10.96993 13.2494,10.96993" fill="#8b8b8b" stroke="#686868" stroke-width="5" stroke-linecap="round"/><path d="" fill="#000000" stroke="#fffdfd" stroke-width="2" stroke-linecap="butt"/><path d="M306.61667,154.05853v0z" fill="#000000" stroke="#fffdfd" stroke-width="2" stroke-linecap="butt"/><path d="M347.96262,179.99999c0,25.60749 -12.51928,46.36646 -27.96262,46.36646c-15.44333,0 -27.96262,-20.75897 -27.96262,-46.36645c0,-25.60748 12.51928,-46.36645 27.96262,-46.36645c15.44333,0 27.96262,20.75897 27.96262,46.36646z" fill="#000000" stroke="#fffdfd" stroke-width="3" stroke-linecap="butt"/></g></g></svg>