<svg version="1.1" xmlns="http://www.w3.org/2000/svg" xmlns:xlink="http://www.w3.org/1999/xlink" width="126.11332" height="164.17227" viewBox="0,0,126.11332,164.17227"><defs><linearGradient x1="321.66342" y1="99.60467" x2="321.66342" y2="220.04337" gradientUnits="userSpaceOnUse" id="color-1"><stop offset="0" stop-color="#34261c"/><stop offset="1" stop-color="#9f806a"/></linearGradient><linearGradient x1="338.79174" y1="108.78013" x2="333.94892" y2="191.46491" gradientUnits="userSpaceOnUse" id="color-2"><stop offset="0" stop-color="#392a1f"/><stop offset="1" stop-color="#a3826c"/></linearGradient></defs><g transform="translate(-255.70544,-98.85467)"><g stroke-miterlimit="10"><path d="" fill="#272727" stroke="#000000" stroke-width="1.5" stroke-linecap="butt"/><path d="" fill="#272727" stroke="#000000" stroke-width="1.5" stroke-linecap="butt"/><g><path d="M319.7785,146.39536l37.63748,9.33333l0.20909,22.33334c0,0 0.15064,17.31596 0.85884,24.32757c0.59698,5.91047 3.114,15.00576 3.114,15.00576c0,0 -4.09994,-9.98972 -5.14909,-15.60457c-0.8678,-4.64431 -0.70563,-15.72876 -0.70563,-15.72876c0,0 0.05604,21.65218 -3.13645,33c-3.19249,11.34783 -12.33673,22 -12.33673,22c0,0 2.88052,-9.16678 3.88278,-12.73102c0.69428,-2.469 1.55374,-6.60231 1.55374,-6.60231l-10.66395,21.66666v-28.66666c0,0 -3.68486,17.71265 -6.41823,24.99273c-2.96335,7.8926 -10.72773,20.67393 -10.72773,20.67393l-0.62729,-57c0,0 0.1253,16.57489 -0.56015,23.18574c-0.70782,6.82666 -3.6218,17.14759 -3.6218,17.14759c0,0 -11.08782,-5.00905 -15.68228,-12.33334c-4.59447,-7.32429 -7.1093,-24 -7.1093,-24c0,0 0.52805,7.99567 0.83639,14.66667c0.30834,6.67099 2.50916,16.66666 2.50916,16.66666c0,0 -4.23411,1.28728 -7.5275,-11.33334c-3.29339,-12.62062 -1.46368,-31.66666 -1.46368,-31.66666c0,0 -4.17344,7.08406 -5.01833,12.33334c-1.66316,10.33326 -0.20909,27.33333 -0.20909,27.33333c0,0 -5.18243,-17.58593 -4.39104,-30.66666c0.79138,-13.08073 8.36388,-35 8.36388,-35c0,0 -6.35472,18.65475 -10.16452,24.46862c-4.28825,6.54399 -14.29984,12.86471 -14.29984,12.86471c0,0 9.00285,-11.56727 12.60007,-19.45226c4.13413,-9.06187 10.81879,-31.88108 10.81879,-31.88108z" fill="#5e4b3e" stroke="#2f241e" stroke-width="1.5" stroke-linecap="round"/><path d="M352.48125,113.20722c9.62977,11.48908 12.56933,22.97306 13.3555,38.35144c0.78617,15.37838 -7.52871,28.47777 -9.45976,37.85337c-1.93106,9.3756 -3.36347,24.40546 -3.36347,24.40546l-0.21022,-21.66608c0,0 -0.91121,4.85757 -1.47894,7.88416c-0.77071,4.10859 -2.7254,14.52902 -2.7254,14.52902c0,0 -2.24943,-10.42404 -2.47947,-14.64818c-0.17537,-3.22007 -0.70927,3.84012 1.21817,-8.51211c1.92744,-12.35223 6.55889,-17.22754 5.0452,-31.62749c-1.51369,-14.39994 -3.19221,-25.64145 -11.98236,-34.36687c-8.79015,-8.72542 -18.01865,-11.83565 -28.91154,-6.22588c-10.8929,5.60978 -16.0349,10.32908 -18.6641,29.13713c-2.6292,18.80805 7.83829,40.06361 7.73282,49.05996c-0.10547,8.99636 -3.57368,22.66221 -3.57368,22.66221l-3.57368,-22.66221l-2.73282,-10.95756c0,0 1.6216,12.58911 1.69352,17.19025c0.068,4.35003 -3.16504,11.19978 -3.16504,11.19978c0,0 0.56129,-11.97704 0.2969,-18.71101c-0.2932,-7.46798 -1.97863,-24.12306 -1.97863,-24.12306c0,0 -2.23527,6.17574 -2.6389,9.04475c-0.4349,3.09124 0.11629,8.8858 0.11629,8.8858c0,0 -3.2861,-5.44825 -5.38193,-19.39151c-1.84455,-12.27155 -2.57758,-32.86344 -1.97566,-37.88662c1.10996,-9.26297 1.61945,-15.33834 12.613,-23.40932c10.99355,-8.07098 19.64116,-10.2652 32.16317,-9.46334c12.52201,0.80186 20.43123,1.95883 30.061,13.44791z" fill="url(#color-1)" stroke="#2f241e" stroke-width="1.5" stroke-linecap="round"/><path d="M342.07371,104.09793c0,0 9.16928,2.9925 17.17097,10.15376c6.53685,5.85027 11.92868,15.57758 13.93828,19.65053c11.80911,23.93409 6.8543,46.05812 6.8543,46.05812c0,0 -7.1491,-27.15403 -11.12466,-34.10657c-7.21565,-12.61885 -27.19747,-35.24398 -27.19747,-35.24398c0,0 10.26083,10.93077 27.08026,35.26702c5.18736,23.87216 5.23718,24.26575 2.10455,35.05048c-2.60082,8.95385 -10.68627,11.55302 -10.68627,11.55302c0,0 5.60509,-19.93835 2.15901,-36.4403c-3.61631,-17.31714 -17.50007,-37.34716 -17.50007,-37.34716c0,0 14.65157,20.49216 18.45016,41.67196c2.86846,15.99372 -5.0855,32.96671 -5.0855,32.96671c0,0 -6.48105,-33.06824 -11.92234,-45.30439c-3.31828,-7.46199 -17.63634,-21.16585 -17.63634,-21.16585c0,0 10.60628,11.36695 13.90797,16.13264c3.15077,4.54784 5.47061,11.83855 5.47061,11.83855c0,0 -5.55245,-7.49823 -9.30036,-11.98251c-1.27747,-1.52846 -6.60182,-5.19528 -8.60569,-7.52535c-6.86829,-7.98631 -10.72844,-15.81217 -10.72844,-15.81217c0,0 0.65694,21.4941 7.49023,35.09143c6.83329,13.59733 24.18611,30.5866 24.18611,30.5866c0,0 -20.25318,-16.88343 -26.99518,-29.0869c-6.74201,-12.20347 -7.89153,-38.2671 -7.89153,-38.2671l-18.27375,25.52073l0.51802,-17.81543c0,0 -1.41882,19.56448 -0.09936,27.43537c1.40126,8.35886 8.27632,21.342 8.27632,21.342c0,0 -5.67697,-3.70634 -9.82469,-9.69882c-2.11278,-3.05247 -6.6233,-15.84435 -6.74467,-21.1802c-0.19032,-8.36708 -2.00223,-25.76598 -2.00223,-25.76598" fill="url(#color-2)" stroke="#2f241e" stroke-width="1.5" stroke-linecap="round"/><path d="M324.32169,178.96614c1.12346,0.0616 6.34674,-0.01521 6.34674,-0.01521l-2.38103,0.45811c-2.20608,-0.29538 -4.43207,-0.6339 -6.66586,-0.9985c0,0 -2.79277,-0.45631 -3.30796,-1.93518c-0.2718,-0.78022 3.14742,2.33388 6.00811,2.49076z" fill="#000000" stroke="none" stroke-width="0.5" stroke-linecap="butt"/></g></g></g></svg>