<svg version="1.1" xmlns="http://www.w3.org/2000/svg" xmlns:xlink="http://www.w3.org/1999/xlink" width="27.3503" height="14" viewBox="0,0,27.3503,14"><g transform="translate(-306.32485,-173)"><g stroke="#000000" stroke-miterlimit="10"><g><path d="M326.67515,186.75c-0.96194,0 -9.9508,-1.79283 -9.18479,-2.27302c0.08231,-0.05161 2.53554,-0.50825 2.24715,-1.39538c-0.72329,-0.51484 -13.31718,-2.3744 -13.16122,-2.50798c0.22003,-0.18845 15.30048,0.38793 15.27248,0.08675c-0.24722,-0.93034 -8.52273,-1.67714 -8.34179,-2.27971c-0.00295,-0.30255 9.07797,-1.40947 9.33822,-1.76316c0.49096,-0.93794 -3.85936,-0.5008 -3.54736,-1.09105c0.22433,-0.51382 6.4177,-2.27646 7.37732,-2.27646c3.72792,0 6.75,3.02208 6.75,6.75c0,3.72792 -3.02208,6.75 -6.75,6.75z" fill="#ff8933" stroke-width="0.5"/><path d="M327.9718,184.67163c-0.63775,0 -7.92558,-0.13695 -7.41773,-0.4553c0.07561,-0.0474 1.75495,-1.00978 1.38848,-1.8118c-0.26409,-0.57795 -4.21497,-0.28154 -3.70507,-0.69667c0.65403,-0.53246 6.75896,-0.37074 6.53452,-1.07353c-0.1639,-0.6168 -4.87693,-1.59892 -4.75697,-1.99841c-0.00326,-0.33393 4.67077,-0.61768 5.34066,-1.52808c0.71549,-0.9387 -2.01323,-1.40895 -1.80638,-1.80027c0.14873,-0.34066 3.70936,-0.27848 4.34557,-0.27848c2.47154,0 4.55205,2.69589 4.55205,5.16743c0,2.47154 -2.00358,4.47512 -4.47512,4.47512z" fill="#ff550d" stroke-width="0"/><path d="M328.31461,183.28002c-0.414,0 -6.10582,0.35204 -5.77614,0.14538c0.12982,-0.08138 4.00227,-1.23345 3.58535,-2.53894c-0.1064,-0.4004 -2.82497,-1.92261 -2.74709,-2.18194c-0.00212,-0.21678 3.03205,-0.76631 3.46691,-1.3573c0.46446,-0.60936 -1.01182,-1.41987 -0.87755,-1.67389c0.09655,-0.22114 2.11287,0.89264 2.52587,0.89264c1.60441,0 2.95498,1.75005 2.95498,3.35446c0,1.60441 -1.30063,2.90504 -2.90504,2.90504z" fill="#ff0000" stroke-width="0"/></g></g></g></svg>