<svg version="1.1" xmlns="http://www.w3.org/2000/svg" xmlns:xlink="http://www.w3.org/1999/xlink" width="36.05655" height="28.51427" viewBox="0,0,36.05655,28.51427"><g transform="translate(-312.01475,-156.78145)"><g data-paper-data="{&quot;isPaintingLayer&quot;:true}" fill-rule="nonzero" stroke-linejoin="miter" stroke-miterlimit="10" stroke-dasharray="" stroke-dashoffset="0" style="mix-blend-mode: normal"><path d="M322.08711,178.81152l22.98419,0.5866" fill="#ffffff" stroke="#fff599" stroke-width="6" stroke-linecap="round"/><path d="M318.87004,172.63589c0.10467,-0.46779 23.93773,0.53059 23.92273,0.71118c1.17817,0.77692 -0.53562,11.0642 -0.8931,11.19864c-0.33263,0.12509 -22.62894,-1.76774 -22.86501,-2.11553c-0.92101,-1.69216 -0.364,-8.90325 -0.16462,-9.79428z" fill="#6abf54" stroke="#000000" stroke-width="1.5" stroke-linecap="butt"/><path d="M339.22566,162.71236l-22.99055,0.22738" fill="#ffffff" stroke="#fff599" stroke-width="6" stroke-linecap="round"/><path d="M312.76475,157.59946c0.0894,-0.47096 23.94231,-0.249 23.93319,-0.06801c1.20284,0.73815 -0.17514,11.07579 -0.52805,11.22178c-0.32838,0.13584 -22.67451,-1.03011 -22.92175,-1.37002c-0.97562,-1.66128 -0.65365,-8.88669 -0.48339,-9.78374z" fill="#6abf54" stroke="#000000" stroke-width="1.5" stroke-linecap="butt"/></g></g></svg>