<svg version="1.1" xmlns="http://www.w3.org/2000/svg" xmlns:xlink="http://www.w3.org/1999/xlink" width="56.7799" height="93.65715" viewBox="0,0,56.7799,93.65715"><g transform="translate(-291.15158,-134.99162)"><g data-paper-data="{&quot;isPaintingLayer&quot;:true}" fill-rule="nonzero" stroke-linejoin="miter" stroke-miterlimit="10" stroke-dasharray="" stroke-dashoffset="0" style="mix-blend-mode: normal"><path d="M306.77946,205.81691v-33.0531h26.44249v33.0531z" fill="#fff599" stroke="#000000" stroke-width="2" stroke-linecap="butt"/><path d="M344.93148,193.83656l-9.41296,-14.38091" fill="none" stroke="#fff599" stroke-width="6" stroke-linecap="round"/><path d="M330.97015,225.64877v-17.18762" fill="none" stroke="#fff599" stroke-width="6" stroke-linecap="round"/><path d="M308.49404,225.64877v-17.18762" fill="none" stroke="#fff599" stroke-width="6" stroke-linecap="round"/><path d="M295.88117,195.4436l8.47879,-14.95072" fill="#ffffff" stroke="#fff599" stroke-width="6" stroke-linecap="round"/><path d="M305.3334,224.52208c0.03924,0.08751 0.10886,-20.46723 0.44729,-21.10426c0.15306,-0.28809 27.92616,0.28841 28.20464,0c0.15494,-0.16048 1.7824,21.71846 0.55442,21.4057c-1.88728,0.41491 -6.68165,-0.13439 -6.81126,-0.11933c-1.1391,0.13233 -5.09669,-13.49749 -5.19569,-13.57782c-1.27203,-1.03198 -4.13387,-0.55133 -4.24723,-0.1018c-0.08137,0.32265 -4.92227,12.66427 -5.97682,13.49752c-0.56417,0.44578 -6.84938,0.50103 -6.97533,-0.00002z" fill="#303333" stroke="#000000" stroke-width="1.5" stroke-linecap="butt"/><path d="M304.66675,204.18391c0.06327,0.34752 1.28863,-19.0626 1.28863,-20.00713c0,-0.35836 -5.50482,11.93277 -5.62121,11.86346c-0.90832,0.53666 -7.257,-3.98848 -7.23007,-4.27271c0.02506,-0.26448 7.08551,-14.37302 8.60213,-14.18945c2.12306,-0.1615 35.2377,-0.38656 35.5318,-0.27773c0.38479,0.1424 10.09311,12.93241 9.82259,12.61142c-1.11379,1.48532 -4.52254,4.62479 -6.58092,4.636c-0.43093,0.00235 -6.98337,-9.73109 -6.97983,-10.07108c0.00151,-0.14447 1.60155,20.3009 1.61079,20.32928c0.20879,0.64112 -30.48273,-0.83537 -30.44391,-0.62211z" fill="#6abf54" stroke="#000000" stroke-width="1.5" stroke-linecap="butt"/><path d="M316.25807,182.34861c0,-0.40593 7.55048,-0.13094 7.55146,-0.51606c0.00043,-0.16365 0.43906,22.91586 0.4416,22.94803c0.25108,0.14473 -8.35699,-0.47816 -8.34634,-0.23658c0.01065,0.24158 0.35327,-21.12545 0.35327,-22.19539z" fill="#b3ffff" stroke="#000000" stroke-width="1.5" stroke-linecap="butt"/><path d="M342.4768,159.54254c0,12.41322 -10.0629,22.47611 -22.47611,22.47611c-12.41321,0 -22.47611,-10.0629 -22.47611,-22.47611c0,-12.41322 10.0629,-22.47611 22.47611,-22.47611c12.41321,0 22.47611,10.06289 22.47611,22.47611z" fill="#fff599" stroke="#000000" stroke-width="1.5" stroke-linecap="butt"/><path d="M328.95196,160.64434c0,1.91675 -0.8879,3.47057 -1.98318,3.47057c-1.09528,0 -1.98319,-1.55382 -1.98319,-3.47057c0,-1.91675 0.8879,-3.47058 1.98319,-3.47058c1.09528,0 1.98318,1.55383 1.98318,3.47058z" fill="#000000" stroke="#000000" stroke-width="3" stroke-linecap="butt"/><path d="M316.61216,161.08504c0,1.91675 -0.88791,3.47058 -1.98319,3.47058c-1.09528,0 -1.98318,-1.55383 -1.98318,-3.47058c0,-1.91675 0.8879,-3.47057 1.98318,-3.47057c1.09528,0 1.98319,1.55382 1.98319,3.47057z" fill="#000000" stroke="#000000" stroke-width="3" stroke-linecap="butt"/><path d="M322.96615,173.80885c0,0 -3.06635,2.3376 -5.13672,1.83982c-3.50747,-0.78519 -4.50982,-4.15914 -4.50982,-4.15914" fill="none" stroke="#000000" stroke-width="2.5" stroke-linecap="round"/><path d="M333.59544,138.14279c6.64841,0.14943 12.88179,18.99139 13.17295,21.77463c0.56783,5.42798 -3.58131,-0.70133 -3.71567,-0.28814c-0.03145,0.09672 0.8405,6.85706 0.85164,7.17594c0.01596,0.45681 -10.15857,-9.86669 -13.77431,-13.8443c-3.28985,-3.61911 -9.75537,-5.41012 -9.75537,-5.41012c0,0 -2.81877,-11.40713 -2.50848,-11.7279c0,0 6.39051,-0.7522 15.72924,2.3199z" fill="#e68e53" stroke="#8f5a2f" stroke-width="1.5" stroke-linecap="butt"/><path d="M320.10921,135.84001c0.30559,0.42191 3.80948,9.90103 -0.7272,13.8484c-0.41667,0.36254 -3.37529,0.82979 -8.92021,3.48056c-6.50342,3.10899 -15.23611,14.35812 -15.25259,14.27566c-0.16946,-1.37959 -0.67658,-5.0629 -0.67658,-5.0629c0,0 -2.8758,2.1353 -2.61423,0.57823c0.0555,-0.33044 2.2716,-9.62071 2.52124,-10.13387c2.78425,-5.72331 7.16235,-11.68357 10.29424,-13.71662c0.55265,-0.35874 -8.55665,4.70346 -8.95069,4.00272c-0.49189,-0.87477 5.07364,-6.22679 9.68901,-7.55904c3.75878,-1.085 14.29377,-0.18702 14.637,0.28685z" fill="#e68e53" stroke="#8f5a2f" stroke-width="1.5" stroke-linecap="butt"/><path d="M308.30311,148.94609c-0.75477,-0.77811 -9.09616,7.00128 -8.98604,6.7916c0.08168,-0.15553 2.2025,-12.00924 4.57396,-10.81539" fill="none" stroke="#8f5a2f" stroke-width="1.5" stroke-linecap="round"/><path d="M337.58943,147.57815c1.08878,-0.28593 3.32309,7.25475 3.14578,7.09773c-0.0765,-0.06773 -3.05167,-1.18967 -3.10659,-1.31441c-0.03054,-0.06937 -1.02733,1.574 -1.14868,1.60075c-0.07669,0.0169 -1.99389,-1.11524 -1.87529,-2.25487" fill="none" stroke="#8f5a2f" stroke-width="1.5" stroke-linecap="round"/><path d="M327.53082,142.66538c1.20103,1.0812 1.20751,5.15362 1.01961,5.00943c-0.33171,-0.25454 -3.47082,-4.2424 -3.47082,-4.2424" fill="none" stroke="#8f5a2f" stroke-width="1.5" stroke-linecap="round"/><path d="M309.45616,137.85592c0.12624,0.03823 9.4046,-1.42259 8.65812,1.12497" fill="none" stroke="#8f5a2f" stroke-width="1.5" stroke-linecap="round"/><path d="M311.59369,198.93953c0,-0.63313 0.51326,-1.14636 1.14637,-1.14636c0.63313,0 1.14636,0.51325 1.14636,1.14636c0,0.63313 -0.51325,1.14637 -1.14636,1.14637c-0.63313,0 -1.14637,-0.51326 -1.14637,-1.14637z" fill="#000000" stroke="#000000" stroke-width="0.5" stroke-linecap="butt"/><path d="M311.92422,193.24705c0,-0.63313 0.51325,-1.14636 1.14636,-1.14636c0.63311,0 1.14636,0.51324 1.14636,1.14636c0,0.63313 -0.51325,1.14636 -1.14636,1.14636c-0.63311,0 -1.14636,-0.51325 -1.14636,-1.14636z" fill="#000000" stroke="#000000" stroke-width="0.5" stroke-linecap="butt"/><path d="M312.25476,187.18732c0,-0.63313 0.51325,-1.14636 1.14636,-1.14636c0.63311,0 1.14636,0.51324 1.14636,1.14636c0,0.63313 -0.51325,1.14636 -1.14636,1.14636c-0.63311,0 -1.14636,-0.51325 -1.14636,-1.14636z" fill="#000000" stroke="#000000" stroke-width="0.5" stroke-linecap="butt"/></g></g></svg>